Radio-Canada-Bold.ufo
<glyph name="exclam" format="2">
	<advance width="358"/>
	<unicode hex="0021"/>
	<outline>
		<contour>
			<point x="85" y="80" type="curve" smooth="yes"/>
			<point x="85" y="28"/>
			<point x="124" y="-12"/>
			<point x="179" y="-12" type="curve" smooth="yes"/>
			<point x="234" y="-12"/>
			<point x="273" y="28"/>
			<point x="273" y="80" type="curve"/>
			<point x="273" y="133"/>
			<point x="234" y="172"/>
			<point x="179" y="172" type="curve" smooth="yes"/>
			<point x="124" y="172"/>
			<point x="85" y="133"/>
		</contour>
		<contour>
			<point x="122" y="260" type="line"/>
			<point x="236" y="260" type="line"/>
			<point x="262" y="525" type="line"/>
			<point x="262" y="690" type="line"/>
			<point x="96" y="690" type="line"/>
			<point x="96" y="525" type="line"/>
		</contour>
	</outline>
</glyph>
<glyph name="quotedbl" format="2">
	<advance width="492"/>
	<unicode hex="0022"/>
	<outline>
		<contour>
			<point x="50" y="720" type="line"/>
			<point x="85" y="375" type="line"/>
			<point x="187" y="375" type="line"/>
			<point x="222" y="720" type="line"/>
		</contour>
		<contour>
			<point x="270" y="720" type="line"/>
			<point x="305" y="375" type="line"/>
			<point x="407" y="375" type="line"/>
			<point x="442" y="720" type="line"/>
		</contour>
	</outline>
</glyph>
<glyph name="numbersign" format="2">
	<advance width="807"/>
	<unicode hex="0023"/>
	<outline>
		<contour>
			<point x="55" y="150" type="line"/>
			<point x="689" y="150" type="line"/>
			<point x="689" y="284" type="line"/>
			<point x="55" y="284" type="line"/>
		</contour>
		<contour>
			<point x="111" y="0" type="line"/>
			<point x="253" y="0" type="line"/>
			<point x="421" y="690" type="line"/>
			<point x="279" y="690" type="line"/>
		</contour>
		<contour>
			<point x="118" y="406" type="line"/>
			<point x="752" y="406" type="line"/>
			<point x="752" y="540" type="line"/>
			<point x="118" y="540" type="line"/>
		</contour>
		<contour>
			<point x="386" y="0" type="line"/>
			<point x="528" y="0" type="line"/>
			<point x="696" y="690" type="line"/>
			<point x="554" y="690" type="line"/>
		</contour>
	</outline>
</glyph>
<glyph name="dollar" format="2">
  <advance width="600"/>
  <unicode hex="0024"/>
  <outline>
    <contour>
      <point x="16.0" y="74" type="line"/>
      <point x="101.0" y="20"/>
      <point x="196.0" y="-12"/>
      <point x="290.0" y="-12" type="curve"/>
      <point x="481.0" y="-12"/>
      <point x="574.0" y="85"/>
      <point x="574.0" y="195" type="curve"/>
      <point x="574.0" y="296"/>
      <point x="507.0" y="370"/>
      <point x="337.0" y="426" type="curve" smooth="yes"/>
      <point x="243.0" y="457"/>
      <point x="212.0" y="482"/>
      <point x="212.0" y="513" type="curve"/>
      <point x="212.0" y="541"/>
      <point x="242.0" y="566"/>
      <point x="298.0" y="566" type="curve"/>
      <point x="367.0" y="566"/>
      <point x="434.0" y="539"/>
      <point x="489.0" y="500" type="curve"/>
      <point x="560.0" y="627" type="line"/>
      <point x="499.0" y="669"/>
      <point x="402.0" y="702"/>
      <point x="311.0" y="702" type="curve"/>
      <point x="140.0" y="702"/>
      <point x="51.0" y="610"/>
      <point x="51.0" y="500" type="curve"/>
      <point x="51.0" y="409"/>
      <point x="116.0" y="330"/>
      <point x="280.0" y="277" type="curve" smooth="yes"/>
      <point x="385.0" y="243"/>
      <point x="409.0" y="212"/>
      <point x="409.0" y="184" type="curve"/>
      <point x="409.0" y="152"/>
      <point x="372.0" y="126"/>
      <point x="307.0" y="126" type="curve"/>
      <point x="234.0" y="126"/>
      <point x="151.0" y="159"/>
      <point x="92.0" y="207" type="curve"/>
    </contour>
    <contour>
      <point x="241.0" y="-100" type="line"/>
      <point x="381.0" y="-100" type="line"/>
      <point x="381.0" y="37" type="line"/>
      <point x="241.0" y="81" type="line"/>
    </contour>
    <contour>
      <point x="241.0" y="638" type="line"/>
      <point x="381.0" y="594" type="line"/>
      <point x="381.0" y="790" type="line"/>
      <point x="241.0" y="790" type="line"/>
    </contour>
  </outline>
</glyph>
<glyph name="ampersand" format="1">
  <advance width="660"/>
  <unicode hex="0026"/>
  <outline>
    <contour>
      <point x="40" y="170" type="curve" smooth="yes"/>
      <point x="40" y="60"/>
      <point x="130" y="-12"/>
      <point x="250" y="-12" type="curve" smooth="yes"/>
      <point x="440" y="-12"/>
      <point x="550" y="140"/>
      <point x="620" y="300" type="curve"/>
      <point x="490" y="350" type="line"/>
      <point x="450" y="220"/>
      <point x="370" y="118"/>
      <point x="270" y="118" type="curve" smooth="yes"/>
      <point x="225" y="118"/>
      <point x="195" y="145"/>
      <point x="195" y="185" type="curve" smooth="yes"/>
      <point x="195" y="220"/>
      <point x="216" y="254"/>
      <point x="270" y="285" type="curve" smooth="yes"/>
      <point x="375" y="345" type="line" smooth="yes"/>
      <point x="471" y="400"/>
      <point x="513" y="450"/>
      <point x="513" y="530" type="curve" smooth="yes"/>
      <point x="513" y="630"/>
      <point x="435" y="702"/>
      <point x="315" y="702" type="curve" smooth="yes"/>
      <point x="195" y="702"/>
      <point x="110" y="630"/>
      <point x="110" y="525" type="curve" smooth="yes"/>
      <point x="110" y="450"/>
      <point x="150" y="400"/>
      <point x="200" y="340" type="curve" smooth="yes"/>
      <point x="480" y="0" type="line"/>
      <point x="670" y="0" type="line"/>
      <point x="330" y="410" type="line" smooth="yes"/>
      <point x="288" y="460"/>
      <point x="255" y="485"/>
      <point x="255" y="525" type="curve" smooth="yes"/>
      <point x="255" y="560"/>
      <point x="277" y="590"/>
      <point x="315" y="590" type="curve" smooth="yes"/>
      <point x="353" y="590"/>
      <point x="375" y="560"/>
      <point x="375" y="525" type="curve" smooth="yes"/>
      <point x="375" y="485"/>
      <point x="346" y="460"/>
      <point x="300" y="435" type="curve" smooth="yes"/>
      <point x="190" y="375" type="line" smooth="yes"/>
      <point x="90" y="320"/>
      <point x="40" y="255"/>
    </contour>
  </outline>
</glyph>
<glyph name="quotesingle" format="2">
  <advance width="272"/>
  <unicode hex="0027"/>
  <outline>
    <contour>
      <point x="50" y="720" type="line"/>
      <point x="85" y="375" type="line"/>
      <point x="187" y="375" type="line"/>
      <point x="222" y="720" type="line"/>
    </contour>
  </outline>
</glyph>
<glyph name="parenleft" format="2">
	<advance width="300"/>
	<unicode hex="0028"/>
	<outline>
		<contour>
			<point x="65" y="268" type="curve" smooth="yes"/>
			<point x="65" y="42"/>
			<point x="143" y="-114"/>
			<point x="278" y="-256" type="curve"/>
			<point x="350" y="-195" type="line"/>
			<point x="253" y="-59"/>
			<point x="205" y="83"/>
			<point x="205" y="268" type="curve" smooth="yes"/>
			<point x="205" y="453"/>
			<point x="253" y="594"/>
			<point x="350" y="730" type="curve"/>
			<point x="278" y="791" type="line"/>
			<point x="143" y="649"/>
			<point x="65" y="494"/>
		</contour>
	</outline>
</glyph>
<glyph name="parenright" format="2">
	<advance width="300"/>
	<unicode hex="0029"/>
	<outline>
		<contour>
			<point x="-50" y="-195" type="curve"/>
			<point x="22" y="-256" type="line"/>
			<point x="157" y="-114"/>
			<point x="235" y="42"/>
			<point x="235" y="268" type="curve" smooth="yes"/>
			<point x="235" y="494"/>
			<point x="157" y="649"/>
			<point x="22" y="791" type="curve"/>
			<point x="-50" y="730" type="line"/>
			<point x="47" y="594"/>
			<point x="95" y="453"/>
			<point x="95" y="268" type="curve" smooth="yes"/>
			<point x="95" y="83"/>
			<point x="47" y="-59"/>
		</contour>
	</outline>
</glyph>
<glyph name="plus" format="2">
  <advance width="600"/>
  <unicode hex="002B"/>
  <outline>
    <contour>
      <point x="62.0" y="223" type="line"/>
      <point x="538.0" y="223" type="line"/>
      <point x="538.0" y="357" type="line"/>
      <point x="62.0" y="357" type="line"/>
    </contour>
    <contour>
      <point x="230.0" y="55" type="line"/>
      <point x="370.0" y="55" type="line"/>
      <point x="370.0" y="525" type="line"/>
      <point x="230.0" y="525" type="line"/>
    </contour>
  </outline>
</glyph>
<glyph name="comma" format="2">
	<advance width="278"/>
	<unicode hex="002C"/>
	<outline>
		<contour>
			<point x="60" y="-185" type="line"/>
			<point x="148" y="-185" type="line"/>
			<point x="201" y="-49" type="line" smooth="yes"/>
			<point x="222" y="5"/>
			<point x="233" y="36"/>
			<point x="233" y="77" type="curve" smooth="yes"/>
			<point x="233" y="133"/>
			<point x="194" y="172"/>
			<point x="139" y="172" type="curve" smooth="yes"/>
			<point x="84" y="172"/>
			<point x="45" y="133"/>
			<point x="45" y="80" type="curve" smooth="yes"/>
			<point x="45" y="34"/>
			<point x="72" y="4"/>
			<point x="106" y="-7" type="curve"/>
		</contour>
	</outline>
</glyph>
<glyph name="hyphen" format="2">
	<advance width="396"/>
	<unicode hex="002D"/>
	<outline>
		<contour>
			<point x="55" y="217" type="line"/>
			<point x="341" y="217" type="line"/>
			<point x="341" y="338" type="line"/>
			<point x="55" y="338" type="line"/>
		</contour>
	</outline>
</glyph>
<glyph name="period" format="2">
	<advance width="278"/>
	<unicode hex="002E"/>
	<outline>
		<contour>
			<point x="45" y="80" type="curve" smooth="yes"/>
			<point x="45" y="28"/>
			<point x="84" y="-12"/>
			<point x="139" y="-12" type="curve" smooth="yes"/>
			<point x="194" y="-12"/>
			<point x="233" y="28"/>
			<point x="233" y="80" type="curve"/>
			<point x="233" y="133"/>
			<point x="194" y="172"/>
			<point x="139" y="172" type="curve" smooth="yes"/>
			<point x="84" y="172"/>
			<point x="45" y="133"/>
		</contour>
	</outline>
</glyph>
<glyph name="slash" format="2">
	<advance width="394"/>
	<unicode hex="002F"/>
	<outline>
		<contour>
			<point x="0" y="-30" type="line"/>
			<point x="147" y="-30" type="line"/>
			<point x="394" y="720" type="line"/>
			<point x="247" y="720" type="line"/>
		</contour>
	</outline>
</glyph>
<glyph name="zero" format="2">
  <advance width="600"/>
  <unicode hex="0030"/>
  <outline>
    <contour>
      <point x="25.0" y="345" type="curve" smooth="yes"/>
      <point x="25.0" y="108"/>
      <point x="150.0" y="-12"/>
      <point x="300.0" y="-12" type="curve" smooth="yes"/>
      <point x="450.0" y="-12"/>
      <point x="575.0" y="108"/>
      <point x="575.0" y="345" type="curve" smooth="yes"/>
      <point x="575.0" y="582"/>
      <point x="450.0" y="702"/>
      <point x="300.0" y="702" type="curve" smooth="yes"/>
      <point x="150.0" y="702"/>
      <point x="25.0" y="582"/>
    </contour>
    <contour>
      <point x="189.0" y="345" type="curve" smooth="yes"/>
      <point x="189.0" y="497"/>
      <point x="237.0" y="559"/>
      <point x="300.0" y="559" type="curve" smooth="yes"/>
      <point x="363.0" y="559"/>
      <point x="411.0" y="497"/>
      <point x="411.0" y="345" type="curve" smooth="yes"/>
      <point x="411.0" y="193"/>
      <point x="363.0" y="131"/>
      <point x="300.0" y="131" type="curve" smooth="yes"/>
      <point x="237.0" y="131"/>
      <point x="189.0" y="193"/>
    </contour>
  </outline>
</glyph>
<glyph name="one" format="2">
	<advance width="600"/>
	<unicode hex="0031"/>
	<outline>
		<contour>
			<point x="88" y="0" type="line"/>
			<point x="534" y="0" type="line"/>
			<point x="534" y="120" type="line"/>
			<point x="88" y="120" type="line"/>
		</contour>
		<contour>
			<point x="76" y="603" type="line"/>
			<point x="124" y="486" type="line"/>
			<point x="322" y="567" type="line"/>
			<point x="288" y="690" type="line"/>
		</contour>
		<contour>
			<point x="235" y="0" type="line"/>
			<point x="395" y="0" type="line"/>
			<point x="395" y="690" type="line"/>
			<point x="288" y="690" type="line"/>
			<point x="235" y="637" type="line"/>
		</contour>
	</outline>
</glyph>
<glyph name="two" format="1">
  <advance width="600"/>
  <unicode hex="0032"/>
  <outline>
    <contour>
      <point x="37.0" y="595" type="curve"/>
      <point x="124.0" y="479" type="line"/>
      <point x="171.0" y="524"/>
      <point x="223.0" y="555"/>
      <point x="276.0" y="555" type="curve"/>
      <point x="337.0" y="555"/>
      <point x="368.0" y="518"/>
      <point x="368.0" y="473" type="curve"/>
      <point x="368.0" y="432"/>
      <point x="340.0" y="390"/>
      <point x="272.0" y="324" type="curve" smooth="yes"/>
      <point x="48.0" y="105" type="line"/>
      <point x="117.0" y="0" type="line"/>
      <point x="369.0" y="222" type="line" smooth="yes"/>
      <point x="485.0" y="325"/>
      <point x="532.0" y="399"/>
      <point x="532.0" y="493" type="curve"/>
      <point x="532.0" y="612"/>
      <point x="430.0" y="702"/>
      <point x="294.0" y="702" type="curve"/>
      <point x="191.0" y="702"/>
      <point x="104.0" y="656"/>
    </contour>
    <contour>
      <point x="48.0" y="0" type="line"/>
      <point x="542.0" y="0" type="line"/>
      <point x="542.0" y="140" type="line"/>
      <point x="134.0" y="140" type="line"/>
      <point x="48.0" y="105" type="line"/>
    </contour>
  </outline>
</glyph>
<glyph name="three" format="1">
  <advance width="600"/>
  <unicode hex="0033"/>
  <outline>
    <contour>
      <point x="28.0" y="84" type="line"/>
      <point x="95.0" y="23"/>
      <point x="177.0" y="-12"/>
      <point x="283.0" y="-12" type="curve" smooth="yes"/>
      <point x="424.0" y="-12"/>
      <point x="547.0" y="66"/>
      <point x="547.0" y="215" type="curve" smooth="yes"/>
      <point x="547.0" y="350"/>
      <point x="439.0" y="421"/>
      <point x="293.0" y="421" type="curve"/>
      <point x="224.0" y="421" type="line"/>
      <point x="171.0" y="390" type="line"/>
      <point x="171.0" y="304" type="line"/>
      <point x="260.0" y="304" type="line" smooth="yes"/>
      <point x="349.0" y="304"/>
      <point x="388.0" y="265"/>
      <point x="388.0" y="215" type="curve" smooth="yes"/>
      <point x="388.0" y="159"/>
      <point x="338.0" y="128"/>
      <point x="264.0" y="128" type="curve" smooth="yes"/>
      <point x="202.0" y="128"/>
      <point x="152.0" y="154"/>
      <point x="111.0" y="198" type="curve"/>
    </contour>
    <contour>
      <point x="55.0" y="550" type="line"/>
      <point x="473.0" y="550" type="line"/>
      <point x="522.0" y="585" type="line"/>
      <point x="522.0" y="690" type="line"/>
      <point x="55.0" y="690" type="line"/>
    </contour>
    <contour>
      <point x="171.0" y="390" type="line"/>
      <point x="326.0" y="390" type="line"/>
      <point x="522.0" y="585" type="line"/>
      <point x="463.0" y="690" type="line"/>
    </contour>
  </outline>
</glyph>
<glyph name="four" format="2">
	<advance width="600"/>
	<unicode hex="0034"/>
	<outline>
		<contour>
			<point x="20" y="221" type="line"/>
			<point x="99" y="116" type="line"/>
			<point x="410" y="690" type="line"/>
			<point x="275" y="690" type="line"/>
		</contour>
		<contour>
			<point x="20" y="116" type="line"/>
			<point x="580" y="116" type="line"/>
			<point x="580" y="256" type="line"/>
			<point x="66" y="256" type="line"/>
			<point x="20" y="221" type="line"/>
		</contour>
		<contour>
			<point x="328" y="0" type="line"/>
			<point x="488" y="0" type="line"/>
			<point x="488" y="690" type="line"/>
			<point x="328" y="690" type="line"/>
		</contour>
	</outline>
</glyph>
<glyph name="five" format="2">
	<advance width="600"/>
	<unicode hex="0035"/>
	<outline>
		<contour>
			<point x="40" y="84" type="line"/>
			<point x="107" y="23"/>
			<point x="189" y="-12"/>
			<point x="295" y="-12" type="curve" smooth="yes"/>
			<point x="436" y="-12"/>
			<point x="559" y="66"/>
			<point x="559" y="215" type="curve" smooth="yes"/>
			<point x="559" y="350"/>
			<point x="460" y="435"/>
			<point x="320" y="435" type="curve" smooth="yes"/>
			<point x="250" y="435"/>
			<point x="185" y="405"/>
			<point x="145" y="360" type="curve"/>
			<point x="145" y="262" type="line"/>
			<point x="183" y="295"/>
			<point x="226" y="315"/>
			<point x="276" y="315" type="curve" smooth="yes"/>
			<point x="359" y="315"/>
			<point x="400" y="272"/>
			<point x="400" y="220" type="curve" smooth="yes"/>
			<point x="400" y="161"/>
			<point x="350" y="128"/>
			<point x="276" y="128" type="curve" smooth="yes"/>
			<point x="214" y="128"/>
			<point x="164" y="154"/>
			<point x="123" y="198" type="curve"/>
		</contour>
		<contour>
			<point x="78" y="307" type="line"/>
			<point x="145" y="262" type="line"/>
			<point x="214" y="336" type="line"/>
			<point x="234" y="690" type="line"/>
			<point x="100" y="690" type="line"/>
		</contour>
		<contour>
			<point x="100" y="690" type="line"/>
			<point x="163" y="550" type="line"/>
			<point x="512" y="550" type="line"/>
			<point x="512" y="690" type="line"/>
		</contour>
	</outline>
</glyph>
<glyph name="six" format="2">
  <advance width="600"/>
  <unicode hex="0036"/>
  <outline>
    <contour>
      <point x="37.0" y="320" type="curve" smooth="yes"/>
      <point x="37.0" y="110"/>
      <point x="153.0" y="-12"/>
      <point x="310.0" y="-12" type="curve"/>
      <point x="464.0" y="-12"/>
      <point x="565.0" y="87"/>
      <point x="565.0" y="225" type="curve" smooth="yes"/>
      <point x="565.0" y="360"/>
      <point x="473.0" y="449"/>
      <point x="349.0" y="449" type="curve" smooth="yes"/>
      <point x="281.0" y="449"/>
      <point x="218.0" y="415"/>
      <point x="186.0" y="364" type="curve"/>
      <point x="186.0" y="270" type="line"/>
      <point x="219.0" y="299"/>
      <point x="269.0" y="325"/>
      <point x="311.0" y="325" type="curve"/>
      <point x="370.0" y="325"/>
      <point x="411.0" y="285"/>
      <point x="411.0" y="222" type="curve" smooth="yes"/>
      <point x="411.0" y="167"/>
      <point x="371.0" y="123"/>
      <point x="315.0" y="123" type="curve"/>
      <point x="250.0" y="123"/>
      <point x="195.0" y="183"/>
      <point x="195.0" y="320" type="curve" smooth="yes"/>
      <point x="195.0" y="499"/>
      <point x="281.0" y="569"/>
      <point x="361.0" y="569" type="curve"/>
      <point x="397.0" y="569"/>
      <point x="431.0" y="558"/>
      <point x="466.0" y="529" type="curve"/>
      <point x="535.0" y="653" type="line"/>
      <point x="485.0" y="687"/>
      <point x="423.0" y="702"/>
      <point x="358.0" y="702" type="curve" smooth="yes"/>
      <point x="189.0" y="702"/>
      <point x="37.0" y="573"/>
    </contour>
  </outline>
</glyph>
<glyph name="seven" format="2">
  <advance width="600"/>
  <unicode hex="0037"/>
  <outline>
    <contour>
      <point x="40.0" y="540" type="line"/>
      <point x="480.0" y="540" type="line"/>
      <point x="529.0" y="585" type="line"/>
      <point x="529.0" y="690" type="line"/>
      <point x="40.0" y="690" type="line"/>
    </contour>
    <contour>
      <point x="126.0" y="0" type="line"/>
      <point x="302.0" y="0" type="line"/>
      <point x="529.0" y="585" type="line"/>
      <point x="414.0" y="690" type="line"/>
    </contour>
  </outline>
</glyph>
<glyph name="eight" format="1">
  <advance width="600"/>
  <unicode hex="0038"/>
  <outline>
    <contour>
      <point x="39.0" y="173" type="curve" smooth="yes"/>
      <point x="39.0" y="63"/>
      <point x="138.0" y="-12"/>
      <point x="298.0" y="-12" type="curve" smooth="yes"/>
      <point x="469.0" y="-12"/>
      <point x="561.0" y="78"/>
      <point x="561.0" y="184" type="curve" smooth="yes"/>
      <point x="561.0" y="281"/>
      <point x="504.0" y="367"/>
      <point x="326.0" y="424" type="curve" smooth="yes"/>
      <point x="239.0" y="451"/>
      <point x="213.0" y="478"/>
      <point x="213.0" y="509" type="curve"/>
      <point x="213.0" y="542"/>
      <point x="239.0" y="576"/>
      <point x="298.0" y="576" type="curve"/>
      <point x="357.0" y="576"/>
      <point x="389.0" y="545"/>
      <point x="389.0" y="506" type="curve"/>
      <point x="389.0" y="468"/>
      <point x="354.0" y="428"/>
      <point x="295.0" y="413" type="curve"/>
      <point x="383.0" y="372" type="line"/>
      <point x="483.0" y="386"/>
      <point x="534.0" y="443"/>
      <point x="534.0" y="522" type="curve" smooth="yes"/>
      <point x="534.0" y="624"/>
      <point x="439.0" y="702"/>
      <point x="299.0" y="702" type="curve" smooth="yes"/>
      <point x="157.0" y="702"/>
      <point x="63.0" y="615"/>
      <point x="63.0" y="512" type="curve" smooth="yes"/>
      <point x="63.0" y="415"/>
      <point x="118.0" y="347"/>
      <point x="288.0" y="290" type="curve" smooth="yes"/>
      <point x="382.0" y="258"/>
      <point x="403.0" y="222"/>
      <point x="403.0" y="186" type="curve" smooth="yes"/>
      <point x="403.0" y="150"/>
      <point x="368.0" y="117"/>
      <point x="297.0" y="117" type="curve" smooth="yes"/>
      <point x="228.0" y="117"/>
      <point x="188.0" y="150"/>
      <point x="188.0" y="197" type="curve"/>
      <point x="188.0" y="243"/>
      <point x="224.0" y="287"/>
      <point x="284.0" y="301" type="curve"/>
      <point x="192.0" y="347" type="line"/>
      <point x="94.0" y="325"/>
      <point x="39.0" y="261"/>
    </contour>
  </outline>
</glyph>
<glyph name="nine" format="1">
  <advance width="600"/>
  <unicode hex="0039"/>
  <outline>
    <contour>
      <point x="35.0" y="465" type="curve" smooth="yes"/>
      <point x="35.0" y="330"/>
      <point x="127.0" y="241"/>
      <point x="251.0" y="241" type="curve" smooth="yes"/>
      <point x="319.0" y="241"/>
      <point x="382.0" y="275"/>
      <point x="414.0" y="326" type="curve"/>
      <point x="414.0" y="420" type="line"/>
      <point x="381.0" y="391"/>
      <point x="331.0" y="365"/>
      <point x="289.0" y="365" type="curve"/>
      <point x="230.0" y="365"/>
      <point x="189.0" y="405"/>
      <point x="189.0" y="468" type="curve" smooth="yes"/>
      <point x="189.0" y="523"/>
      <point x="229.0" y="567"/>
      <point x="285.0" y="567" type="curve"/>
      <point x="350.0" y="567"/>
      <point x="405.0" y="507"/>
      <point x="405.0" y="370" type="curve" smooth="yes"/>
      <point x="405.0" y="191"/>
      <point x="319.0" y="121"/>
      <point x="239.0" y="121" type="curve"/>
      <point x="203.0" y="121"/>
      <point x="169.0" y="132"/>
      <point x="134.0" y="161" type="curve"/>
      <point x="65.0" y="37" type="line"/>
      <point x="115.0" y="3"/>
      <point x="177.0" y="-12"/>
      <point x="242.0" y="-12" type="curve" smooth="yes"/>
      <point x="411.0" y="-12"/>
      <point x="563.0" y="117"/>
      <point x="563.0" y="370" type="curve" smooth="yes"/>
      <point x="563.0" y="580"/>
      <point x="447.0" y="702"/>
      <point x="290.0" y="702" type="curve"/>
      <point x="136.0" y="702"/>
      <point x="35.0" y="603"/>
    </contour>
  </outline>
</glyph>
<glyph name="colon" format="2">
  <advance width="278"/>
  <unicode hex="003A"/>
  <outline>
    <contour>
      <point x="45" y="80" type="curve" smooth="yes"/>
      <point x="45" y="28"/>
      <point x="84" y="-12"/>
      <point x="139" y="-12" type="curve" smooth="yes"/>
      <point x="194" y="-12"/>
      <point x="233" y="28"/>
      <point x="233" y="80" type="curve"/>
      <point x="233" y="133"/>
      <point x="194" y="172"/>
      <point x="139" y="172" type="curve" smooth="yes"/>
      <point x="84" y="172"/>
      <point x="45" y="133"/>
    </contour>
    <contour>
      <point x="45" y="445" type="curve" smooth="yes"/>
      <point x="45" y="393"/>
      <point x="84" y="353"/>
      <point x="139" y="353" type="curve" smooth="yes"/>
      <point x="194" y="353"/>
      <point x="233" y="393"/>
      <point x="233" y="445" type="curve"/>
      <point x="233" y="498"/>
      <point x="194" y="537"/>
      <point x="139" y="537" type="curve" smooth="yes"/>
      <point x="84" y="537"/>
      <point x="45" y="498"/>
    </contour>
  </outline>
</glyph>
<glyph name="semicolon" format="2">
	<advance width="278"/>
	<unicode hex="003B"/>
	<outline>
		<contour>
			<point x="60" y="-185" type="line"/>
			<point x="148" y="-185" type="line"/>
			<point x="201" y="-49" type="line" smooth="yes"/>
			<point x="222" y="5"/>
			<point x="233" y="36"/>
			<point x="233" y="77" type="curve" smooth="yes"/>
			<point x="233" y="133"/>
			<point x="194" y="172"/>
			<point x="139" y="172" type="curve" smooth="yes"/>
			<point x="84" y="172"/>
			<point x="45" y="133"/>
			<point x="45" y="80" type="curve" smooth="yes"/>
			<point x="45" y="34"/>
			<point x="72" y="4"/>
			<point x="106" y="-7" type="curve"/>
		</contour>
		<contour>
			<point x="45" y="445" type="curve" smooth="yes"/>
			<point x="45" y="393"/>
			<point x="84" y="353"/>
			<point x="139" y="353" type="curve" smooth="yes"/>
			<point x="194" y="353"/>
			<point x="233" y="393"/>
			<point x="233" y="445" type="curve"/>
			<point x="233" y="498"/>
			<point x="194" y="537"/>
			<point x="139" y="537" type="curve" smooth="yes"/>
			<point x="84" y="537"/>
			<point x="45" y="498"/>
		</contour>
	</outline>
</glyph>
<glyph name="less" format="2">
	<advance width="600"/>
	<unicode hex="003C"/>
	<outline>
		<contour>
			<point x="68" y="227" type="line"/>
			<point x="510" y="39" type="line"/>
			<point x="510" y="193" type="line"/>
			<point x="178" y="319" type="line"/>
			<point x="68" y="319" type="line"/>
		</contour>
		<contour>
			<point x="68" y="263" type="line"/>
			<point x="178" y="263" type="line"/>
			<point x="510" y="387" type="line"/>
			<point x="510" y="537" type="line"/>
			<point x="68" y="349" type="line"/>
		</contour>
	</outline>
</glyph>
<glyph name="equal" format="2">
	<advance width="600"/>
	<unicode hex="003D"/>
	<outline>
		<contour>
			<point x="62" y="98" type="line"/>
			<point x="538" y="98" type="line"/>
			<point x="538" y="232" type="line"/>
			<point x="62" y="232" type="line"/>
		</contour>
		<contour>
			<point x="62" y="348" type="line"/>
			<point x="538" y="348" type="line"/>
			<point x="538" y="482" type="line"/>
			<point x="62" y="482" type="line"/>
		</contour>
	</outline>
</glyph>
<glyph name="greater" format="2">
	<advance width="600"/>
	<unicode hex="003E"/>
	<outline>
		<contour>
			<point x="90" y="39" type="line"/>
			<point x="532" y="227" type="line"/>
			<point x="532" y="312" type="line"/>
			<point x="422" y="313" type="line"/>
			<point x="90" y="189" type="line"/>
		</contour>
		<contour>
			<point x="90" y="383" type="line"/>
			<point x="422" y="257" type="line"/>
			<point x="532" y="256" type="line"/>
			<point x="532" y="349" type="line"/>
			<point x="90" y="537" type="line"/>
		</contour>
	</outline>
</glyph>
<glyph name="question" format="2">
	<advance width="518"/>
	<unicode hex="003F"/>
	<outline>
		<contour>
			<point x="153" y="80" type="curve" smooth="yes"/>
			<point x="153" y="28"/>
			<point x="192" y="-12"/>
			<point x="247" y="-12" type="curve" smooth="yes"/>
			<point x="302" y="-12"/>
			<point x="341" y="28"/>
			<point x="341" y="80" type="curve"/>
			<point x="341" y="133"/>
			<point x="302" y="172"/>
			<point x="247" y="172" type="curve" smooth="yes"/>
			<point x="192" y="172"/>
			<point x="153" y="133"/>
		</contour>
		<contour>
			<point x="10" y="595" type="curve"/>
			<point x="98" y="484" type="line"/>
			<point x="140" y="534"/>
			<point x="178" y="555"/>
			<point x="225" y="555" type="curve"/>
			<point x="273" y="555"/>
			<point x="299" y="527"/>
			<point x="299" y="497" type="curve"/>
			<point x="299" y="474"/>
			<point x="286" y="444"/>
			<point x="226" y="402" type="curve" smooth="yes"/>
			<point x="193" y="379"/>
			<point x="178" y="347"/>
			<point x="182" y="300" type="curve" smooth="yes"/>
			<point x="187" y="245" type="line"/>
			<point x="306" y="245" type="line"/>
			<point x="308" y="272" type="line" smooth="yes"/>
			<point x="309" y="291"/>
			<point x="317" y="308"/>
			<point x="334" y="319" type="curve" smooth="yes"/>
			<point x="437" y="390"/>
			<point x="463" y="443"/>
			<point x="463" y="513" type="curve"/>
			<point x="463" y="625"/>
			<point x="374" y="702"/>
			<point x="245" y="702" type="curve"/>
			<point x="154" y="702"/>
			<point x="67" y="656"/>
		</contour>
	</outline>
</glyph>
<glyph name="at" format="1">
  <advance width="1006"/>
  <unicode hex="0040"/>
  <outline>
    <contour>
      <point x="45" y="255" type="curve"/>
      <point x="45" y="-10"/>
      <point x="215" y="-197"/>
      <point x="513" y="-197" type="curve"/>
      <point x="610" y="-197"/>
      <point x="685" y="-186"/>
      <point x="750" y="-166" type="curve"/>
      <point x="711" y="-55" type="line"/>
      <point x="659" y="-72"/>
      <point x="584" y="-87"/>
      <point x="512" y="-87" type="curve"/>
      <point x="297" y="-87"/>
      <point x="170" y="49"/>
      <point x="170" y="254" type="curve"/>
      <point x="170" y="450"/>
      <point x="291" y="592"/>
      <point x="520" y="592" type="curve"/>
      <point x="732" y="592"/>
      <point x="836" y="455"/>
      <point x="836" y="270" type="curve"/>
      <point x="836" y="139"/>
      <point x="801" y="98"/>
      <point x="763" y="98" type="curve"/>
      <point x="731" y="98"/>
      <point x="715" y="121"/>
      <point x="715" y="165" type="curve"/>
      <point x="715" y="370" type="line" smooth="yes"/>
      <point x="715" y="398"/>
      <point x="717" y="417"/>
      <point x="722" y="446" type="curve"/>
      <point x="730" y="495" type="line"/>
      <point x="584" y="495" type="line"/>
      <point x="565" y="395" type="line"/>
      <point x="565" y="152" type="line"/>
      <point x="572" y="103" type="line"/>
      <point x="595" y="28"/>
      <point x="650" y="-12"/>
      <point x="740" y="-12" type="curve"/>
      <point x="893" y="-12"/>
      <point x="961" y="103"/>
      <point x="961" y="270" type="curve"/>
      <point x="961" y="541"/>
      <point x="790" y="702"/>
      <point x="516" y="702" type="curve"/>
      <point x="238" y="702"/>
      <point x="45" y="523"/>
    </contour>
    <contour>
      <point x="248" y="259" type="curve" smooth="yes"/>
      <point x="248" y="105"/>
      <point x="330" y="8"/>
      <point x="425" y="8" type="curve" smooth="yes"/>
      <point x="491" y="8"/>
      <point x="542" y="47"/>
      <point x="580" y="103" type="curve"/>
      <point x="580" y="199" type="line"/>
      <point x="552" y="165"/>
      <point x="512" y="144"/>
      <point x="475" y="144" type="curve" smooth="yes"/>
      <point x="429" y="144"/>
      <point x="398" y="184"/>
      <point x="398" y="267" type="curve" smooth="yes"/>
      <point x="398" y="345"/>
      <point x="437" y="389"/>
      <point x="489" y="389" type="curve" smooth="yes"/>
      <point x="536" y="389"/>
      <point x="565" y="351"/>
      <point x="565" y="268" type="curve"/>
      <point x="617" y="273" type="line"/>
      <point x="617" y="423"/>
      <point x="547" y="507"/>
      <point x="444" y="507" type="curve"/>
      <point x="334" y="507"/>
      <point x="248" y="420"/>
    </contour>
  </outline>
</glyph>
<glyph name="A" format="2">
	<advance width="656"/>
	<unicode hex="0041"/>
	<anchor x="327" y="690" name="top"/>
	<anchor x="328" y="0" name="bottom"/>
	<anchor x="486" y="0" name="ogonek"/>
	<outline>
		<contour>
			<point x="0" y="0" type="line"/>
			<point x="166" y="0" type="line"/>
			<point x="343" y="534" type="line"/>
			<point x="335" y="690" type="line"/>
			<point x="251" y="690" type="line"/>
		</contour>
		<contour>
			<point x="169" y="136" type="line"/>
			<point x="495" y="136" type="line"/>
			<point x="495" y="263" type="line"/>
			<point x="169" y="263" type="line"/>
		</contour>
		<contour>
			<point x="309" y="534" type="line"/>
			<point x="486" y="0" type="line"/>
			<point x="656" y="0" type="line"/>
			<point x="405" y="690" type="line"/>
			<point x="313" y="690" type="line"/>
		</contour>
	</outline>
</glyph>
<glyph name="B" format="2">
  <advance width="654"/>
  <unicode hex="0042"/>
  <outline>
    <contour>
      <point x="85" y="0" type="line"/>
      <point x="245" y="0" type="line"/>
      <point x="245" y="690" type="line"/>
      <point x="85" y="690" type="line"/>
    </contour>
    <contour>
      <point x="159" y="0" type="line"/>
      <point x="367" y="0" type="line" smooth="yes"/>
      <point x="500.71595330739297" y="0.0"/>
      <point x="604.0" y="70.69767441860465"/>
      <point x="604" y="190" type="curve" smooth="yes"/>
      <point x="604.0" y="309.75757575757564"/>
      <point x="508" y="388"/>
      <point x="367" y="388" type="curve" smooth="yes"/>
      <point x="159" y="388" type="line"/>
      <point x="159" y="288" type="line"/>
      <point x="352" y="288" type="line" smooth="yes"/>
      <point x="405" y="288"/>
      <point x="441.0" y="262.0"/>
      <point x="441" y="211" type="curve" smooth="yes"/>
      <point x="441.0" y="160.0"/>
      <point x="405" y="134"/>
      <point x="352" y="134" type="curve" smooth="yes"/>
      <point x="159" y="134" type="line"/>
    </contour>
    <contour>
      <point x="159" y="328" type="line"/>
      <point x="342" y="328" type="line" smooth="yes"/>
      <point x="473" y="328"/>
      <point x="574.0" y="389.0"/>
      <point x="574" y="505" type="curve" smooth="yes"/>
      <point x="574.0" y="620.0"/>
      <point x="472.8949416342412" y="690.0"/>
      <point x="342" y="690" type="curve" smooth="yes"/>
      <point x="159" y="690" type="line"/>
      <point x="159" y="556" type="line"/>
      <point x="332" y="556" type="line" smooth="yes"/>
      <point x="382" y="556"/>
      <point x="416.0" y="531.0"/>
      <point x="416" y="484" type="curve" smooth="yes"/>
      <point x="416.0" y="437.0"/>
      <point x="382" y="412"/>
      <point x="332" y="412" type="curve" smooth="yes"/>
      <point x="159" y="412" type="line"/>
    </contour>
  </outline>
</glyph>
<glyph name="D" format="2">
	<advance width="724"/>
	<unicode hex="0044"/>
	<anchor x="322" y="690" name="top"/>
	<outline>
		<contour>
			<point x="85" y="0" type="line"/>
			<point x="245" y="0" type="line"/>
			<point x="245" y="690" type="line"/>
			<point x="85" y="690" type="line"/>
		</contour>
		<contour>
			<point x="159" y="0" type="line"/>
			<point x="347" y="0" type="line" smooth="yes"/>
			<point x="534" y="0"/>
			<point x="679" y="128"/>
			<point x="679" y="345" type="curve" smooth="yes"/>
			<point x="679" y="562"/>
			<point x="534" y="690"/>
			<point x="347" y="690" type="curve" smooth="yes"/>
			<point x="159" y="690" type="line"/>
			<point x="159" y="550" type="line"/>
			<point x="332" y="550" type="line" smooth="yes"/>
			<point x="442" y="550"/>
			<point x="516" y="482"/>
			<point x="516" y="345" type="curve" smooth="yes"/>
			<point x="516" y="208"/>
			<point x="442" y="140"/>
			<point x="332" y="140" type="curve" smooth="yes"/>
			<point x="159" y="140" type="line"/>
		</contour>
	</outline>
</glyph>
<glyph name="E" format="2">
	<advance width="635"/>
	<unicode hex="0045"/>
	<anchor x="323" y="690" name="top"/>
	<anchor x="323" y="0" name="bottom"/>
	<anchor x="455" y="0" name="ogonek"/>
	<outline>
		<contour>
			<point x="85" y="0" type="line"/>
			<point x="245" y="0" type="line"/>
			<point x="245" y="690" type="line"/>
			<point x="85" y="690" type="line"/>
		</contour>
		<contour>
			<point x="159" y="0" type="line"/>
			<point x="575" y="0" type="line"/>
			<point x="575" y="140" type="line"/>
			<point x="159" y="140" type="line"/>
		</contour>
		<contour>
			<point x="159" y="282" type="line"/>
			<point x="523" y="282" type="line"/>
			<point x="523" y="414" type="line"/>
			<point x="159" y="414" type="line"/>
		</contour>
		<contour>
			<point x="159" y="550" type="line"/>
			<point x="570" y="550" type="line"/>
			<point x="570" y="690" type="line"/>
			<point x="159" y="690" type="line"/>
		</contour>
	</outline>
</glyph>
<glyph name="F" format="2">
	<advance width="595"/>
	<unicode hex="0046"/>
	<outline>
		<contour>
			<point x="85" y="0" type="line"/>
			<point x="245" y="0" type="line"/>
			<point x="245" y="690" type="line"/>
			<point x="85" y="690" type="line"/>
		</contour>
		<contour>
			<point x="159" y="247" type="line"/>
			<point x="515" y="247" type="line"/>
			<point x="515" y="387" type="line"/>
			<point x="159" y="387" type="line"/>
		</contour>
		<contour>
			<point x="159" y="550" type="line"/>
			<point x="555" y="550" type="line"/>
			<point x="555" y="690" type="line"/>
			<point x="159" y="690" type="line"/>
		</contour>
	</outline>
</glyph>
<glyph name="G" format="1">
  <advance width="703"/>
  <unicode hex="0047"/>
  <outline>
    <contour>
      <point x="45" y="345" type="curve" smooth="yes"/>
      <point x="45" y="122"/>
      <point x="204" y="-12"/>
      <point x="383" y="-12" type="curve" smooth="yes"/>
      <point x="479" y="-12"/>
      <point x="562" y="19"/>
      <point x="643" y="81" type="curve"/>
      <point x="489" y="149" type="line"/>
      <point x="455" y="134"/>
      <point x="418" y="128"/>
      <point x="390" y="128" type="curve" smooth="yes"/>
      <point x="286" y="128"/>
      <point x="208" y="207"/>
      <point x="208" y="345" type="curve" smooth="yes"/>
      <point x="208" y="483"/>
      <point x="289" y="554"/>
      <point x="391" y="554" type="curve" smooth="yes"/>
      <point x="448" y="554"/>
      <point x="499" y="534"/>
      <point x="547" y="501" type="curve"/>
      <point x="623" y="637" type="line"/>
      <point x="547" y="681"/>
      <point x="474" y="702"/>
      <point x="387" y="702" type="curve" smooth="yes"/>
      <point x="204" y="702"/>
      <point x="45" y="568"/>
    </contour>
    <contour>
      <point x="359" y="249" type="line"/>
      <point x="575" y="249" type="line"/>
      <point x="575" y="382" type="line"/>
      <point x="359" y="382" type="line"/>
    </contour>
    <contour>
      <point x="489" y="70" type="line"/>
      <point x="643" y="81" type="line"/>
      <point x="643" y="382" type="line"/>
      <point x="489" y="382" type="line"/>
    </contour>
    <contour>
      <point x="377" y="690" type="move" name="top"/>
    </contour>
    <contour>
      <point x="377" y="0" type="move" name="bottom"/>
    </contour>
  </outline>
</glyph>
<glyph name="H" format="2">
	<advance width="754"/>
	<unicode hex="0048"/>
	<anchor x="377" y="690" name="top"/>
	<outline>
		<contour>
			<point x="85" y="0" type="line"/>
			<point x="245" y="0" type="line"/>
			<point x="245" y="690" type="line"/>
			<point x="85" y="690" type="line"/>
		</contour>
		<contour>
			<point x="159" y="278" type="line"/>
			<point x="595" y="278" type="line"/>
			<point x="595" y="418" type="line"/>
			<point x="159" y="418" type="line"/>
		</contour>
		<contour>
			<point x="509" y="0" type="line"/>
			<point x="669" y="0" type="line"/>
			<point x="669" y="690" type="line"/>
			<point x="509" y="690" type="line"/>
		</contour>
	</outline>
</glyph>
<glyph name="I" format="2">
  <advance width="470"/>
  <unicode hex="0049"/>
  <anchor x="235" y="690" name="top"/>
  <anchor x="235" y="0" name="bottom"/>
  <anchor x="155" y="0" name="ogonek"/>
  <outline>
    <contour>
      <point x="65" y="0" type="line"/>
      <point x="405" y="0" type="line"/>
      <point x="405" y="120" type="line"/>
      <point x="65" y="120" type="line"/>
    </contour>
    <contour>
      <point x="65" y="570" type="line"/>
      <point x="405" y="570" type="line"/>
      <point x="405" y="690" type="line"/>
      <point x="65" y="690" type="line"/>
    </contour>
    <contour>
      <point x="155" y="0" type="line"/>
      <point x="315" y="0" type="line"/>
      <point x="315" y="690" type="line"/>
      <point x="155" y="690" type="line"/>
    </contour>
  </outline>
</glyph>
<glyph name="J" format="2">
	<advance width="569"/>
	<unicode hex="004A"/>
	<anchor x="332" y="690" name="top"/>
	<outline>
		<contour>
			<point x="15" y="74" type="line"/>
			<point x="68" y="21"/>
			<point x="137" y="-12"/>
			<point x="223" y="-12" type="curve"/>
			<point x="372" y="-12"/>
			<point x="494" y="80"/>
			<point x="494" y="245" type="curve" smooth="yes"/>
			<point x="494" y="690" type="line"/>
			<point x="334" y="690" type="line"/>
			<point x="334" y="265" type="line" smooth="yes"/>
			<point x="334" y="177"/>
			<point x="291" y="131"/>
			<point x="218" y="131" type="curve"/>
			<point x="173" y="131"/>
			<point x="134" y="154"/>
			<point x="111" y="186" type="curve"/>
		</contour>
		<contour>
			<point x="170" y="570" type="line"/>
			<point x="440" y="570" type="line"/>
			<point x="440" y="690" type="line"/>
			<point x="170" y="690" type="line"/>
		</contour>
	</outline>
</glyph>
<glyph name="K" format="2">
	<advance width="675"/>
	<unicode hex="004B"/>
	<anchor x="360" y="0" name="bottom"/>
	<outline>
		<contour>
			<point x="85" y="0" type="line"/>
			<point x="245" y="0" type="line"/>
			<point x="245" y="690" type="line"/>
			<point x="85" y="690" type="line"/>
		</contour>
		<contour>
			<point x="189" y="128" type="line"/>
			<point x="343" y="311" type="line"/>
			<point x="364" y="336" type="line"/>
			<point x="662" y="690" type="line"/>
			<point x="463" y="690" type="line"/>
			<point x="189" y="331" type="line"/>
		</contour>
		<contour>
			<point x="295" y="292" type="line"/>
			<point x="481" y="0" type="line"/>
			<point x="675" y="0" type="line"/>
			<point x="398" y="408" type="line"/>
		</contour>
	</outline>
</glyph>
<glyph name="L" format="2">
	<advance width="590"/>
	<unicode hex="004C"/>
	<anchor x="165" y="690" name="top"/>
	<anchor x="320" y="0" name="bottom"/>
	<anchor x="370" y="680" name="caron.alt"/>
	<outline>
		<contour>
			<point x="85" y="0" type="line"/>
			<point x="245" y="0" type="line"/>
			<point x="245" y="690" type="line"/>
			<point x="85" y="690" type="line"/>
		</contour>
		<contour>
			<point x="159" y="0" type="line"/>
			<point x="555" y="0" type="line"/>
			<point x="555" y="140" type="line"/>
			<point x="159" y="140" type="line"/>
		</contour>
	</outline>
</glyph>
<glyph name="N" format="2">
	<advance width="759"/>
	<unicode hex="004E"/>
	<anchor x="397" y="690" name="top"/>
	<anchor x="360" y="0" name="bottom"/>
	<outline>
		<contour>
			<point x="85" y="0" type="line"/>
			<point x="229" y="0" type="line"/>
			<point x="229" y="690" type="line"/>
			<point x="85" y="690" type="line"/>
		</contour>
		<contour>
			<point x="141" y="690" type="line"/>
			<point x="480" y="0" type="line"/>
			<point x="629" y="0" type="line"/>
			<point x="290" y="690" type="line"/>
		</contour>
		<contour>
			<point x="530" y="0" type="line"/>
			<point x="674" y="0" type="line"/>
			<point x="674" y="690" type="line"/>
			<point x="530" y="690" type="line"/>
		</contour>
	</outline>
</glyph>
<glyph name="O" format="2">
	<advance width="744"/>
	<unicode hex="004F"/>
	<anchor x="372" y="690" name="top"/>
	<anchor x="372" y="0" name="bottom"/>
	<anchor x="390" y="0" name="ogonek"/>
	<outline>
		<contour>
			<point x="45" y="345" type="curve" smooth="yes"/>
			<point x="45" y="122"/>
			<point x="192" y="-12"/>
			<point x="372" y="-12" type="curve" smooth="yes"/>
			<point x="552" y="-12"/>
			<point x="699" y="122"/>
			<point x="699" y="345" type="curve" smooth="yes"/>
			<point x="699" y="568"/>
			<point x="552" y="702"/>
			<point x="372" y="702" type="curve" smooth="yes"/>
			<point x="192" y="702"/>
			<point x="45" y="568"/>
		</contour>
		<contour>
			<point x="208" y="345" type="curve" smooth="yes"/>
			<point x="208" y="489"/>
			<point x="278" y="559"/>
			<point x="372" y="559" type="curve" smooth="yes"/>
			<point x="466" y="559"/>
			<point x="536" y="489"/>
			<point x="536" y="345" type="curve" smooth="yes"/>
			<point x="536" y="201"/>
			<point x="466" y="131"/>
			<point x="372" y="131" type="curve" smooth="yes"/>
			<point x="278" y="131"/>
			<point x="208" y="201"/>
		</contour>
	</outline>
</glyph>
<glyph name="P" format="2">
  <advance width="654"/>
  <unicode hex="0050"/>
  <outline>
    <contour>
      <point x="85" y="0" type="line"/>
      <point x="245" y="0" type="line"/>
      <point x="245" y="690" type="line"/>
      <point x="85" y="690" type="line"/>
    </contour>
    <contour>
      <point x="159" y="190" type="line"/>
      <point x="337" y="190" type="line" smooth="yes"/>
      <point x="493" y="190"/>
      <point x="614" y="283"/>
      <point x="614" y="440" type="curve" smooth="yes"/>
      <point x="614" y="597"/>
      <point x="493" y="690"/>
      <point x="337" y="690" type="curve" smooth="yes"/>
      <point x="159" y="690" type="line"/>
      <point x="159" y="550" type="line"/>
      <point x="322" y="550" type="line" smooth="yes"/>
      <point x="399" y="550"/>
      <point x="451" y="514"/>
      <point x="451" y="440" type="curve" smooth="yes"/>
      <point x="451" y="366"/>
      <point x="399" y="330"/>
      <point x="322" y="330" type="curve" smooth="yes"/>
      <point x="159" y="330" type="line"/>
    </contour>
  </outline>
</glyph>
<glyph name="Q" format="2">
	<advance width="744"/>
	<unicode hex="0051"/>
	<outline>
		<contour>
			<point x="415" y="10" type="line"/>
			<point x="450" y="-114"/>
			<point x="535" y="-172"/>
			<point x="680" y="-172" type="curve"/>
			<point x="680" y="-22" type="line"/>
			<point x="605" y="-22"/>
			<point x="560" y="0"/>
			<point x="540" y="60" type="curve"/>
		</contour>
		<contour>
			<point x="45" y="345" type="curve" smooth="yes"/>
			<point x="45" y="122"/>
			<point x="192" y="-12"/>
			<point x="372" y="-12" type="curve" smooth="yes"/>
			<point x="552" y="-12"/>
			<point x="699" y="122"/>
			<point x="699" y="345" type="curve" smooth="yes"/>
			<point x="699" y="568"/>
			<point x="552" y="702"/>
			<point x="372" y="702" type="curve" smooth="yes"/>
			<point x="192" y="702"/>
			<point x="45" y="568"/>
		</contour>
		<contour>
			<point x="208" y="345" type="curve" smooth="yes"/>
			<point x="208" y="489"/>
			<point x="278" y="559"/>
			<point x="372" y="559" type="curve" smooth="yes"/>
			<point x="466" y="559"/>
			<point x="536" y="489"/>
			<point x="536" y="345" type="curve" smooth="yes"/>
			<point x="536" y="201"/>
			<point x="466" y="131"/>
			<point x="372" y="131" type="curve" smooth="yes"/>
			<point x="278" y="131"/>
			<point x="208" y="201"/>
		</contour>
	</outline>
</glyph>
<glyph name="R" format="2">
  <advance width="659"/>
  <unicode hex="0052"/>
  <anchor x="322" y="690" name="top"/>
  <anchor x="340" y="0" name="bottom"/>
  <outline>
    <contour>
      <point x="85" y="0" type="line"/>
      <point x="245" y="0" type="line"/>
      <point x="245" y="690" type="line"/>
      <point x="85" y="690" type="line"/>
    </contour>
    <contour>
      <point x="159" y="240" type="line"/>
      <point x="347" y="240" type="line" smooth="yes"/>
      <point x="492" y="240"/>
      <point x="604" y="322"/>
      <point x="604" y="460" type="curve" smooth="yes"/>
      <point x="604" y="604"/>
      <point x="492" y="690"/>
      <point x="347" y="690" type="curve" smooth="yes"/>
      <point x="159" y="690" type="line"/>
      <point x="159" y="550" type="line"/>
      <point x="332" y="550" type="line" smooth="yes"/>
      <point x="397" y="550"/>
      <point x="441" y="521"/>
      <point x="441" y="460" type="curve" smooth="yes"/>
      <point x="441" y="399"/>
      <point x="397" y="370"/>
      <point x="332" y="370" type="curve" smooth="yes"/>
      <point x="159" y="370" type="line"/>
    </contour>
    <contour>
      <point x="296" y="290" type="line"/>
      <point x="447" y="0" type="line"/>
      <point x="624" y="0" type="line"/>
      <point x="455" y="290" type="line"/>
    </contour>
  </outline>
</glyph>
<glyph name="T" format="2">
	<advance width="586"/>
	<unicode hex="0054"/>
	<anchor x="293" y="690" name="top"/>
	<anchor x="293" y="0" name="bottom"/>
	<outline>
		<contour>
			<point x="25" y="550" type="line"/>
			<point x="561" y="550" type="line"/>
			<point x="561" y="690" type="line"/>
			<point x="25" y="690" type="line"/>
		</contour>
		<contour>
			<point x="213" y="0" type="line"/>
			<point x="373" y="0" type="line"/>
			<point x="373" y="690" type="line"/>
			<point x="213" y="690" type="line"/>
		</contour>
	</outline>
</glyph>
<glyph name="U" format="2">
	<advance width="724"/>
	<unicode hex="0055"/>
	<anchor x="364" y="690" name="top"/>
	<anchor x="362" y="0" name="bottom"/>
	<anchor x="390" y="0" name="ogonek"/>
	<outline>
		<contour>
			<point x="75" y="275" type="line" smooth="yes"/>
			<point x="75" y="91"/>
			<point x="201" y="-12"/>
			<point x="362" y="-12" type="curve" smooth="yes"/>
			<point x="523" y="-12"/>
			<point x="649" y="91"/>
			<point x="649" y="275" type="curve" smooth="yes"/>
			<point x="649" y="690" type="line"/>
			<point x="493" y="690" type="line"/>
			<point x="493" y="295" type="line" smooth="yes"/>
			<point x="493" y="181"/>
			<point x="438" y="131"/>
			<point x="364" y="131" type="curve" smooth="yes"/>
			<point x="290" y="131"/>
			<point x="235" y="181"/>
			<point x="235" y="295" type="curve" smooth="yes"/>
			<point x="235" y="690" type="line"/>
			<point x="75" y="690" type="line"/>
		</contour>
	</outline>
</glyph>
<glyph name="V" format="2">
	<advance width="656"/>
	<unicode hex="0056"/>
	<outline>
		<contour>
			<point x="0" y="690" type="line"/>
			<point x="251" y="0" type="line"/>
			<point x="343" y="0" type="line"/>
			<point x="347" y="156" type="line"/>
			<point x="170" y="690" type="line"/>
		</contour>
		<contour>
			<point x="313" y="156" type="line"/>
			<point x="321" y="0" type="line"/>
			<point x="405" y="0" type="line"/>
			<point x="656" y="690" type="line"/>
			<point x="490" y="690" type="line"/>
		</contour>
	</outline>
</glyph>
<glyph name="W" format="2">
	<advance width="956"/>
	<unicode hex="0057"/>
	<anchor x="478" y="690" name="top"/>
	<outline>
		<contour>
			<point x="0" y="690" type="line"/>
			<point x="205" y="0" type="line"/>
			<point x="300" y="0" type="line"/>
			<point x="300" y="167" type="line"/>
			<point x="168" y="690" type="line"/>
		</contour>
		<contour>
			<point x="267" y="167" type="line"/>
			<point x="267" y="0" type="line"/>
			<point x="356" y="0" type="line"/>
			<point x="513" y="548" type="line"/>
			<point x="513" y="690" type="line"/>
			<point x="414" y="690" type="line"/>
		</contour>
		<contour>
			<point x="443" y="548" type="line"/>
			<point x="598" y="0" type="line"/>
			<point x="692" y="0" type="line"/>
			<point x="692" y="167" type="line"/>
			<point x="546" y="690" type="line"/>
			<point x="443" y="690" type="line"/>
		</contour>
		<contour>
			<point x="660" y="167" type="line"/>
			<point x="660" y="0" type="line"/>
			<point x="750" y="0" type="line"/>
			<point x="956" y="690" type="line"/>
			<point x="792" y="690" type="line"/>
		</contour>
	</outline>
</glyph>
<glyph name="X" format="2">
  <advance width="624"/>
  <unicode hex="0058"/>
  <outline>
    <contour>
      <point x="5.0" y="0.0" type="line"/>
      <point x="184" y="0" type="line"/>
      <point x="324" y="250" type="line"/>
      <point x="381" y="323" type="line"/>
      <point x="609.0" y="690.0" type="line"/>
      <point x="430" y="690" type="line"/>
      <point x="301" y="458" type="line"/>
      <point x="244" y="384" type="line"/>
    </contour>
    <contour>
      <point x="15.0" y="690.0" type="line"/>
      <point x="269" y="282" type="line"/>
      <point x="435.0" y="0.0" type="line"/>
      <point x="619.0" y="0.0" type="line"/>
      <point x="357" y="421" type="line"/>
      <point x="199.0" y="690.0" type="line"/>
    </contour>
  </outline>
</glyph>
<glyph name="Y" format="2">
	<advance width="656"/>
	<unicode hex="0059"/>
	<anchor x="329" y="690" name="top"/>
	<outline>
		<contour>
			<point x="0" y="690" type="line"/>
			<point x="261" y="260" type="line"/>
			<point x="343" y="260" type="line"/>
			<point x="347" y="397" type="line"/>
			<point x="184" y="690" type="line"/>
		</contour>
		<contour>
			<point x="248" y="0" type="line"/>
			<point x="408" y="0" type="line"/>
			<point x="408" y="290" type="line"/>
			<point x="248" y="290" type="line"/>
		</contour>
		<contour>
			<point x="313" y="397" type="line"/>
			<point x="321" y="260" type="line"/>
			<point x="395" y="260" type="line"/>
			<point x="656" y="690" type="line"/>
			<point x="476" y="690" type="line"/>
		</contour>
	</outline>
</glyph>
<glyph name="backslash" format="2">
  <advance width="394"/>
  <unicode hex="005C"/>
  <outline>
    <contour>
      <point x="0" y="720" type="line"/>
      <point x="247" y="-30" type="line"/>
      <point x="394" y="-30" type="line"/>
      <point x="147" y="720" type="line"/>
    </contour>
  </outline>
</glyph>
<glyph name="bracketright" format="2">
	<advance width="320"/>
	<unicode hex="005D"/>
	<outline>
		<contour>
			<point x="-50" y="-295" type="line"/>
			<point x="235" y="-295" type="line"/>
			<point x="235" y="-175" type="line"/>
			<point x="-50" y="-175" type="line"/>
		</contour>
		<contour>
			<point x="-50" y="710" type="line"/>
			<point x="235" y="710" type="line"/>
			<point x="235" y="830" type="line"/>
			<point x="-50" y="830" type="line"/>
		</contour>
		<contour>
			<point x="95" y="-295" type="line"/>
			<point x="235" y="-295" type="line"/>
			<point x="235" y="830" type="line"/>
			<point x="95" y="830" type="line"/>
		</contour>
	</outline>
</glyph>
<glyph name="asciicircum" format="2">
  <advance width="600"/>
  <unicode hex="005E"/>
  <outline>
    <contour>
      <point x="62.0" y="248" type="line"/>
      <point x="212.0" y="248" type="line"/>
      <point x="336.0" y="580" type="line"/>
      <point x="335.0" y="690" type="line"/>
      <point x="250.0" y="690" type="line"/>
    </contour>
    <contour>
      <point x="279.0" y="690" type="line"/>
      <point x="280.0" y="580" type="line"/>
      <point x="406.0" y="248" type="line"/>
      <point x="560.0" y="248" type="line"/>
      <point x="372.0" y="690" type="line"/>
    </contour>
  </outline>
</glyph>
<glyph name="underscore" format="2">
	<advance width="456"/>
	<unicode hex="005F"/>
	<outline>
		<contour>
			<point x="0" y="-121" type="line"/>
			<point x="456" y="-121" type="line"/>
			<point x="456" y="0" type="line"/>
			<point x="0" y="0" type="line"/>
		</contour>
	</outline>
</glyph>
<glyph name="grave" format="2">
  <advance width="600"/>
  <unicode hex="0060"/>
  <anchor x="300" y="525" name="_top"/>
  <outline>
    <contour>
      <point x="106" y="750" type="line"/>
      <point x="245" y="600" type="line"/>
      <point x="366" y="600" type="line"/>
      <point x="277" y="750" type="line"/>
    </contour>
  </outline>
</glyph>
<glyph name="a" format="2">
	<advance width="557"/>
	<unicode hex="0061"/>
	<anchor x="264" y="525" name="top"/>
	<anchor x="264" y="0" name="bottom"/>
	<anchor x="356" y="0" name="ogonek"/>
	<anchor x="298" y="561" name="hook"/>
	<outline>
		<contour>
			<point x="35" y="138" type="curve" smooth="yes"/>
			<point x="35" y="48"/>
			<point x="106" y="-12"/>
			<point x="190" y="-12" type="curve" smooth="yes"/>
			<point x="260" y="-12"/>
			<point x="320" y="25"/>
			<point x="352" y="78" type="curve"/>
			<point x="352" y="163" type="line"/>
			<point x="320" y="125"/>
			<point x="276" y="100"/>
			<point x="230" y="100" type="curve" smooth="yes"/>
			<point x="195" y="100"/>
			<point x="170" y="120"/>
			<point x="170" y="155" type="curve" smooth="yes"/>
			<point x="170" y="190"/>
			<point x="201" y="222"/>
			<point x="290" y="226" type="curve" smooth="yes"/>
			<point x="370" y="230" type="line"/>
			<point x="370" y="315" type="line"/>
			<point x="280" y="312" type="line" smooth="yes"/>
			<point x="114" y="306"/>
			<point x="35" y="235"/>
		</contour>
		<contour>
			<point x="52" y="493" type="curve"/>
			<point x="92" y="375" type="line"/>
			<point x="130" y="394"/>
			<point x="180" y="412"/>
			<point x="236" y="412" type="curve" smooth="yes"/>
			<point x="305" y="412"/>
			<point x="337" y="377"/>
			<point x="337" y="318" type="curve" smooth="yes"/>
			<point x="337" y="100" type="line"/>
			<point x="356" y="0" type="line"/>
			<point x="502" y="0" type="line"/>
			<point x="494" y="49" type="line" smooth="yes"/>
			<point x="489" y="78"/>
			<point x="487" y="97"/>
			<point x="487" y="125" type="curve"/>
			<point x="487" y="326" type="line" smooth="yes"/>
			<point x="487" y="464"/>
			<point x="394" y="537"/>
			<point x="259" y="537" type="curve" smooth="yes"/>
			<point x="178" y="537"/>
			<point x="103" y="516"/>
		</contour>
	</outline>
</glyph>
<glyph name="e" format="2">
  <advance width="564"/>
  <unicode hex="0065"/>
  <anchor x="295.0" y="525.0" name="top"/>
  <anchor x="295.0" y="0.0" name="bottom"/>
  <anchor x="375.0" y="0.0" name="ogonek"/>
  <outline>
    <contour>
      <point x="38" y="252" type="curve" smooth="yes"/>
      <point x="38" y="94"/>
      <point x="140" y="-12"/>
      <point x="317" y="-12" type="curve" smooth="yes"/>
      <point x="388" y="-12"/>
      <point x="447" y="7"/>
      <point x="495" y="28" type="curve"/>
      <point x="454" y="140" type="line"/>
      <point x="420" y="122"/>
      <point x="374" y="110"/>
      <point x="334" y="110" type="curve" smooth="yes"/>
      <point x="244" y="110"/>
      <point x="184" y="156"/>
      <point x="184" y="262" type="curve" smooth="yes"/>
      <point x="184" y="374"/>
      <point x="230" y="420"/>
      <point x="292" y="420" type="curve" smooth="yes"/>
      <point x="351" y="420"/>
      <point x="385" y="375"/>
      <point x="385" y="272" type="curve"/>
      <point x="416" y="313" type="line"/>
      <point x="145" y="313" type="line"/>
      <point x="145" y="218" type="line"/>
      <point x="524" y="218" type="line"/>
      <point x="526" y="230"/>
      <point x="529" y="251"/>
      <point x="529" y="274" type="curve" smooth="yes"/>
      <point x="529" y="437"/>
      <point x="438" y="537"/>
      <point x="295" y="537" type="curve" smooth="yes"/>
      <point x="144" y="537"/>
      <point x="38" y="424"/>
    </contour>
  </outline>
</glyph>
<glyph name="f" format="2">
  <advance width="391"/>
  <unicode hex="0066"/>
  <outline>
    <contour>
      <point x="15" y="410" type="line"/>
      <point x="391" y="410" type="line"/>
      <point x="391" y="525" type="line"/>
      <point x="15" y="525" type="line"/>
    </contour>
    <contour>
      <point x="105" y="0" type="line"/>
      <point x="255" y="0" type="line"/>
      <point x="255" y="525" type="line" smooth="yes"/>
      <point x="255" y="581"/>
      <point x="276" y="610"/>
      <point x="326" y="610" type="curve"/>
      <point x="346" y="610"/>
      <point x="369" y="606"/>
      <point x="390" y="600" type="curve"/>
      <point x="406" y="713" type="line"/>
      <point x="373" y="725"/>
      <point x="330" y="732"/>
      <point x="298" y="732" type="curve"/>
      <point x="177" y="732"/>
      <point x="105" y="653"/>
      <point x="105" y="523" type="curve" smooth="yes"/>
    </contour>
  </outline>
</glyph>
<glyph name="g" format="2">
	<advance width="610"/>
	<unicode hex="0067"/>
	<anchor x="286" y="515" name="top"/>
	<outline>
		<contour>
			<point x="38" y="279" type="curve" smooth="yes"/>
			<point x="38" y="125"/>
			<point x="124" y="30"/>
			<point x="240" y="30" type="curve"/>
			<point x="302" y="30"/>
			<point x="360" y="57"/>
			<point x="400" y="113" type="curve"/>
			<point x="400" y="205" type="line"/>
			<point x="369" y="177"/>
			<point x="325" y="161"/>
			<point x="285" y="161" type="curve" smooth="yes"/>
			<point x="227" y="161"/>
			<point x="188" y="204"/>
			<point x="188" y="287" type="curve" smooth="yes"/>
			<point x="188" y="371.40816"/>
			<point x="235" y="419"/>
			<point x="299" y="419" type="curve" smooth="yes"/>
			<point x="352" y="419"/>
			<point x="385" y="381"/>
			<point x="385" y="298" type="curve"/>
			<point x="437" y="303" type="line"/>
			<point x="437" y="453"/>
			<point x="363" y="537"/>
			<point x="255" y="537" type="curve" smooth="yes"/>
			<point x="133" y="537"/>
			<point x="38" y="446.27473"/>
		</contour>
		<contour>
			<point x="70" y="-157" type="line"/>
			<point x="119" y="-178"/>
			<point x="180" y="-197"/>
			<point x="258" y="-197" type="curve" smooth="yes"/>
			<point x="417" y="-197"/>
			<point x="535" y="-97"/>
			<point x="535" y="74" type="curve" smooth="yes"/>
			<point x="535" y="400" type="line"/>
			<point x="535" y="428"/>
			<point x="537" y="447"/>
			<point x="542" y="476" type="curve" smooth="yes"/>
			<point x="550" y="525" type="line"/>
			<point x="404" y="525" type="line"/>
			<point x="385" y="425" type="line"/>
			<point x="385" y="72" type="line" smooth="yes"/>
			<point x="385" y="-25"/>
			<point x="334" y="-68"/>
			<point x="247" y="-68" type="curve" smooth="yes"/>
			<point x="197" y="-68"/>
			<point x="146" y="-53"/>
			<point x="106" y="-33" type="curve"/>
		</contour>
	</outline>
</glyph>
<glyph name="i" format="1">
  <advance width="300"/>
  <unicode hex="0069"/>
  <outline>
    <contour>
      <point x="75" y="0" type="line"/>
      <point x="225" y="0" type="line"/>
      <point x="225" y="525" type="line"/>
      <point x="75" y="525" type="line"/>
    </contour>
    <contour>
      <point x="64" y="676" type="curve" smooth="yes"/>
      <point x="64" y="629"/>
      <point x="99" y="590"/>
      <point x="150" y="590" type="curve" smooth="yes"/>
      <point x="201" y="590"/>
      <point x="236" y="629"/>
      <point x="236" y="676" type="curve" smooth="yes"/>
      <point x="236" y="723"/>
      <point x="201" y="762"/>
      <point x="150" y="762" type="curve" smooth="yes"/>
      <point x="99" y="762"/>
      <point x="64" y="723"/>
    </contour>
    <contour>
      <point x="150.0" y="0.0" type="move" name="bottom"/>
    </contour>
    <contour>
      <point x="75" y="0" type="move" name="ogonek"/>
    </contour>
  </outline>
</glyph>
<glyph name="j" format="2">
  <advance width="300"/>
  <unicode hex="006A"/>
  <outline>
    <contour>
      <point x="-61" y="-181" type="line"/>
      <point x="-34" y="-190"/>
      <point x="5" y="-197"/>
      <point x="36" y="-197" type="curve"/>
      <point x="151" y="-197"/>
      <point x="225" y="-129"/>
      <point x="225" y="8" type="curve" smooth="yes"/>
      <point x="225" y="525" type="line"/>
      <point x="75" y="525" type="line"/>
      <point x="75" y="16" type="line" smooth="yes"/>
      <point x="75" y="-46"/>
      <point x="49" y="-66"/>
      <point x="6" y="-66" type="curve"/>
      <point x="-10" y="-66"/>
      <point x="-24" y="-63"/>
      <point x="-45" y="-57" type="curve"/>
    </contour>
    <contour>
      <point x="64" y="676" type="curve" smooth="yes"/>
      <point x="64" y="629"/>
      <point x="99" y="590"/>
      <point x="150" y="590" type="curve" smooth="yes"/>
      <point x="201" y="590"/>
      <point x="236" y="629"/>
      <point x="236" y="676" type="curve" smooth="yes"/>
      <point x="236" y="723"/>
      <point x="201" y="762"/>
      <point x="150" y="762" type="curve" smooth="yes"/>
      <point x="99" y="762"/>
      <point x="64" y="723"/>
    </contour>
  </outline>
</glyph>
<glyph name="k" format="2">
	<advance width="575"/>
	<unicode hex="006B"/>
	<anchor x="310" y="0" name="bottom"/>
	<outline>
		<contour>
			<point x="75" y="0" type="line"/>
			<point x="225" y="0" type="line"/>
			<point x="225" y="735" type="line"/>
			<point x="75" y="715" type="line"/>
		</contour>
		<contour>
			<point x="169" y="101" type="line"/>
			<point x="562" y="525" type="line"/>
			<point x="376" y="525" type="line"/>
			<point x="169" y="273" type="line"/>
		</contour>
		<contour>
			<point x="243" y="269" type="line"/>
			<point x="404" y="0" type="line"/>
			<point x="575" y="0" type="line"/>
			<point x="338" y="361" type="line"/>
		</contour>
	</outline>
</glyph>
<glyph name="l" format="2">
	<advance width="300"/>
	<unicode hex="006C"/>
	<anchor x="150" y="720" name="top"/>
	<anchor x="150" y="0" name="bottom"/>
	<anchor x="300" y="720" name="caron.alt"/>
	<outline>
		<contour>
			<point x="75" y="0" type="line"/>
			<point x="225" y="0" type="line"/>
			<point x="225" y="735" type="line"/>
			<point x="75" y="715" type="line"/>
		</contour>
	</outline>
</glyph>
<glyph name="m" format="2">
	<advance width="935"/>
	<unicode hex="006D"/>
	<outline>
		<contour>
			<point x="60" y="525" type="line"/>
			<point x="68" y="476" type="line" smooth="yes"/>
			<point x="73" y="447"/>
			<point x="75" y="428"/>
			<point x="75" y="400" type="curve" smooth="yes"/>
			<point x="75" y="0" type="line"/>
			<point x="225" y="0" type="line"/>
			<point x="225" y="425" type="line"/>
			<point x="206" y="525" type="line"/>
		</contour>
		<contour>
			<point x="210" y="343" type="line"/>
			<point x="238" y="380"/>
			<point x="281" y="399"/>
			<point x="318" y="399" type="curve" smooth="yes"/>
			<point x="364" y="399"/>
			<point x="395" y="371"/>
			<point x="395" y="308" type="curve" smooth="yes"/>
			<point x="395" y="0" type="line"/>
			<point x="545" y="0" type="line"/>
			<point x="545" y="331" type="line" smooth="yes"/>
			<point x="545" y="469"/>
			<point x="466" y="537"/>
			<point x="375" y="537" type="curve" smooth="yes"/>
			<point x="307" y="537"/>
			<point x="249" y="498"/>
			<point x="210" y="442" type="curve"/>
		</contour>
		<contour>
			<point x="516" y="440" type="curve"/>
			<point x="530" y="343" type="line"/>
			<point x="558" y="380"/>
			<point x="601" y="399"/>
			<point x="638" y="399" type="curve" smooth="yes"/>
			<point x="684" y="399"/>
			<point x="715" y="371"/>
			<point x="715" y="308" type="curve" smooth="yes"/>
			<point x="715" y="0" type="line"/>
			<point x="865" y="0" type="line"/>
			<point x="865" y="331" type="line" smooth="yes"/>
			<point x="865" y="469"/>
			<point x="784" y="537"/>
			<point x="690" y="537" type="curve"/>
			<point x="617" y="537"/>
			<point x="555" y="496"/>
		</contour>
	</outline>
</glyph>
<glyph name="n" format="2">
	<advance width="634"/>
	<unicode hex="006E"/>
	<anchor x="325" y="525" name="top"/>
	<anchor x="320" y="0" name="bottom"/>
	<outline>
		<contour>
			<point x="60" y="525" type="line"/>
			<point x="68" y="476" type="line" smooth="yes"/>
			<point x="73" y="447"/>
			<point x="75" y="428"/>
			<point x="75" y="400" type="curve" smooth="yes"/>
			<point x="75" y="0" type="line"/>
			<point x="225" y="0" type="line"/>
			<point x="225" y="425" type="line"/>
			<point x="206" y="525" type="line"/>
		</contour>
		<contour>
			<point x="210" y="343" type="line"/>
			<point x="241" y="380"/>
			<point x="285" y="399"/>
			<point x="325" y="399" type="curve"/>
			<point x="377" y="399"/>
			<point x="414" y="369"/>
			<point x="414" y="303" type="curve" smooth="yes"/>
			<point x="414" y="0" type="line"/>
			<point x="564" y="0" type="line"/>
			<point x="564" y="326" type="line" smooth="yes"/>
			<point x="564" y="467"/>
			<point x="473" y="537"/>
			<point x="380" y="537" type="curve"/>
			<point x="308" y="537"/>
			<point x="251" y="498"/>
			<point x="210" y="442" type="curve"/>
		</contour>
	</outline>
</glyph>
<glyph name="o" format="2">
  <advance width="592"/>
  <unicode hex="006F"/>
  <anchor x="296" y="525" name="top"/>
  <anchor x="296" y="0" name="bottom"/>
  <anchor x="310" y="0" name="ogonek"/>
  <outline>
    <contour>
      <point x="38" y="262" type="curve" smooth="yes"/>
      <point x="38" y="93"/>
      <point x="145" y="-12"/>
      <point x="296" y="-12" type="curve" smooth="yes"/>
      <point x="447" y="-12"/>
      <point x="554" y="93"/>
      <point x="554" y="262" type="curve" smooth="yes"/>
      <point x="554" y="431"/>
      <point x="447" y="537"/>
      <point x="296" y="537" type="curve" smooth="yes"/>
      <point x="145" y="537"/>
      <point x="38" y="431"/>
    </contour>
    <contour>
      <point x="190" y="262" type="curve" smooth="yes"/>
      <point x="190" y="368"/>
      <point x="232" y="416"/>
      <point x="296" y="416" type="curve" smooth="yes"/>
      <point x="360" y="416"/>
      <point x="402" y="368"/>
      <point x="402" y="262" type="curve" smooth="yes"/>
      <point x="402" y="156"/>
      <point x="360" y="109"/>
      <point x="296" y="109" type="curve" smooth="yes"/>
      <point x="232" y="109"/>
      <point x="190" y="156"/>
    </contour>
  </outline>
</glyph>
<glyph name="p" format="2">
  <advance width="610"/>
  <unicode hex="0070"/>
  <outline>
    <contour>
      <point x="60" y="525" type="line"/>
      <point x="68" y="476" type="line" smooth="yes"/>
      <point x="73" y="447"/>
      <point x="75" y="428"/>
      <point x="75" y="400" type="curve" smooth="yes"/>
      <point x="75" y="-200" type="line"/>
      <point x="225" y="-180" type="line"/>
      <point x="225" y="425" type="line"/>
      <point x="206" y="525" type="line"/>
    </contour>
    <contour>
      <point x="173" y="222" type="line"/>
      <point x="173.0" y="80.03347280334728"/>
      <point x="247" y="-12"/>
      <point x="351" y="-12" type="curve" smooth="yes"/>
      <point x="476.8211009174312" y="-12.0"/>
      <point x="572" y="84"/>
      <point x="572" y="261" type="curve" smooth="yes"/>
      <point x="572" y="430"/>
      <point x="480.6546391752577" y="537.0"/>
      <point x="375" y="537" type="curve" smooth="yes"/>
      <point x="305" y="537"/>
      <point x="249.79411764705884" y="498.0"/>
      <point x="210" y="442" type="curve"/>
      <point x="210" y="343" type="line"/>
      <point x="241" y="380"/>
      <point x="285" y="401"/>
      <point x="325" y="401" type="curve" smooth="yes"/>
      <point x="382.9255319148936" y="401.0"/>
      <point x="422" y="353"/>
      <point x="422" y="253" type="curve" smooth="yes"/>
      <point x="422" y="159"/>
      <point x="374.8240740740741" y="106.0"/>
      <point x="311" y="106" type="curve" smooth="yes"/>
      <point x="258" y="106"/>
      <point x="225" y="144"/>
      <point x="225" y="227" type="curve"/>
    </contour>
  </outline>
</glyph>
<glyph name="r" format="2">
	<advance width="409"/>
	<unicode hex="0072"/>
	<anchor x="255" y="525" name="top"/>
	<anchor x="150" y="0" name="bottom"/>
	<outline>
		<contour>
			<point x="60" y="525" type="line"/>
			<point x="68" y="476" type="line" smooth="yes"/>
			<point x="73" y="447"/>
			<point x="75" y="428"/>
			<point x="75" y="400" type="curve" smooth="yes"/>
			<point x="75" y="0" type="line"/>
			<point x="225" y="0" type="line"/>
			<point x="225" y="420" type="line"/>
			<point x="206" y="525" type="line"/>
		</contour>
		<contour>
			<point x="210" y="328" type="line"/>
			<point x="262" y="374"/>
			<point x="308" y="389"/>
			<point x="387" y="389" type="curve"/>
			<point x="387" y="537" type="line"/>
			<point x="315" y="537"/>
			<point x="251" y="494"/>
			<point x="210" y="422" type="curve"/>
		</contour>
	</outline>
</glyph>
<glyph name="s" format="1">
  <advance width="485"/>
  <unicode hex="0073"/>
  <outline>
    <contour>
      <point x="25" y="35" type="line"/>
      <point x="76" y="8"/>
      <point x="145" y="-12"/>
      <point x="222" y="-12" type="curve" smooth="yes"/>
      <point x="361" y="-12"/>
      <point x="452" y="55"/>
      <point x="452" y="153" type="curve" smooth="yes"/>
      <point x="452" y="236"/>
      <point x="400" y="286"/>
      <point x="266" y="332" type="curve" smooth="yes"/>
      <point x="208" y="352"/>
      <point x="192" y="364"/>
      <point x="192" y="384" type="curve" smooth="yes"/>
      <point x="192" y="404"/>
      <point x="212" y="417"/>
      <point x="252" y="417" type="curve" smooth="yes"/>
      <point x="294" y="417"/>
      <point x="350" y="400"/>
      <point x="390" y="380" type="curve"/>
      <point x="439" y="495" type="line"/>
      <point x="389" y="519"/>
      <point x="325" y="537"/>
      <point x="260" y="537" type="curve" smooth="yes"/>
      <point x="123" y="537"/>
      <point x="46" y="464"/>
      <point x="46" y="372" type="curve" smooth="yes"/>
      <point x="46" y="292"/>
      <point x="94" y="238"/>
      <point x="230" y="192" type="curve" smooth="yes"/>
      <point x="278" y="176"/>
      <point x="296" y="164"/>
      <point x="296" y="144" type="curve" smooth="yes"/>
      <point x="296" y="124"/>
      <point x="280" y="108"/>
      <point x="230" y="108" type="curve" smooth="yes"/>
      <point x="176" y="108"/>
      <point x="118" y="128"/>
      <point x="76" y="154" type="curve"/>
    </contour>
    <contour>
      <point x="260" y="525" type="move" name="top"/>
    </contour>
    <contour>
      <point x="222" y="0" type="move" name="bottom"/>
    </contour>
  </outline>
</glyph>
<glyph name="t" format="2">
	<advance width="432"/>
	<unicode hex="0074"/>
	<anchor x="240" y="0" name="bottom"/>
	<anchor x="432" y="720" name="caron.alt"/>
	<outline>
		<contour>
			<point x="15" y="410" type="line"/>
			<point x="394" y="410" type="line"/>
			<point x="394" y="525" type="line"/>
			<point x="15" y="525" type="line"/>
		</contour>
		<contour>
			<point x="105" y="182" type="line" smooth="yes"/>
			<point x="105" y="52"/>
			<point x="175" y="-12"/>
			<point x="290" y="-12" type="curve" smooth="yes"/>
			<point x="328" y="-12"/>
			<point x="369" y="-4"/>
			<point x="402" y="8" type="curve"/>
			<point x="386" y="137" type="line"/>
			<point x="363" y="129"/>
			<point x="340" y="124"/>
			<point x="322" y="124" type="curve" smooth="yes"/>
			<point x="278" y="124"/>
			<point x="255" y="144"/>
			<point x="255" y="201" type="curve" smooth="yes"/>
			<point x="255" y="661" type="line"/>
			<point x="105" y="641" type="line"/>
		</contour>
	</outline>
</glyph>
<glyph name="u" format="2">
	<advance width="628"/>
	<unicode hex="0075"/>
	<anchor x="312" y="525" name="top"/>
	<anchor x="312" y="0" name="bottom"/>
	<anchor x="546" y="0" name="ogonek"/>
	<anchor x="544" y="525" name="horn"/>
	<outline>
		<contour>
			<point x="70" y="199" type="line" smooth="yes"/>
			<point x="70" y="58"/>
			<point x="158" y="-12"/>
			<point x="251" y="-12" type="curve" smooth="yes"/>
			<point x="323" y="-12"/>
			<point x="377" y="27"/>
			<point x="418" y="83" type="curve"/>
			<point x="418" y="182" type="line"/>
			<point x="387" y="145"/>
			<point x="346" y="126"/>
			<point x="306" y="126" type="curve" smooth="yes"/>
			<point x="254" y="126"/>
			<point x="220" y="156"/>
			<point x="220" y="222" type="curve" smooth="yes"/>
			<point x="220" y="525" type="line"/>
			<point x="70" y="525" type="line"/>
		</contour>
		<contour>
			<point x="422" y="0" type="line"/>
			<point x="568" y="0" type="line"/>
			<point x="560" y="49" type="line" smooth="yes"/>
			<point x="555" y="78"/>
			<point x="553" y="97"/>
			<point x="553" y="125" type="curve" smooth="yes"/>
			<point x="553" y="525" type="line"/>
			<point x="403" y="525" type="line"/>
			<point x="403" y="100" type="line"/>
		</contour>
	</outline>
</glyph>
<glyph name="x" format="2">
  <advance width="534"/>
  <unicode hex="0078"/>
  <outline>
    <contour>
      <point x="5" y="0" type="line"/>
      <point x="169" y="0" type="line"/>
      <point x="276" y="184" type="line"/>
      <point x="335" y="255" type="line"/>
      <point x="519" y="525" type="line"/>
      <point x="355" y="525" type="line"/>
      <point x="260" y="361" type="line"/>
      <point x="199" y="287" type="line"/>
    </contour>
    <contour>
      <point x="15" y="525" type="line"/>
      <point x="225" y="214" type="line"/>
      <point x="227" y="211" type="line"/>
      <point x="355" y="0" type="line"/>
      <point x="529" y="0" type="line"/>
      <point x="311" y="323" type="line"/>
      <point x="309" y="326" type="line"/>
      <point x="189" y="525" type="line"/>
    </contour>
  </outline>
</glyph>
<glyph name="y" format="2">
	<advance width="530"/>
	<unicode hex="0079"/>
	<anchor x="268" y="525" name="top"/>
	<outline>
		<contour>
			<point x="0" y="525" type="line"/>
			<point x="204" y="0" type="line"/>
			<point x="297" y="0" type="line"/>
			<point x="296" y="110" type="line"/>
			<point x="164" y="525" type="line"/>
		</contour>
		<contour>
			<point x="19" y="-181" type="line"/>
			<point x="44" y="-190"/>
			<point x="78" y="-197"/>
			<point x="106" y="-197" type="curve"/>
			<point x="224" y="-197"/>
			<point x="276" y="-128"/>
			<point x="326" y="0" type="curve" smooth="yes"/>
			<point x="530" y="525" type="line"/>
			<point x="370" y="525" type="line"/>
			<point x="240" y="110" type="line"/>
			<point x="204" y="47" type="line"/>
			<point x="166" y="-53"/>
			<point x="136" y="-69"/>
			<point x="88" y="-69" type="curve"/>
			<point x="70" y="-69"/>
			<point x="53" y="-66"/>
			<point x="35" y="-60" type="curve"/>
		</contour>
	</outline>
</glyph>
<glyph name="z" format="1">
  <advance width="501"/>
  <unicode hex="007A"/>
  <outline>
    <contour>
      <point x="35" y="85" type="line"/>
      <point x="147" y="0" type="line"/>
      <point x="456" y="440" type="line"/>
      <point x="344" y="525" type="line"/>
    </contour>
    <contour>
      <point x="35" y="0" type="line"/>
      <point x="466" y="0" type="line"/>
      <point x="466" y="115" type="line"/>
      <point x="94" y="115" type="line"/>
      <point x="35" y="85" type="line"/>
    </contour>
    <contour>
      <point x="45" y="410" type="line"/>
      <point x="398" y="410" type="line"/>
      <point x="456" y="440" type="line"/>
      <point x="456" y="525" type="line"/>
      <point x="45" y="525" type="line"/>
    </contour>
    <contour>
      <point x="250" y="525" type="move" name="top"/>
    </contour>
  </outline>
</glyph>
<glyph name="braceleft" format="2">
	<advance width="363"/>
	<unicode hex="007B"/>
	<outline>
		<contour>
			<point x="60" y="221" type="line"/>
			<point x="161" y="204"/>
			<point x="182" y="176"/>
			<point x="182" y="132" type="curve"/>
			<point x="182" y="57"/>
			<point x="103" y="8"/>
			<point x="103" y="-81" type="curve" smooth="yes"/>
			<point x="103" y="-176"/>
			<point x="175" y="-255"/>
			<point x="322" y="-278" type="curve"/>
			<point x="348" y="-195" type="line"/>
			<point x="264" y="-166"/>
			<point x="243" y="-127"/>
			<point x="243" y="-82" type="curve" smooth="yes"/>
			<point x="243" y="-8"/>
			<point x="306" y="45"/>
			<point x="306" y="137" type="curve"/>
			<point x="306" y="201"/>
			<point x="261" y="252"/>
			<point x="181" y="268" type="curve"/>
			<point x="261" y="284"/>
			<point x="306" y="336"/>
			<point x="306" y="400" type="curve"/>
			<point x="306" y="492"/>
			<point x="243" y="543"/>
			<point x="243" y="617" type="curve" smooth="yes"/>
			<point x="243" y="662"/>
			<point x="264" y="701"/>
			<point x="348" y="730" type="curve"/>
			<point x="322" y="813" type="line"/>
			<point x="175" y="790"/>
			<point x="103" y="711"/>
			<point x="103" y="616" type="curve" smooth="yes"/>
			<point x="103" y="527"/>
			<point x="182" y="479"/>
			<point x="182" y="404" type="curve"/>
			<point x="182" y="360"/>
			<point x="161" y="332"/>
			<point x="60" y="315" type="curve"/>
		</contour>
	</outline>
</glyph>
<glyph name="bar" format="2">
  <advance width="310"/>
  <unicode hex="007C"/>
  <outline>
    <contour>
      <point x="85" y="-215" type="line"/>
      <point x="225" y="-215" type="line"/>
      <point x="225" y="720" type="line"/>
      <point x="85" y="720" type="line"/>
    </contour>
  </outline>
</glyph>
<glyph name="braceright" format="2">
	<advance width="363"/>
	<unicode hex="007D"/>
	<outline>
		<contour>
			<point x="15" y="-195" type="curve"/>
			<point x="41" y="-278" type="line"/>
			<point x="188" y="-255"/>
			<point x="260" y="-176"/>
			<point x="260" y="-81" type="curve" smooth="yes"/>
			<point x="260" y="8"/>
			<point x="181" y="57"/>
			<point x="181" y="132" type="curve"/>
			<point x="181" y="176"/>
			<point x="202" y="204"/>
			<point x="303" y="221" type="curve"/>
			<point x="303" y="315" type="line"/>
			<point x="202" y="332"/>
			<point x="181" y="360"/>
			<point x="181" y="404" type="curve"/>
			<point x="181" y="479"/>
			<point x="260" y="527"/>
			<point x="260" y="616" type="curve" smooth="yes"/>
			<point x="260" y="711"/>
			<point x="188" y="790"/>
			<point x="41" y="813" type="curve"/>
			<point x="15" y="730" type="line"/>
			<point x="99" y="701"/>
			<point x="120" y="662"/>
			<point x="120" y="617" type="curve" smooth="yes"/>
			<point x="120" y="543"/>
			<point x="57" y="492"/>
			<point x="57" y="400" type="curve"/>
			<point x="57" y="336"/>
			<point x="102" y="284"/>
			<point x="182" y="268" type="curve"/>
			<point x="102" y="252"/>
			<point x="57" y="201"/>
			<point x="57" y="137" type="curve"/>
			<point x="57" y="45"/>
			<point x="120" y="-8"/>
			<point x="120" y="-82" type="curve" smooth="yes"/>
			<point x="120" y="-127"/>
			<point x="99" y="-166"/>
		</contour>
	</outline>
</glyph>
<glyph name="asciitilde" format="2">
  <advance width="600"/>
  <unicode hex="007E"/>
  <outline>
    <contour>
      <point x="76.0" y="290" type="curve"/>
      <point x="146.0" y="290" type="line"/>
      <point x="158.0" y="346"/>
      <point x="178.0" y="364"/>
      <point x="203.0" y="364" type="curve"/>
      <point x="256.0" y="364"/>
      <point x="302.0" y="285"/>
      <point x="387.0" y="285" type="curve" smooth="yes"/>
      <point x="463.0" y="285"/>
      <point x="518.0" y="342"/>
      <point x="524.0" y="470" type="curve"/>
      <point x="454.0" y="470" type="line"/>
      <point x="443.0" y="414"/>
      <point x="422.0" y="396"/>
      <point x="397.0" y="396" type="curve"/>
      <point x="343.0" y="396"/>
      <point x="297.0" y="475"/>
      <point x="213.0" y="475" type="curve" smooth="yes"/>
      <point x="137.0" y="475"/>
      <point x="81.0" y="418"/>
    </contour>
  </outline>
</glyph>
<glyph name="exclamdown" format="2">
	<advance width="358"/>
	<unicode hex="00A1"/>
	<outline>
		<contour>
			<point x="96" y="-185" type="line"/>
			<point x="262" y="-185" type="line"/>
			<point x="262" y="0" type="line"/>
			<point x="236" y="265" type="line"/>
			<point x="122" y="265" type="line"/>
			<point x="96" y="0" type="line"/>
		</contour>
		<contour>
			<point x="85" y="445" type="curve" smooth="yes"/>
			<point x="85" y="392"/>
			<point x="124" y="353"/>
			<point x="179" y="353" type="curve" smooth="yes"/>
			<point x="234" y="353"/>
			<point x="273" y="392"/>
			<point x="273" y="445" type="curve"/>
			<point x="273" y="497"/>
			<point x="234" y="537"/>
			<point x="179" y="537" type="curve" smooth="yes"/>
			<point x="124" y="537"/>
			<point x="85" y="497"/>
		</contour>
	</outline>
</glyph>
<glyph name="cent" format="1">
  <advance width="600"/>
  <unicode hex="00A2"/>
  <outline>
    <contour>
      <point x="270.0" y="-100" type="line"/>
      <point x="410.0" y="-100" type="line"/>
      <point x="410.0" y="80" type="line"/>
      <point x="270.0" y="80" type="line"/>
    </contour>
    <contour>
      <point x="270.0" y="480" type="line"/>
      <point x="410.0" y="480" type="line"/>
      <point x="410.0" y="695" type="line"/>
      <point x="270.0" y="695" type="line"/>
    </contour>
    <contour>
      <point x="88.0" y="287" type="curve" smooth="yes"/>
      <point x="88.0" y="126"/>
      <point x="192.0" y="23"/>
      <point x="349.0" y="23" type="curve" smooth="yes"/>
      <point x="420.0" y="23"/>
      <point x="478.0" y="41"/>
      <point x="522.0" y="65" type="curve"/>
      <point x="468.0" y="184" type="line"/>
      <point x="443.0" y="167"/>
      <point x="405.0" y="155"/>
      <point x="371.0" y="155" type="curve" smooth="yes"/>
      <point x="295.0" y="155"/>
      <point x="240.0" y="202"/>
      <point x="240.0" y="292" type="curve" smooth="yes"/>
      <point x="240.0" y="395"/>
      <point x="295.0" y="442"/>
      <point x="365.0" y="442" type="curve" smooth="yes"/>
      <point x="402.0" y="442"/>
      <point x="439.0" y="430"/>
      <point x="464.0" y="411" type="curve"/>
      <point x="518.0" y="530" type="line"/>
      <point x="474.0" y="554"/>
      <point x="422.0" y="572"/>
      <point x="361.0" y="572" type="curve" smooth="yes"/>
      <point x="201.0" y="572"/>
      <point x="88.0" y="461"/>
    </contour>
  </outline>
</glyph>
<glyph name="sterling" format="2">
  <advance width="600"/>
  <unicode hex="00A3"/>
  <outline>
    <contour>
      <point x="50.0" y="0" type="line"/>
      <point x="550.0" y="0" type="line"/>
      <point x="550.0" y="130" type="line"/>
      <point x="50.0" y="130" type="line"/>
    </contour>
    <contour>
      <point x="50.0" y="30" type="line"/>
      <point x="180.0" y="60"/>
      <point x="290.0" y="150"/>
      <point x="290.0" y="260" type="curve" smooth="yes"/>
      <point x="290.0" y="340"/>
      <point x="260.0" y="380"/>
      <point x="260.0" y="454" type="curve" smooth="yes"/>
      <point x="260.0" y="513"/>
      <point x="300.0" y="559"/>
      <point x="360.0" y="559" type="curve" smooth="yes"/>
      <point x="410.0" y="559"/>
      <point x="450.0" y="536"/>
      <point x="477.0" y="504" type="curve"/>
      <point x="573.0" y="616" type="line"/>
      <point x="520.0" y="668"/>
      <point x="430.0" y="702"/>
      <point x="350.0" y="702" type="curve" smooth="yes"/>
      <point x="210.0" y="702"/>
      <point x="105.0" y="620"/>
      <point x="105.0" y="464" type="curve" smooth="yes"/>
      <point x="105.0" y="380"/>
      <point x="140.0" y="340"/>
      <point x="140.0" y="260" type="curve" smooth="yes"/>
      <point x="140.0" y="200"/>
      <point x="100.0" y="150"/>
      <point x="50.0" y="130" type="curve"/>
    </contour>
    <contour>
      <point x="50.0" y="260" type="line"/>
      <point x="450.0" y="260" type="line"/>
      <point x="450.0" y="380" type="line"/>
      <point x="50.0" y="380" type="line"/>
    </contour>
  </outline>
</glyph>
<glyph name="currency" format="2">
  <advance width="600"/>
  <unicode hex="00A4"/>
  <outline>
    <contour>
      <point x="75.0" y="345" type="curve" smooth="yes"/>
      <point x="75.0" y="193"/>
      <point x="169.0" y="105"/>
      <point x="300.0" y="105" type="curve" smooth="yes"/>
      <point x="431.0" y="105"/>
      <point x="525.0" y="193"/>
      <point x="525.0" y="345" type="curve" smooth="yes"/>
      <point x="525.0" y="497"/>
      <point x="431.0" y="585"/>
      <point x="300.0" y="585" type="curve" smooth="yes"/>
      <point x="169.0" y="585"/>
      <point x="75.0" y="497"/>
    </contour>
    <contour>
      <point x="205.0" y="345" type="curve" smooth="yes"/>
      <point x="205.0" y="418"/>
      <point x="241.0" y="460"/>
      <point x="300.0" y="460" type="curve" smooth="yes"/>
      <point x="359.0" y="460"/>
      <point x="395.0" y="418"/>
      <point x="395.0" y="345" type="curve" smooth="yes"/>
      <point x="395.0" y="272"/>
      <point x="359.0" y="230"/>
      <point x="300.0" y="230" type="curve" smooth="yes"/>
      <point x="241.0" y="230"/>
      <point x="205.0" y="272"/>
    </contour>
    <contour>
      <point x="24.0" y="166" type="line"/>
      <point x="121.0" y="69" type="line"/>
      <point x="196.0" y="144" type="line"/>
      <point x="99.0" y="241" type="line"/>
    </contour>
    <contour>
      <point x="404.0" y="144" type="line"/>
      <point x="479.0" y="69" type="line"/>
      <point x="576.0" y="166" type="line"/>
      <point x="501.0" y="241" type="line"/>
    </contour>
    <contour>
      <point x="24.0" y="524" type="line"/>
      <point x="99.0" y="449" type="line"/>
      <point x="196.0" y="546" type="line"/>
      <point x="121.0" y="621" type="line"/>
    </contour>
    <contour>
      <point x="404.0" y="546" type="line"/>
      <point x="501.0" y="449" type="line"/>
      <point x="576.0" y="524" type="line"/>
      <point x="479.0" y="621" type="line"/>
    </contour>
  </outline>
</glyph>
<glyph name="yen" format="2">
  <advance width="600"/>
  <unicode hex="00A5"/>
  <outline>
    <contour>
      <point x="-20.0" y="690" type="line"/>
      <point x="233.0" y="260" type="line"/>
      <point x="315.0" y="260" type="line"/>
      <point x="319.0" y="395" type="line"/>
      <point x="162.0" y="690" type="line"/>
    </contour>
    <contour>
      <point x="80.0" y="120" type="line"/>
      <point x="520.0" y="120" type="line"/>
      <point x="520.0" y="220" type="line"/>
      <point x="80.0" y="220" type="line"/>
    </contour>
    <contour>
      <point x="80.0" y="280" type="line"/>
      <point x="520.0" y="280" type="line"/>
      <point x="520.0" y="380" type="line"/>
      <point x="80.0" y="380" type="line"/>
    </contour>
    <contour>
      <point x="220.0" y="0" type="line"/>
      <point x="380.0" y="0" type="line"/>
      <point x="380.0" y="290" type="line"/>
      <point x="220.0" y="290" type="line"/>
    </contour>
    <contour>
      <point x="285.0" y="395" type="line"/>
      <point x="293.0" y="260" type="line"/>
      <point x="367.0" y="260" type="line"/>
      <point x="620.0" y="690" type="line"/>
      <point x="442.0" y="690" type="line"/>
    </contour>
  </outline>
</glyph>
<glyph name="brokenbar" format="2">
	<advance width="310"/>
	<unicode hex="00A6"/>
	<outline>
		<contour>
			<point x="85" y="-215" type="line"/>
			<point x="225" y="-215" type="line"/>
			<point x="225" y="150" type="line"/>
			<point x="85" y="150" type="line"/>
		</contour>
		<contour>
			<point x="85" y="355" type="line"/>
			<point x="225" y="355" type="line"/>
			<point x="225" y="720" type="line"/>
			<point x="85" y="720" type="line"/>
		</contour>
	</outline>
</glyph>
<glyph name="section" format="2">
	<advance width="620"/>
	<unicode hex="00A7"/>
	<outline>
		<contour>
			<point x="30" y="-122" type="line"/>
			<point x="91" y="-164"/>
			<point x="188" y="-197"/>
			<point x="279" y="-197" type="curve" smooth="yes"/>
			<point x="450" y="-197"/>
			<point x="539" y="-105"/>
			<point x="539" y="-5" type="curve" smooth="yes"/>
			<point x="539" y="95"/>
			<point x="456" y="155"/>
			<point x="310" y="195" type="curve" smooth="yes"/>
			<point x="198" y="226"/>
			<point x="181" y="255"/>
			<point x="181" y="288" type="curve" smooth="yes"/>
			<point x="181" y="321"/>
			<point x="216" y="355"/>
			<point x="283" y="365" type="curve"/>
			<point x="180" y="448" type="line"/>
			<point x="90" y="425"/>
			<point x="36" y="360"/>
			<point x="36" y="275" type="curve" smooth="yes"/>
			<point x="36" y="180"/>
			<point x="101" y="110"/>
			<point x="266" y="65" type="curve" smooth="yes"/>
			<point x="360" y="39"/>
			<point x="378" y="19"/>
			<point x="378" y="-8" type="curve" smooth="yes"/>
			<point x="378" y="-36"/>
			<point x="348" y="-61"/>
			<point x="292" y="-61" type="curve" smooth="yes"/>
			<point x="223" y="-61"/>
			<point x="156" y="-34"/>
			<point x="101" y="5" type="curve"/>
		</contour>
		<contour>
			<point x="81" y="510" type="curve" smooth="yes"/>
			<point x="81" y="410"/>
			<point x="164" y="350"/>
			<point x="310" y="310" type="curve" smooth="yes"/>
			<point x="422" y="279"/>
			<point x="439" y="250"/>
			<point x="439" y="217" type="curve" smooth="yes"/>
			<point x="439" y="184"/>
			<point x="404" y="150"/>
			<point x="337" y="140" type="curve"/>
			<point x="440" y="57" type="line"/>
			<point x="530" y="80"/>
			<point x="584" y="145"/>
			<point x="584" y="230" type="curve" smooth="yes"/>
			<point x="584" y="325"/>
			<point x="519" y="395"/>
			<point x="354" y="440" type="curve" smooth="yes"/>
			<point x="260" y="466"/>
			<point x="242" y="486"/>
			<point x="242" y="513" type="curve" smooth="yes"/>
			<point x="242" y="541"/>
			<point x="272" y="566"/>
			<point x="328" y="566" type="curve" smooth="yes"/>
			<point x="397" y="566"/>
			<point x="464" y="539"/>
			<point x="519" y="500" type="curve"/>
			<point x="590" y="627" type="line"/>
			<point x="529" y="669"/>
			<point x="432" y="702"/>
			<point x="341" y="702" type="curve" smooth="yes"/>
			<point x="170" y="702"/>
			<point x="81" y="610"/>
		</contour>
	</outline>
</glyph>
<glyph name="dieresis" format="1">
  <advance width="600"/>
  <unicode hex="00A8"/>
  <outline>
    <contour>
      <point x="119" y="670" type="curve" smooth="yes"/>
      <point x="119" y="625"/>
      <point x="150" y="595"/>
      <point x="196" y="595" type="curve" smooth="yes"/>
      <point x="242" y="595"/>
      <point x="273" y="625"/>
      <point x="273" y="670" type="curve"/>
      <point x="273" y="715"/>
      <point x="242" y="745"/>
      <point x="196" y="745" type="curve" smooth="yes"/>
      <point x="150" y="745"/>
      <point x="119" y="715"/>
    </contour>
    <contour>
      <point x="327" y="670" type="curve" smooth="yes"/>
      <point x="327" y="625"/>
      <point x="358" y="595"/>
      <point x="404" y="595" type="curve" smooth="yes"/>
      <point x="450" y="595"/>
      <point x="481" y="625"/>
      <point x="481" y="670" type="curve"/>
      <point x="481" y="715"/>
      <point x="450" y="745"/>
      <point x="404" y="745" type="curve" smooth="yes"/>
      <point x="358" y="745"/>
      <point x="327" y="715"/>
    </contour>
    <contour>
      <point x="300" y="525" type="move" name="_top"/>
    </contour>
  </outline>
</glyph>
<glyph name="copyright" format="1">
  <advance width="810"/>
  <unicode hex="00A9"/>
  <outline>
    <contour>
      <point x="405" y="-10" type="curve" smooth="yes"/>
      <point x="605" y="-10"/>
      <point x="760" y="145"/>
      <point x="760" y="345" type="curve" smooth="yes"/>
      <point x="760" y="545"/>
      <point x="605" y="700"/>
      <point x="405" y="700" type="curve" smooth="yes"/>
      <point x="205" y="700"/>
      <point x="50" y="545"/>
      <point x="50" y="345" type="curve" smooth="yes"/>
      <point x="50" y="145"/>
      <point x="205" y="-10"/>
    </contour>
    <contour>
      <point x="405" y="60" type="curve" smooth="yes"/>
      <point x="245" y="60"/>
      <point x="122" y="185"/>
      <point x="122" y="345" type="curve" smooth="yes"/>
      <point x="122" y="505"/>
      <point x="245" y="630"/>
      <point x="405" y="630" type="curve" smooth="yes"/>
      <point x="565" y="630"/>
      <point x="688" y="505"/>
      <point x="688" y="345" type="curve" smooth="yes"/>
      <point x="688" y="185"/>
      <point x="565" y="60"/>
    </contour>
    <contour>
      <point x="220" y="345" type="curve" smooth="yes"/>
      <point x="220" y="210"/>
      <point x="310" y="135"/>
      <point x="410" y="135" type="curve" smooth="yes"/>
      <point x="467" y="135"/>
      <point x="511" y="155"/>
      <point x="547" y="191" type="curve"/>
      <point x="478" y="273" type="line"/>
      <point x="462" y="255"/>
      <point x="440" y="245"/>
      <point x="415" y="245" type="curve" smooth="yes"/>
      <point x="373" y="245"/>
      <point x="340" y="285"/>
      <point x="340" y="345" type="curve" smooth="yes"/>
      <point x="340" y="405"/>
      <point x="373" y="445"/>
      <point x="415" y="445" type="curve" smooth="yes"/>
      <point x="437" y="445"/>
      <point x="458" y="437"/>
      <point x="475" y="419" type="curve"/>
      <point x="542" y="500" type="line"/>
      <point x="506" y="535"/>
      <point x="463" y="555"/>
      <point x="410" y="555" type="curve" smooth="yes"/>
      <point x="310" y="555"/>
      <point x="220" y="480"/>
    </contour>
  </outline>
</glyph>
<glyph name="guillemetleft" format="1">
  <advance width="546"/>
  <unicode hex="00AB"/>
  <outline>
    <contour>
      <point x="30" y="239" type="line"/>
      <point x="127" y="88" type="line"/>
      <point x="289" y="88" type="line"/>
      <point x="150" y="298" type="line"/>
      <point x="30" y="310" type="line"/>
    </contour>
    <contour>
      <point x="30" y="241" type="line"/>
      <point x="150" y="253" type="line"/>
      <point x="289" y="463" type="line"/>
      <point x="127" y="463" type="line"/>
      <point x="30" y="312" type="line"/>
    </contour>
    <contour>
      <point x="277" y="239" type="line"/>
      <point x="374" y="88" type="line"/>
      <point x="536" y="88" type="line"/>
      <point x="397" y="298" type="line"/>
      <point x="277" y="310" type="line"/>
    </contour>
    <contour>
      <point x="277" y="241" type="line"/>
      <point x="397" y="253" type="line"/>
      <point x="536" y="463" type="line"/>
      <point x="374" y="463" type="line"/>
      <point x="277" y="312" type="line"/>
    </contour>
  </outline>
</glyph>
<glyph name="logicalnot" format="2">
	<advance width="600"/>
	<unicode hex="00AC"/>
	<outline>
		<contour>
			<point x="62" y="223" type="line"/>
			<point x="538" y="223" type="line"/>
			<point x="538" y="357" type="line"/>
			<point x="62" y="357" type="line"/>
		</contour>
		<contour>
			<point x="398" y="55" type="line"/>
			<point x="538" y="55" type="line"/>
			<point x="538" y="357" type="line"/>
			<point x="398" y="357" type="line"/>
		</contour>
	</outline>
</glyph>
<glyph name="macron" format="2">
	<advance width="600"/>
	<unicode hex="00AF"/>
	<anchor x="300" y="525" name="_top"/>
	<outline>
		<contour>
			<point x="130" y="620" type="line"/>
			<point x="470" y="620" type="line"/>
			<point x="470" y="732" type="line"/>
			<point x="130" y="732" type="line"/>
		</contour>
	</outline>
</glyph>
<glyph name="degree" format="2">
	<advance width="404"/>
	<unicode hex="00B0"/>
	<outline>
		<contour>
			<point x="30" y="532" type="curve" smooth="yes"/>
			<point x="30" y="436"/>
			<point x="105" y="362"/>
			<point x="202" y="362" type="curve" smooth="yes"/>
			<point x="299" y="362"/>
			<point x="374" y="436"/>
			<point x="374" y="532" type="curve" smooth="yes"/>
			<point x="374" y="627"/>
			<point x="299" y="702"/>
			<point x="202" y="702" type="curve" smooth="yes"/>
			<point x="105" y="702"/>
			<point x="30" y="627"/>
		</contour>
		<contour>
			<point x="130" y="532" type="curve" smooth="yes"/>
			<point x="130" y="575"/>
			<point x="160" y="608"/>
			<point x="202" y="608" type="curve" smooth="yes"/>
			<point x="244" y="608"/>
			<point x="274" y="575"/>
			<point x="274" y="532" type="curve" smooth="yes"/>
			<point x="274" y="489"/>
			<point x="244" y="456"/>
			<point x="202" y="456" type="curve" smooth="yes"/>
			<point x="160" y="456"/>
			<point x="130" y="489"/>
		</contour>
	</outline>
</glyph>
<glyph name="plusminus" format="2">
	<advance width="600"/>
	<unicode hex="00B1"/>
	<outline>
		<contour>
			<point x="62" y="55" type="line"/>
			<point x="538" y="55" type="line"/>
			<point x="538" y="189" type="line"/>
			<point x="62" y="189" type="line"/>
		</contour>
		<contour>
			<point x="62" y="272" type="line"/>
			<point x="538" y="272" type="line"/>
			<point x="538" y="406" type="line"/>
			<point x="62" y="406" type="line"/>
		</contour>
		<contour>
			<point x="230" y="55" type="line"/>
			<point x="370" y="55" type="line"/>
			<point x="370" y="525" type="line"/>
			<point x="230" y="525" type="line"/>
		</contour>
	</outline>
</glyph>
<glyph name="twosuperior" format="2">
	<advance width="440"/>
	<unicode hex="00B2"/>
	<outline>
		<contour>
			<point x="65" y="290" type="line"/>
			<point x="365" y="290" type="line"/>
			<point x="365" y="380" type="line"/>
			<point x="117" y="380" type="line"/>
			<point x="65" y="360" type="line"/>
		</contour>
		<contour>
			<point x="65" y="360" type="line"/>
			<point x="120" y="290" type="line"/>
			<point x="255" y="420" type="line" smooth="yes"/>
			<point x="320" y="482"/>
			<point x="355" y="524"/>
			<point x="355" y="580" type="curve" smooth="yes"/>
			<point x="355" y="650"/>
			<point x="295" y="702"/>
			<point x="211" y="702" type="curve" smooth="yes"/>
			<point x="151" y="702"/>
			<point x="100" y="675"/>
			<point x="55" y="635" type="curve"/>
			<point x="111" y="560" type="line"/>
			<point x="135" y="585"/>
			<point x="163" y="607"/>
			<point x="195" y="607" type="curve" smooth="yes"/>
			<point x="225" y="607"/>
			<point x="245" y="590"/>
			<point x="245" y="565" type="curve" smooth="yes"/>
			<point x="245" y="540"/>
			<point x="225" y="520"/>
			<point x="185" y="480" type="curve" smooth="yes"/>
		</contour>
	</outline>
</glyph>
<glyph name="threesuperior" format="1">
  <advance width="440"/>
  <unicode hex="00B3"/>
  <outline>
    <contour>
      <point x="55" y="332" type="line"/>
      <point x="94" y="296"/>
      <point x="143" y="278"/>
      <point x="205" y="278" type="curve" smooth="yes"/>
      <point x="290" y="278"/>
      <point x="365" y="325"/>
      <point x="365" y="415" type="curve" smooth="yes"/>
      <point x="365" y="490"/>
      <point x="300" y="535"/>
      <point x="211" y="535" type="curve"/>
      <point x="170" y="535" type="line"/>
      <point x="130" y="515" type="line"/>
      <point x="130" y="460" type="line"/>
      <point x="191" y="460" type="line" smooth="yes"/>
      <point x="235" y="460"/>
      <point x="255" y="445"/>
      <point x="255" y="415" type="curve" smooth="yes"/>
      <point x="255" y="385"/>
      <point x="230" y="368"/>
      <point x="200" y="368" type="curve" smooth="yes"/>
      <point x="165" y="368"/>
      <point x="135" y="385"/>
      <point x="110" y="410" type="curve"/>
    </contour>
    <contour>
      <point x="71" y="600" type="line"/>
      <point x="317" y="600" type="line"/>
      <point x="346" y="620" type="line"/>
      <point x="346" y="690" type="line"/>
      <point x="71" y="690" type="line"/>
    </contour>
    <contour>
      <point x="130" y="515" type="line"/>
      <point x="240" y="515" type="line"/>
      <point x="346" y="620" type="line"/>
      <point x="300" y="690" type="line"/>
    </contour>
  </outline>
</glyph>
<glyph name="acute" format="2">
  <advance width="600"/>
  <unicode hex="00B4"/>
  <anchor x="300" y="525" name="_top"/>
  <outline>
    <contour>
      <point x="234" y="600" type="line"/>
      <point x="355" y="600" type="line"/>
      <point x="494" y="750" type="line"/>
      <point x="323" y="750" type="line"/>
    </contour>
  </outline>
</glyph>
<glyph name="cedilla" format="2">
  <advance width="600"/>
  <unicode hex="00B8"/>
  <anchor x="300.0" y="0.0" name="_bottom"/>
  <outline>
    <contour>
      <point x="220" y="-228" type="line"/>
      <point x="256" y="-228" type="line" smooth="yes"/>
      <point x="366" y="-228"/>
      <point x="408" y="-184"/>
      <point x="408" y="-127" type="curve" smooth="yes"/>
      <point x="408" y="-90"/>
      <point x="385.2679359741792" y="-60.0461958576171"/>
      <point x="327" y="-50" type="curve"/>
      <point x="338" y="9" type="line"/>
      <point x="264" y="15" type="line"/>
      <point x="242" y="-93" type="line"/>
      <point x="262" y="-95" type="line" smooth="yes"/>
      <point x="295.10742341452317" y="-98.31074234145231"/>
      <point x="308" y="-111"/>
      <point x="308" y="-129" type="curve" smooth="yes"/>
      <point x="308" y="-151"/>
      <point x="295" y="-168"/>
      <point x="234" y="-168" type="curve"/>
    </contour>
  </outline>
</glyph>
<glyph name="onesuperior" format="2">
	<advance width="440"/>
	<unicode hex="00B9"/>
	<outline>
		<contour>
			<point x="80" y="290" type="line"/>
			<point x="380" y="290" type="line"/>
			<point x="380" y="375" type="line"/>
			<point x="80" y="375" type="line"/>
		</contour>
		<contour>
			<point x="65" y="630" type="line"/>
			<point x="100" y="550" type="line"/>
			<point x="245" y="615" type="line"/>
			<point x="200" y="690" type="line"/>
		</contour>
		<contour>
			<point x="174" y="290" type="line"/>
			<point x="284" y="290" type="line"/>
			<point x="284" y="690" type="line"/>
			<point x="200" y="690" type="line"/>
			<point x="174" y="637" type="line"/>
		</contour>
	</outline>
</glyph>
<glyph name="ordmasculine" format="2">
	<advance width="480"/>
	<unicode hex="00BA"/>
	<outline>
		<contour>
			<point x="45" y="490" type="curve" smooth="yes"/>
			<point x="45" y="350"/>
			<point x="132" y="278"/>
			<point x="240" y="278" type="curve" smooth="yes"/>
			<point x="348" y="278"/>
			<point x="435" y="350"/>
			<point x="435" y="490" type="curve" smooth="yes"/>
			<point x="435" y="630"/>
			<point x="348" y="702"/>
			<point x="240" y="702" type="curve" smooth="yes"/>
			<point x="132" y="702"/>
			<point x="45" y="630"/>
		</contour>
		<contour>
			<point x="160" y="490" type="curve" smooth="yes"/>
			<point x="160" y="566"/>
			<point x="195" y="602"/>
			<point x="240" y="602" type="curve" smooth="yes"/>
			<point x="285" y="602"/>
			<point x="320" y="566"/>
			<point x="320" y="490" type="curve" smooth="yes"/>
			<point x="320" y="414"/>
			<point x="285" y="378"/>
			<point x="240" y="378" type="curve" smooth="yes"/>
			<point x="195" y="378"/>
			<point x="160" y="414"/>
		</contour>
	</outline>
</glyph>
<glyph name="guillemetright" format="2">
	<advance width="546"/>
	<unicode hex="00BB"/>
	<outline>
		<contour>
			<point x="10" y="88" type="line"/>
			<point x="172" y="88" type="line"/>
			<point x="269" y="239" type="line"/>
			<point x="269" y="310" type="line"/>
			<point x="149" y="298" type="line"/>
		</contour>
		<contour>
			<point x="10" y="463" type="line"/>
			<point x="149" y="253" type="line"/>
			<point x="269" y="241" type="line"/>
			<point x="269" y="312" type="line"/>
			<point x="172" y="463" type="line"/>
		</contour>
		<contour>
			<point x="257" y="88" type="line"/>
			<point x="419" y="88" type="line"/>
			<point x="516" y="239" type="line"/>
			<point x="516" y="310" type="line"/>
			<point x="396" y="298" type="line"/>
		</contour>
		<contour>
			<point x="257" y="463" type="line"/>
			<point x="396" y="253" type="line"/>
			<point x="516" y="241" type="line"/>
			<point x="516" y="312" type="line"/>
			<point x="419" y="463" type="line"/>
		</contour>
	</outline>
</glyph>
<glyph name="questiondown" format="2">
	<advance width="518"/>
	<unicode hex="00BF"/>
	<outline>
		<contour>
			<point x="55" y="-8" type="curve"/>
			<point x="55" y="-120"/>
			<point x="144" y="-197"/>
			<point x="273" y="-197" type="curve"/>
			<point x="364" y="-197"/>
			<point x="451" y="-151"/>
			<point x="508" y="-90" type="curve"/>
			<point x="420" y="21" type="line"/>
			<point x="378" y="-29"/>
			<point x="340" y="-50"/>
			<point x="293" y="-50" type="curve"/>
			<point x="245" y="-50"/>
			<point x="219" y="-22"/>
			<point x="219" y="8" type="curve"/>
			<point x="219" y="31"/>
			<point x="232" y="61"/>
			<point x="292" y="103" type="curve" smooth="yes"/>
			<point x="325" y="126"/>
			<point x="342" y="158"/>
			<point x="338" y="205" type="curve" smooth="yes"/>
			<point x="331" y="280" type="line"/>
			<point x="212" y="280" type="line"/>
			<point x="210" y="233" type="line" smooth="yes"/>
			<point x="209" y="214"/>
			<point x="201" y="197"/>
			<point x="184" y="186" type="curve" smooth="yes"/>
			<point x="81" y="115"/>
			<point x="55" y="62"/>
		</contour>
		<contour>
			<point x="177" y="445" type="curve"/>
			<point x="177" y="392"/>
			<point x="216" y="353"/>
			<point x="271" y="353" type="curve" smooth="yes"/>
			<point x="326" y="353"/>
			<point x="365" y="392"/>
			<point x="365" y="445" type="curve" smooth="yes"/>
			<point x="365" y="497"/>
			<point x="326" y="537"/>
			<point x="271" y="537" type="curve" smooth="yes"/>
			<point x="216" y="537"/>
			<point x="177" y="497"/>
		</contour>
	</outline>
</glyph>
<glyph name="AE" format="2">
	<advance width="975"/>
	<unicode hex="00C6"/>
	<anchor x="585" y="690" name="top"/>
	<outline>
		<contour>
			<point x="0" y="0" type="line"/>
			<point x="170" y="0" type="line"/>
			<point x="390" y="590" type="line"/>
			<point x="360" y="690" type="line"/>
			<point x="275" y="690" type="line"/>
		</contour>
		<contour>
			<point x="169" y="136" type="line"/>
			<point x="495" y="136" type="line"/>
			<point x="495" y="263" type="line"/>
			<point x="169" y="263" type="line"/>
		</contour>
		<contour>
			<point x="425" y="0" type="line"/>
			<point x="585" y="0" type="line"/>
			<point x="585" y="690" type="line"/>
			<point x="425" y="690" type="line"/>
		</contour>
		<contour>
			<point x="499" y="0" type="line"/>
			<point x="915" y="0" type="line"/>
			<point x="915" y="140" type="line"/>
			<point x="499" y="140" type="line"/>
		</contour>
		<contour>
			<point x="499" y="282" type="line"/>
			<point x="863" y="282" type="line"/>
			<point x="863" y="414" type="line"/>
			<point x="499" y="414" type="line"/>
		</contour>
		<contour>
			<point x="330" y="550" type="line"/>
			<point x="910" y="550" type="line"/>
			<point x="910" y="690" type="line"/>
			<point x="330" y="690" type="line"/>
		</contour>
	</outline>
</glyph>
<glyph name="multiply" format="2">
	<advance width="600"/>
	<unicode hex="00D7"/>
	<outline>
		<contour>
			<point x="63" y="428" type="line"/>
			<point x="438" y="53" type="line"/>
			<point x="537" y="152" type="line"/>
			<point x="162" y="527" type="line"/>
		</contour>
		<contour>
			<point x="63" y="148" type="line"/>
			<point x="158" y="53" type="line"/>
			<point x="537" y="432" type="line"/>
			<point x="442" y="527" type="line"/>
		</contour>
	</outline>
</glyph>
<glyph name="Oslash" format="2">
  <advance width="744"/>
  <unicode hex="00D8"/>
  <anchor x="372.0" y="690.0" name="top"/>
  <outline>
    <contour>
      <point x="45" y="345" type="curve" smooth="yes"/>
      <point x="45" y="122"/>
      <point x="192" y="-12"/>
      <point x="372" y="-12" type="curve" smooth="yes"/>
      <point x="552" y="-12"/>
      <point x="699" y="122"/>
      <point x="699" y="345" type="curve" smooth="yes"/>
      <point x="699" y="568"/>
      <point x="552" y="702"/>
      <point x="372" y="702" type="curve" smooth="yes"/>
      <point x="192" y="702"/>
      <point x="45" y="568"/>
    </contour>
    <contour>
      <point x="205" y="345" type="curve" smooth="yes"/>
      <point x="205" y="493"/>
      <point x="276" y="564"/>
      <point x="372" y="564" type="curve" smooth="yes"/>
      <point x="468" y="564"/>
      <point x="539" y="493"/>
      <point x="539" y="345" type="curve" smooth="yes"/>
      <point x="539" y="197"/>
      <point x="468" y="126"/>
      <point x="372" y="126" type="curve" smooth="yes"/>
      <point x="276" y="126"/>
      <point x="205" y="197"/>
    </contour>
    <contour>
      <point x="25" y="70" type="line"/>
      <point x="110" y="-12" type="line"/>
      <point x="719" y="620" type="line"/>
      <point x="634" y="702" type="line"/>
    </contour>
  </outline>
</glyph>
<glyph name="Thorn" format="2">
  <advance width="654"/>
  <unicode hex="00DE"/>
  <outline>
    <contour>
      <point x="85" y="0" type="line"/>
      <point x="245" y="0" type="line"/>
      <point x="245" y="690" type="line"/>
      <point x="85" y="690" type="line"/>
    </contour>
    <contour>
      <point x="159" y="100" type="line"/>
      <point x="347" y="100" type="line" smooth="yes"/>
      <point x="497.36823104693144" y="100.0"/>
      <point x="614.0" y="191.0"/>
      <point x="614" y="345" type="curve" smooth="yes"/>
      <point x="614.0" y="498.86"/>
      <point x="497.36823104693144" y="590.0"/>
      <point x="347" y="590" type="curve" smooth="yes"/>
      <point x="159" y="590" type="line"/>
      <point x="159" y="450" type="line"/>
      <point x="332" y="450" type="line" smooth="yes"/>
      <point x="403.031007751938" y="450.0"/>
      <point x="451.0" y="415.6363636363636"/>
      <point x="451" y="345" type="curve" smooth="yes"/>
      <point x="451.0" y="274.0"/>
      <point x="403.031007751938" y="240.0"/>
      <point x="332" y="240" type="curve" smooth="yes"/>
      <point x="159" y="240" type="line"/>
    </contour>
  </outline>
</glyph>
<glyph name="Thorn" format="1">
  <advance width="654"/>
  <unicode hex="00DE"/>
  <outline>
    <contour>
      <point x="85" y="0" type="line"/>
      <point x="245" y="0" type="line"/>
      <point x="245" y="690" type="line"/>
      <point x="85" y="690" type="line"/>
    </contour>
    <contour>
      <point x="159" y="100" type="line"/>
      <point x="347" y="100" type="line" smooth="yes"/>
      <point x="497.36823104693144" y="100.0"/>
      <point x="614.0" y="191.0"/>
      <point x="614" y="345" type="curve" smooth="yes"/>
      <point x="614.0" y="498.86"/>
      <point x="497.36823104693144" y="590.0"/>
      <point x="347" y="590" type="curve" smooth="yes"/>
      <point x="159" y="590" type="line"/>
      <point x="159" y="450" type="line"/>
      <point x="332" y="450" type="line" smooth="yes"/>
      <point x="403.031007751938" y="450.0"/>
      <point x="451.0" y="415.6363636363636"/>
      <point x="451" y="345" type="curve" smooth="yes"/>
      <point x="451.0" y="274.0"/>
      <point x="403.031007751938" y="240.0"/>
      <point x="332" y="240" type="curve" smooth="yes"/>
      <point x="159" y="240" type="line"/>
    </contour>
  </outline>
</glyph>
<glyph name="germandbls" format="2">
	<advance width="615"/>
	<unicode hex="00DF"/>
	<outline>
		<contour>
			<point x="75" y="0" type="line"/>
			<point x="225" y="0" type="line"/>
			<point x="225" y="500" type="line" smooth="yes"/>
			<point x="225" y="570"/>
			<point x="255" y="602"/>
			<point x="295" y="602" type="curve" smooth="yes"/>
			<point x="335" y="602"/>
			<point x="360" y="580"/>
			<point x="360" y="540" type="curve" smooth="yes"/>
			<point x="360" y="490"/>
			<point x="330" y="450"/>
			<point x="270" y="400" type="curve"/>
			<point x="270" y="290" type="line"/>
			<point x="365" y="240" type="line" smooth="yes"/>
			<point x="410" y="216"/>
			<point x="430" y="190"/>
			<point x="430" y="160" type="curve" smooth="yes"/>
			<point x="430" y="130"/>
			<point x="410" y="108"/>
			<point x="375" y="108" type="curve" smooth="yes"/>
			<point x="345" y="108"/>
			<point x="320" y="120"/>
			<point x="295" y="136" type="curve"/>
			<point x="250" y="30" type="line"/>
			<point x="279" y="10"/>
			<point x="330" y="-12"/>
			<point x="390" y="-12" type="curve" smooth="yes"/>
			<point x="500" y="-12"/>
			<point x="580" y="60"/>
			<point x="580" y="160" type="curve" smooth="yes"/>
			<point x="580" y="230"/>
			<point x="550" y="282"/>
			<point x="455" y="335" type="curve" smooth="yes"/>
			<point x="410" y="360" type="line"/>
			<point x="455" y="400"/>
			<point x="505" y="460"/>
			<point x="505" y="540" type="curve" smooth="yes"/>
			<point x="505" y="660"/>
			<point x="420" y="732"/>
			<point x="295" y="732" type="curve" smooth="yes"/>
			<point x="160" y="732"/>
			<point x="75" y="655"/>
			<point x="75" y="502" type="curve" smooth="yes"/>
		</contour>
	</outline>
</glyph>
<glyph name="ae" format="2">
	<advance width="856"/>
	<unicode hex="00E6"/>
	<anchor x="430" y="515" name="top"/>
	<outline>
		<contour>
			<point x="35" y="138" type="curve" smooth="yes"/>
			<point x="35" y="48"/>
			<point x="106" y="-12"/>
			<point x="200" y="-12" type="curve" smooth="yes"/>
			<point x="294" y="-12"/>
			<point x="366" y="38"/>
			<point x="420" y="100" type="curve"/>
			<point x="352" y="163" type="line"/>
			<point x="320" y="125"/>
			<point x="276" y="100"/>
			<point x="230" y="100" type="curve" smooth="yes"/>
			<point x="195" y="100"/>
			<point x="170" y="120"/>
			<point x="170" y="155" type="curve" smooth="yes"/>
			<point x="170" y="190"/>
			<point x="201" y="222"/>
			<point x="290" y="226" type="curve" smooth="yes"/>
			<point x="370" y="230" type="line"/>
			<point x="370" y="315" type="line"/>
			<point x="280" y="312" type="line" smooth="yes"/>
			<point x="114" y="306"/>
			<point x="35" y="235"/>
		</contour>
		<contour>
			<point x="52" y="493" type="curve"/>
			<point x="93" y="372" type="line"/>
			<point x="132" y="391"/>
			<point x="181" y="411"/>
			<point x="236" y="411" type="curve" smooth="yes"/>
			<point x="305" y="411"/>
			<point x="338" y="377"/>
			<point x="338" y="318" type="curve"/>
			<point x="338" y="280" type="line"/>
			<point x="477" y="280" type="line"/>
			<point x="477" y="326" type="line" smooth="yes"/>
			<point x="477" y="464"/>
			<point x="394" y="537"/>
			<point x="259" y="537" type="curve" smooth="yes"/>
			<point x="178" y="537"/>
			<point x="103" y="516"/>
		</contour>
		<contour>
			<point x="338" y="252" type="curve" smooth="yes"/>
			<point x="338" y="94"/>
			<point x="428" y="-12"/>
			<point x="609" y="-12" type="curve" smooth="yes"/>
			<point x="680" y="-12"/>
			<point x="739" y="7"/>
			<point x="787" y="28" type="curve"/>
			<point x="746" y="140" type="line"/>
			<point x="712" y="122"/>
			<point x="666" y="110"/>
			<point x="626" y="110" type="curve" smooth="yes"/>
			<point x="532" y="110"/>
			<point x="475" y="158"/>
			<point x="475" y="262" type="curve" smooth="yes"/>
			<point x="475" y="374"/>
			<point x="522" y="420"/>
			<point x="584" y="420" type="curve" smooth="yes"/>
			<point x="643" y="420"/>
			<point x="677" y="375"/>
			<point x="677" y="272" type="curve"/>
			<point x="708" y="313" type="line"/>
			<point x="437" y="313" type="line"/>
			<point x="437" y="218" type="line"/>
			<point x="816" y="218" type="line"/>
			<point x="818" y="230"/>
			<point x="821" y="251"/>
			<point x="821" y="274" type="curve" smooth="yes"/>
			<point x="821" y="437"/>
			<point x="730" y="537"/>
			<point x="587" y="537" type="curve" smooth="yes"/>
			<point x="434" y="537"/>
			<point x="338" y="424"/>
		</contour>
	</outline>
</glyph>
<glyph name="eth" format="2">
	<advance width="580"/>
	<unicode hex="00F0"/>
	<outline>
		<contour>
			<point x="45" y="235" type="curve" smooth="yes"/>
			<point x="45" y="75"/>
			<point x="155" y="-12"/>
			<point x="286" y="-12" type="curve" smooth="yes"/>
			<point x="420" y="-12"/>
			<point x="530" y="85"/>
			<point x="530" y="280" type="curve" smooth="yes"/>
			<point x="530" y="460"/>
			<point x="400" y="640"/>
			<point x="280" y="720" type="curve"/>
			<point x="100" y="720" type="line"/>
			<point x="260" y="600"/>
			<point x="380" y="440"/>
			<point x="380" y="280" type="curve" smooth="yes"/>
			<point x="380" y="165"/>
			<point x="341" y="110"/>
			<point x="286" y="110" type="curve" smooth="yes"/>
			<point x="233" y="110"/>
			<point x="190" y="155"/>
			<point x="190" y="235" type="curve" smooth="yes"/>
			<point x="190" y="315"/>
			<point x="233" y="360"/>
			<point x="286" y="360" type="curve" smooth="yes"/>
			<point x="334" y="360"/>
			<point x="374" y="332"/>
			<point x="400" y="280" type="curve"/>
			<point x="420" y="380" type="line"/>
			<point x="390" y="430"/>
			<point x="340" y="482"/>
			<point x="260" y="482" type="curve" smooth="yes"/>
			<point x="155" y="482"/>
			<point x="45" y="395"/>
		</contour>
		<contour>
			<point x="166" y="523" type="line"/>
			<point x="466" y="650" type="line"/>
			<point x="430" y="732" type="line"/>
			<point x="130" y="605" type="line"/>
		</contour>
	</outline>
</glyph>
<glyph name="divide" format="2">
	<advance width="600"/>
	<unicode hex="00F7"/>
	<outline>
		<contour>
			<point x="62" y="223" type="line"/>
			<point x="538" y="223" type="line"/>
			<point x="538" y="357" type="line"/>
			<point x="62" y="357" type="line"/>
		</contour>
		<contour>
			<point x="208" y="92" type="curve" smooth="yes"/>
			<point x="208" y="42"/>
			<point x="246" y="1"/>
			<point x="300" y="1" type="curve" smooth="yes"/>
			<point x="354" y="1"/>
			<point x="392" y="42"/>
			<point x="392" y="92" type="curve" smooth="yes"/>
			<point x="392" y="142"/>
			<point x="354" y="183"/>
			<point x="300" y="183" type="curve" smooth="yes"/>
			<point x="246" y="183"/>
			<point x="208" y="142"/>
		</contour>
		<contour>
			<point x="208" y="488" type="curve" smooth="yes"/>
			<point x="208" y="438"/>
			<point x="246" y="397"/>
			<point x="300" y="397" type="curve" smooth="yes"/>
			<point x="354" y="397"/>
			<point x="392" y="438"/>
			<point x="392" y="488" type="curve" smooth="yes"/>
			<point x="392" y="538"/>
			<point x="354" y="579"/>
			<point x="300" y="579" type="curve" smooth="yes"/>
			<point x="246" y="579"/>
			<point x="208" y="538"/>
		</contour>
	</outline>
</glyph>
<glyph name="oslash" format="2">
	<advance width="592"/>
	<unicode hex="00F8"/>
	<anchor x="296" y="525" name="top"/>
	<outline>
		<contour>
			<point x="38" y="262" type="curve" smooth="yes"/>
			<point x="38" y="93"/>
			<point x="145" y="-12"/>
			<point x="296" y="-12" type="curve" smooth="yes"/>
			<point x="447" y="-12"/>
			<point x="554" y="93"/>
			<point x="554" y="262" type="curve" smooth="yes"/>
			<point x="554" y="431"/>
			<point x="447" y="537"/>
			<point x="296" y="537" type="curve" smooth="yes"/>
			<point x="145" y="537"/>
			<point x="38" y="431"/>
		</contour>
		<contour>
			<point x="186" y="262" type="curve" smooth="yes"/>
			<point x="186" y="372"/>
			<point x="229" y="420"/>
			<point x="296" y="420" type="curve" smooth="yes"/>
			<point x="363" y="420"/>
			<point x="406" y="372"/>
			<point x="406" y="262" type="curve" smooth="yes"/>
			<point x="406" y="152"/>
			<point x="363" y="104"/>
			<point x="296" y="104" type="curve" smooth="yes"/>
			<point x="229" y="104"/>
			<point x="186" y="152"/>
		</contour>
		<contour>
			<point x="35" y="60" type="line"/>
			<point x="110" y="-12" type="line"/>
			<point x="557" y="465" type="line"/>
			<point x="482" y="537" type="line"/>
		</contour>
	</outline>
</glyph>
<glyph name="thorn" format="2">
  <advance width="610"/>
  <unicode hex="00FE"/>
  <outline>
    <contour>
      <point x="75" y="-200" type="line"/>
      <point x="225" y="-180" type="line"/>
      <point x="225" y="735" type="line"/>
      <point x="75" y="715" type="line"/>
    </contour>
    <contour>
      <point x="173" y="222" type="line"/>
      <point x="173" y="80"/>
      <point x="247" y="-12"/>
      <point x="351" y="-12" type="curve" smooth="yes"/>
      <point x="477" y="-12"/>
      <point x="572" y="84"/>
      <point x="572" y="261" type="curve" smooth="yes"/>
      <point x="572" y="430"/>
      <point x="481" y="537"/>
      <point x="375" y="537" type="curve" smooth="yes"/>
      <point x="305" y="537"/>
      <point x="250" y="498"/>
      <point x="210" y="442" type="curve"/>
      <point x="210" y="343" type="line"/>
      <point x="241" y="380"/>
      <point x="285" y="401"/>
      <point x="325" y="401" type="curve" smooth="yes"/>
      <point x="383" y="401"/>
      <point x="422" y="353"/>
      <point x="422" y="253" type="curve" smooth="yes"/>
      <point x="422" y="159"/>
      <point x="375" y="106"/>
      <point x="311" y="106" type="curve" smooth="yes"/>
      <point x="258" y="106"/>
      <point x="225" y="144"/>
      <point x="225" y="227" type="curve"/>
    </contour>
  </outline>
</glyph>
<glyph name="Dcroat" format="2">
  <advance width="729"/>
  <unicode hex="0110"/>
  <outline>
    <contour>
      <point x="35" y="273" type="line"/>
      <point x="381" y="273" type="line"/>
      <point x="381" y="407" type="line"/>
      <point x="35" y="407" type="line"/>
    </contour>
    <contour>
      <point x="90" y="0" type="line"/>
      <point x="250" y="0" type="line"/>
      <point x="250" y="690" type="line"/>
      <point x="90" y="690" type="line"/>
    </contour>
    <contour>
      <point x="164" y="0" type="line"/>
      <point x="352" y="0" type="line" smooth="yes"/>
      <point x="539" y="0"/>
      <point x="684" y="128"/>
      <point x="684" y="345" type="curve" smooth="yes"/>
      <point x="684" y="562"/>
      <point x="539" y="690"/>
      <point x="352" y="690" type="curve" smooth="yes"/>
      <point x="164" y="690" type="line"/>
      <point x="164" y="550" type="line"/>
      <point x="337" y="550" type="line" smooth="yes"/>
      <point x="447" y="550"/>
      <point x="521" y="482"/>
      <point x="521" y="345" type="curve" smooth="yes"/>
      <point x="521" y="208"/>
      <point x="447" y="140"/>
      <point x="337" y="140" type="curve" smooth="yes"/>
      <point x="164" y="140" type="line"/>
    </contour>
  </outline>
</glyph>
<glyph name="dcroat" format="2">
	<advance width="615"/>
	<unicode hex="0111"/>
	<outline>
		<contour>
			<point x="38" y="254" type="curve" smooth="yes"/>
			<point x="38" y="91.12319"/>
			<point x="129" y="-12"/>
			<point x="235" y="-12" type="curve" smooth="yes"/>
			<point x="305" y="-12"/>
			<point x="360" y="27"/>
			<point x="400" y="83" type="curve"/>
			<point x="400" y="182" type="line"/>
			<point x="369" y="145"/>
			<point x="325" y="124"/>
			<point x="285" y="124" type="curve" smooth="yes"/>
			<point x="227" y="124"/>
			<point x="188" y="168.75676"/>
			<point x="188" y="262" type="curve" smooth="yes"/>
			<point x="188" y="350"/>
			<point x="235" y="399"/>
			<point x="299" y="399" type="curve" smooth="yes"/>
			<point x="352" y="399"/>
			<point x="385" y="361"/>
			<point x="385" y="278" type="curve"/>
			<point x="437" y="283" type="line"/>
			<point x="437" y="425"/>
			<point x="363" y="517"/>
			<point x="259" y="517" type="curve" smooth="yes"/>
			<point x="133" y="517"/>
			<point x="38" y="425"/>
		</contour>
		<contour>
			<point x="404" y="0" type="line"/>
			<point x="550" y="0" type="line"/>
			<point x="542" y="49" type="line" smooth="yes"/>
			<point x="537" y="78"/>
			<point x="535" y="97"/>
			<point x="535" y="125" type="curve" smooth="yes"/>
			<point x="535" y="735" type="line"/>
			<point x="385" y="715" type="line"/>
			<point x="385" y="132" type="line"/>
			<point x="386" y="95" type="line"/>
		</contour>
		<contour>
			<point x="265" y="565" type="line"/>
			<point x="595" y="565" type="line"/>
			<point x="595" y="670" type="line"/>
			<point x="265" y="670" type="line"/>
		</contour>
	</outline>
</glyph>
<glyph name="Hbar" format="2">
	<advance width="764"/>
	<unicode hex="0126"/>
	<outline>
		<contour>
			<point x="90" y="0" type="line"/>
			<point x="250" y="0" type="line"/>
			<point x="250" y="690" type="line"/>
			<point x="90" y="690" type="line"/>
		</contour>
		<contour>
			<point x="164" y="268" type="line"/>
			<point x="600" y="268" type="line"/>
			<point x="600" y="408" type="line"/>
			<point x="164" y="408" type="line"/>
		</contour>
		<contour>
			<point x="514" y="0" type="line"/>
			<point x="674" y="0" type="line"/>
			<point x="674" y="690" type="line"/>
			<point x="514" y="690" type="line"/>
		</contour>
		<contour>
			<point x="30" y="506" type="line"/>
			<point x="734" y="506" type="line"/>
			<point x="734" y="630" type="line"/>
			<point x="30" y="630" type="line"/>
		</contour>
	</outline>
</glyph>
<glyph name="hbar" format="2">
	<advance width="639"/>
	<unicode hex="0127"/>
	<outline>
		<contour>
			<point x="80" y="0" type="line"/>
			<point x="230" y="0" type="line"/>
			<point x="230" y="735" type="line"/>
			<point x="80" y="715" type="line"/>
		</contour>
		<contour>
			<point x="215" y="326" type="line"/>
			<point x="246" y="361"/>
			<point x="290" y="379"/>
			<point x="330" y="379" type="curve" smooth="yes"/>
			<point x="382" y="379"/>
			<point x="419" y="349"/>
			<point x="419" y="283" type="curve" smooth="yes"/>
			<point x="419" y="0" type="line"/>
			<point x="569" y="0" type="line"/>
			<point x="569" y="306" type="line" smooth="yes"/>
			<point x="569" y="447"/>
			<point x="478" y="517"/>
			<point x="385" y="517" type="curve" smooth="yes"/>
			<point x="313" y="517"/>
			<point x="256" y="478"/>
			<point x="215" y="422" type="curve"/>
		</contour>
		<contour>
			<point x="20" y="565" type="line"/>
			<point x="350" y="565" type="line"/>
			<point x="350" y="670" type="line"/>
			<point x="20" y="670" type="line"/>
		</contour>
	</outline>
</glyph>
<glyph name="dotlessi" format="2">
  <advance width="300"/>
  <unicode hex="0131"/>
  <anchor x="150" y="525" name="top"/>
  <outline>
    <contour>
      <point x="75" y="0" type="line"/>
      <point x="225" y="0" type="line"/>
      <point x="225" y="525" type="line"/>
      <point x="75" y="525" type="line"/>
    </contour>
  </outline>
</glyph>
<glyph name="IJ" format="2">
	<advance width="819"/>
	<unicode hex="0132"/>
	<outline>
		<contour>
			<point x="85" y="0" type="line"/>
			<point x="245" y="0" type="line"/>
			<point x="245" y="690" type="line"/>
			<point x="85" y="690" type="line"/>
		</contour>
		<contour>
			<point x="328" y="26" type="line"/>
			<point x="370" y="0"/>
			<point x="424" y="-12"/>
			<point x="483" y="-12" type="curve" smooth="yes"/>
			<point x="622" y="-12"/>
			<point x="744" y="80"/>
			<point x="744" y="245" type="curve" smooth="yes"/>
			<point x="744" y="690" type="line"/>
			<point x="584" y="690" type="line"/>
			<point x="584" y="265" type="line" smooth="yes"/>
			<point x="584" y="177"/>
			<point x="541" y="132"/>
			<point x="473" y="132" type="curve" smooth="yes"/>
			<point x="438" y="132"/>
			<point x="410" y="143"/>
			<point x="390" y="157" type="curve"/>
		</contour>
	</outline>
</glyph>
<glyph name="kra" format="1">
  <advance width="575"/>
  <unicode hex="0138"/>
  <outline>
    <contour>
      <point x="75" y="0" type="line"/>
      <point x="225" y="0" type="line"/>
      <point x="225" y="525" type="line"/>
      <point x="75" y="525" type="line"/>
    </contour>
    <contour>
      <point x="169" y="101" type="line"/>
      <point x="562" y="525" type="line"/>
      <point x="376" y="525" type="line"/>
      <point x="169" y="273" type="line"/>
    </contour>
    <contour>
      <point x="243" y="269" type="line"/>
      <point x="404" y="0" type="line"/>
      <point x="575" y="0" type="line"/>
      <point x="338" y="361" type="line"/>
    </contour>
  </outline>
</glyph>
<glyph name="Lslash" format="2">
	<advance width="595"/>
	<unicode hex="0141"/>
	<outline>
		<contour>
			<point x="90" y="0" type="line"/>
			<point x="250" y="0" type="line"/>
			<point x="250" y="690" type="line"/>
			<point x="90" y="690" type="line"/>
		</contour>
		<contour>
			<point x="164" y="0" type="line"/>
			<point x="560" y="0" type="line"/>
			<point x="560" y="140" type="line"/>
			<point x="164" y="140" type="line"/>
		</contour>
		<contour>
			<point x="30" y="170" type="line"/>
			<point x="370" y="360" type="line"/>
			<point x="370" y="510" type="line"/>
			<point x="30" y="320" type="line"/>
		</contour>
	</outline>
</glyph>
<glyph name="lslash" format="2">
	<advance width="310"/>
	<unicode hex="0142"/>
	<outline>
		<contour>
			<point x="80" y="0" type="line"/>
			<point x="230" y="0" type="line"/>
			<point x="230" y="735" type="line"/>
			<point x="80" y="715" type="line"/>
		</contour>
		<contour>
			<point x="20" y="170" type="line"/>
			<point x="295" y="320" type="line"/>
			<point x="295" y="460" type="line"/>
			<point x="20" y="310" type="line"/>
		</contour>
	</outline>
</glyph>
<glyph name="Eng" format="2">
	<advance width="759"/>
	<unicode hex="014A"/>
	<outline>
		<contour>
			<point x="85" y="0" type="line"/>
			<point x="229" y="0" type="line"/>
			<point x="229" y="690" type="line"/>
			<point x="85" y="690" type="line"/>
		</contour>
		<contour>
			<point x="137" y="690" type="line"/>
			<point x="530" y="0" type="line"/>
			<point x="660" y="40" type="line"/>
			<point x="290" y="690" type="line"/>
		</contour>
		<contour>
			<point x="394" y="-181" type="line"/>
			<point x="421" y="-190"/>
			<point x="460" y="-197"/>
			<point x="491" y="-197" type="curve" smooth="yes"/>
			<point x="606" y="-197"/>
			<point x="674" y="-129"/>
			<point x="674" y="8" type="curve" smooth="yes"/>
			<point x="674" y="690" type="line"/>
			<point x="530" y="690" type="line"/>
			<point x="530" y="16" type="line" smooth="yes"/>
			<point x="530" y="-46"/>
			<point x="504" y="-66"/>
			<point x="461" y="-66" type="curve" smooth="yes"/>
			<point x="445" y="-66"/>
			<point x="431" y="-63"/>
			<point x="410" y="-57" type="curve"/>
		</contour>
	</outline>
</glyph>
<glyph name="oe" format="2">
	<advance width="901"/>
	<unicode hex="0153"/>
	<outline>
		<contour>
			<point x="38" y="262" type="curve" smooth="yes"/>
			<point x="38" y="93"/>
			<point x="139" y="-12"/>
			<point x="275" y="-12" type="curve"/>
			<point x="408" y="-12"/>
			<point x="499" y="88"/>
			<point x="499" y="262" type="curve" smooth="yes"/>
			<point x="499" y="436"/>
			<point x="408" y="537"/>
			<point x="275" y="537" type="curve"/>
			<point x="139" y="537"/>
			<point x="38" y="431"/>
		</contour>
		<contour>
			<point x="190" y="262" type="curve" smooth="yes"/>
			<point x="190" y="368"/>
			<point x="226.0566" y="416"/>
			<point x="281" y="416" type="curve" smooth="yes"/>
			<point x="339" y="416"/>
			<point x="377" y="368"/>
			<point x="377" y="262" type="curve" smooth="yes"/>
			<point x="377" y="156"/>
			<point x="339" y="109"/>
			<point x="281" y="109" type="curve" smooth="yes"/>
			<point x="226.0566" y="109"/>
			<point x="190" y="156"/>
		</contour>
		<contour>
			<point x="428" y="252" type="curve" smooth="yes"/>
			<point x="428" y="89"/>
			<point x="513" y="-13"/>
			<point x="675" y="-13" type="curve"/>
			<point x="734" y="-13"/>
			<point x="788" y="6"/>
			<point x="832" y="27" type="curve"/>
			<point x="791" y="140" type="line"/>
			<point x="762" y="122"/>
			<point x="722" y="110"/>
			<point x="686" y="110" type="curve" smooth="yes"/>
			<point x="604" y="110"/>
			<point x="550" y="166"/>
			<point x="550" y="262" type="curve" smooth="yes"/>
			<point x="550" y="374"/>
			<point x="588" y="420"/>
			<point x="644" y="420" type="curve" smooth="yes"/>
			<point x="693" y="420"/>
			<point x="722" y="375"/>
			<point x="722" y="272" type="curve"/>
			<point x="753" y="313" type="line"/>
			<point x="507" y="313" type="line"/>
			<point x="507" y="218" type="line"/>
			<point x="861" y="218" type="line"/>
			<point x="863" y="230"/>
			<point x="866" y="251"/>
			<point x="866" y="274" type="curve" smooth="yes"/>
			<point x="866" y="437"/>
			<point x="781" y="537"/>
			<point x="653" y="537" type="curve"/>
			<point x="518" y="537"/>
			<point x="428" y="429"/>
		</contour>
	</outline>
</glyph>
<glyph name="Tbar" format="2">
  <advance width="596"/>
  <unicode hex="0166"/>
  <outline>
    <contour>
      <point x="30" y="550" type="line"/>
      <point x="566" y="550" type="line"/>
      <point x="566" y="690" type="line"/>
      <point x="30" y="690" type="line"/>
    </contour>
    <contour>
      <point x="218" y="0" type="line"/>
      <point x="378" y="0" type="line"/>
      <point x="378" y="690" type="line"/>
      <point x="218" y="690" type="line"/>
    </contour>
    <contour>
      <point x="78" y="246" type="line"/>
      <point x="518" y="246" type="line"/>
      <point x="518" y="380" type="line"/>
      <point x="78" y="380" type="line"/>
    </contour>
  </outline>
</glyph>
<glyph name="tbar" format="2">
  <advance width="452"/>
  <unicode hex="0167"/>
  <outline>
    <contour>
      <point x="25" y="410" type="line"/>
      <point x="404" y="410" type="line"/>
      <point x="404" y="525" type="line"/>
      <point x="25" y="525" type="line"/>
    </contour>
    <contour>
      <point x="115" y="182" type="line" smooth="yes"/>
      <point x="115" y="52"/>
      <point x="185" y="-12"/>
      <point x="300" y="-12" type="curve" smooth="yes"/>
      <point x="338" y="-12"/>
      <point x="379" y="-4"/>
      <point x="412" y="8" type="curve"/>
      <point x="396" y="137" type="line"/>
      <point x="373" y="129"/>
      <point x="350" y="124"/>
      <point x="332" y="124" type="curve" smooth="yes"/>
      <point x="288" y="124"/>
      <point x="265" y="144"/>
      <point x="265" y="201" type="curve" smooth="yes"/>
      <point x="265" y="661" type="line"/>
      <point x="115" y="641" type="line"/>
    </contour>
    <contour>
      <point x="25" y="215" type="line"/>
      <point x="404" y="215" type="line"/>
      <point x="404" y="330" type="line"/>
      <point x="25" y="330" type="line"/>
    </contour>
  </outline>
</glyph>
<glyph name="Uogonek" format="2">
	<advance width="724"/>
	<unicode hex="0172"/>
	<outline>
		<contour>
			<point x="525" y="-170" type="curve"/>
			<point x="495" y="-99" type="line"/>
			<point x="479" y="-109"/>
			<point x="465" y="-117"/>
			<point x="447" y="-117" type="curve" smooth="yes"/>
			<point x="429" y="-117"/>
			<point x="420" y="-105"/>
			<point x="420" y="-90" type="curve" smooth="yes"/>
			<point x="420" y="-60"/>
			<point x="441" y="-24"/>
			<point x="518" y="26" type="curve" smooth="yes"/>
			<point x="598" y="78"/>
			<point x="649" y="157"/>
			<point x="649" y="275" type="curve" smooth="yes"/>
			<point x="649" y="690" type="line"/>
			<point x="493" y="690" type="line"/>
			<point x="493" y="295" type="line" smooth="yes"/>
			<point x="493" y="181"/>
			<point x="438" y="131"/>
			<point x="364" y="131" type="curve" smooth="yes"/>
			<point x="290" y="131"/>
			<point x="235" y="181"/>
			<point x="235" y="295" type="curve" smooth="yes"/>
			<point x="235" y="690" type="line"/>
			<point x="75" y="690" type="line"/>
			<point x="75" y="275" type="line" smooth="yes"/>
			<point x="75" y="91"/>
			<point x="201" y="-12"/>
			<point x="362" y="-12" type="curve" smooth="yes"/>
			<point x="368" y="-12"/>
			<point x="375" y="-12"/>
			<point x="381" y="-12" type="curve"/>
			<point x="350" y="-39"/>
			<point x="335" y="-71"/>
			<point x="335" y="-110" type="curve" smooth="yes"/>
			<point x="335" y="-165"/>
			<point x="375" y="-197"/>
			<point x="435" y="-197" type="curve" smooth="yes"/>
			<point x="470" y="-197"/>
			<point x="500" y="-185"/>
		</contour>
	</outline>
</glyph>
<glyph name="Schwa" format="2">
	<advance width="724"/>
	<unicode hex="018F"/>
	<outline>
		<contour>
			<point x="45" y="345" type="curve" smooth="yes"/>
			<point x="45" y="122"/>
			<point x="188" y="-12"/>
			<point x="362" y="-12" type="curve" smooth="yes"/>
			<point x="536" y="-12"/>
			<point x="679" y="120"/>
			<point x="679" y="345" type="curve" smooth="yes"/>
			<point x="679" y="570"/>
			<point x="530" y="702"/>
			<point x="340" y="702" type="curve" smooth="yes"/>
			<point x="250" y="702"/>
			<point x="150" y="670"/>
			<point x="90" y="635" type="curve"/>
			<point x="145" y="500" type="line"/>
			<point x="185" y="525"/>
			<point x="260" y="552"/>
			<point x="320" y="552" type="curve" smooth="yes"/>
			<point x="430" y="552"/>
			<point x="516" y="490"/>
			<point x="516" y="345" type="curve" smooth="yes"/>
			<point x="516" y="200"/>
			<point x="450" y="131"/>
			<point x="362" y="131" type="curve" smooth="yes"/>
			<point x="274" y="131"/>
			<point x="208" y="201"/>
			<point x="208" y="345" type="curve"/>
			<point x="170" y="280" type="line"/>
			<point x="556" y="280" type="line"/>
			<point x="556" y="400" type="line"/>
			<point x="50" y="400" type="line"/>
			<point x="47" y="387"/>
			<point x="45" y="360"/>
		</contour>
	</outline>
</glyph>
<glyph name="florin" format="2">
  <advance width="600"/>
  <unicode hex="0192"/>
  <outline>
    <contour>
      <point x="74.0" y="-181" type="line"/>
      <point x="101.0" y="-190"/>
      <point x="140.0" y="-197"/>
      <point x="171.0" y="-197" type="curve" smooth="yes"/>
      <point x="286.0" y="-197"/>
      <point x="360.0" y="-129"/>
      <point x="360.0" y="8" type="curve" smooth="yes"/>
      <point x="360.0" y="525" type="line" smooth="yes"/>
      <point x="360.0" y="581"/>
      <point x="381.0" y="610"/>
      <point x="431.0" y="610" type="curve" smooth="yes"/>
      <point x="451.0" y="610"/>
      <point x="474.0" y="606"/>
      <point x="495.0" y="600" type="curve"/>
      <point x="511.0" y="713" type="line"/>
      <point x="478.0" y="725"/>
      <point x="435.0" y="732"/>
      <point x="403.0" y="732" type="curve" smooth="yes"/>
      <point x="282.0" y="732"/>
      <point x="210.0" y="653"/>
      <point x="210.0" y="523" type="curve" smooth="yes"/>
      <point x="210.0" y="16" type="line" smooth="yes"/>
      <point x="210.0" y="-46"/>
      <point x="184.0" y="-66"/>
      <point x="141.0" y="-66" type="curve" smooth="yes"/>
      <point x="125.0" y="-66"/>
      <point x="111.0" y="-63"/>
      <point x="90.0" y="-57" type="curve"/>
    </contour>
    <contour>
      <point x="120.0" y="410" type="line"/>
      <point x="496.0" y="410" type="line"/>
      <point x="496.0" y="525" type="line"/>
      <point x="120.0" y="525" type="line"/>
    </contour>
  </outline>
</glyph>
<glyph name="Nhookleft" format="1">
  <advance width="759"/>
  <unicode hex="019D"/>
  <outline>
    <contour>
      <point x="-51" y="-181" type="line"/>
      <point x="-24" y="-190"/>
      <point x="15" y="-197"/>
      <point x="46" y="-197" type="curve" smooth="yes"/>
      <point x="161" y="-197"/>
      <point x="229" y="-129"/>
      <point x="229" y="8" type="curve" smooth="yes"/>
      <point x="229" y="690" type="line"/>
      <point x="85" y="690" type="line"/>
      <point x="85" y="16" type="line" smooth="yes"/>
      <point x="85" y="-46"/>
      <point x="59" y="-66"/>
      <point x="16" y="-66" type="curve" smooth="yes"/>
      <point x="0" y="-66"/>
      <point x="-14" y="-63"/>
      <point x="-35" y="-57" type="curve"/>
    </contour>
    <contour>
      <point x="141" y="690" type="line"/>
      <point x="480" y="0" type="line"/>
      <point x="629" y="0" type="line"/>
      <point x="290" y="690" type="line"/>
    </contour>
    <contour>
      <point x="530" y="0" type="line"/>
      <point x="674" y="0" type="line"/>
      <point x="674" y="690" type="line"/>
      <point x="530" y="690" type="line"/>
    </contour>
  </outline>
</glyph>
<glyph name="Oogonek" format="2">
	<advance width="744"/>
	<unicode hex="01EA"/>
	<outline>
		<contour>
			<point x="540" y="-170" type="curve"/>
			<point x="510" y="-99" type="line"/>
			<point x="494" y="-109"/>
			<point x="480" y="-117"/>
			<point x="462" y="-117" type="curve" smooth="yes"/>
			<point x="444" y="-117"/>
			<point x="435" y="-105"/>
			<point x="435" y="-90" type="curve" smooth="yes"/>
			<point x="435" y="-60"/>
			<point x="455" y="-22"/>
			<point x="530" y="26" type="curve" smooth="yes"/>
			<point x="630" y="90"/>
			<point x="699" y="191"/>
			<point x="699" y="345" type="curve" smooth="yes"/>
			<point x="699" y="568"/>
			<point x="552" y="702"/>
			<point x="372" y="702" type="curve" smooth="yes"/>
			<point x="192" y="702"/>
			<point x="45" y="568"/>
			<point x="45" y="345" type="curve" smooth="yes"/>
			<point x="45" y="122"/>
			<point x="192" y="-12"/>
			<point x="372" y="-12" type="curve" smooth="yes"/>
			<point x="380" y="-12"/>
			<point x="388" y="-12"/>
			<point x="396" y="-11" type="curve"/>
			<point x="365" y="-39"/>
			<point x="350" y="-70"/>
			<point x="350" y="-110" type="curve" smooth="yes"/>
			<point x="350" y="-165"/>
			<point x="390" y="-197"/>
			<point x="450" y="-197" type="curve" smooth="yes"/>
			<point x="485" y="-197"/>
			<point x="515" y="-185"/>
		</contour>
		<contour>
			<point x="208" y="345" type="curve" smooth="yes"/>
			<point x="208" y="489"/>
			<point x="278" y="559"/>
			<point x="372" y="559" type="curve" smooth="yes"/>
			<point x="466" y="559"/>
			<point x="536" y="489"/>
			<point x="536" y="345" type="curve" smooth="yes"/>
			<point x="536" y="201"/>
			<point x="466" y="131"/>
			<point x="372" y="131" type="curve" smooth="yes"/>
			<point x="278" y="131"/>
			<point x="208" y="201"/>
		</contour>
	</outline>
</glyph>
<glyph name="oogonek" format="1">
  <advance width="592"/>
  <unicode hex="01EB"/>
  <outline>
    <contour>
      <point x="450" y="-170" type="curve"/>
      <point x="420" y="-99" type="line"/>
      <point x="404" y="-109"/>
      <point x="390" y="-117"/>
      <point x="372" y="-117" type="curve" smooth="yes"/>
      <point x="354" y="-117"/>
      <point x="345" y="-105"/>
      <point x="345" y="-90" type="curve" smooth="yes"/>
      <point x="345" y="-60"/>
      <point x="365" y="-24"/>
      <point x="438" y="26" type="curve" smooth="yes"/>
      <point x="508" y="74"/>
      <point x="554" y="153"/>
      <point x="554" y="262" type="curve" smooth="yes"/>
      <point x="554" y="431"/>
      <point x="447" y="537"/>
      <point x="296" y="537" type="curve" smooth="yes"/>
      <point x="145" y="537"/>
      <point x="38" y="431"/>
      <point x="38" y="262" type="curve" smooth="yes"/>
      <point x="38" y="93"/>
      <point x="145" y="-12"/>
      <point x="296" y="-12" type="curve" smooth="yes"/>
      <point x="299" y="-12"/>
      <point x="302" y="-12"/>
      <point x="306" y="-12" type="curve"/>
      <point x="275" y="-39"/>
      <point x="260" y="-71"/>
      <point x="260" y="-110" type="curve" smooth="yes"/>
      <point x="260" y="-165"/>
      <point x="300" y="-197"/>
      <point x="360" y="-197" type="curve" smooth="yes"/>
      <point x="395" y="-197"/>
      <point x="425" y="-185"/>
    </contour>
    <contour>
      <point x="190" y="262" type="curve" smooth="yes"/>
      <point x="190" y="368"/>
      <point x="232" y="416"/>
      <point x="296" y="416" type="curve" smooth="yes"/>
      <point x="360" y="416"/>
      <point x="402" y="368"/>
      <point x="402" y="262" type="curve" smooth="yes"/>
      <point x="402" y="156"/>
      <point x="360" y="109"/>
      <point x="296" y="109" type="curve" smooth="yes"/>
      <point x="232" y="109"/>
      <point x="190" y="156"/>
    </contour>
  </outline>
</glyph>
<glyph name="ipa:schwa" format="2">
	<advance width="564"/>
	<unicode hex="0259"/>
	<outline>
		<contour>
			<point x="38" y="251" type="curve" smooth="yes"/>
			<point x="38" y="88"/>
			<point x="129" y="-12"/>
			<point x="272" y="-12" type="curve" smooth="yes"/>
			<point x="423" y="-12"/>
			<point x="529" y="101"/>
			<point x="529" y="273" type="curve" smooth="yes"/>
			<point x="529" y="431"/>
			<point x="427" y="537"/>
			<point x="250" y="537" type="curve" smooth="yes"/>
			<point x="179" y="537"/>
			<point x="120" y="518"/>
			<point x="72" y="497" type="curve"/>
			<point x="113" y="385" type="line"/>
			<point x="147" y="403"/>
			<point x="193" y="415"/>
			<point x="233" y="415" type="curve" smooth="yes"/>
			<point x="323" y="415"/>
			<point x="383" y="369"/>
			<point x="383" y="263" type="curve" smooth="yes"/>
			<point x="383" y="151"/>
			<point x="337" y="105"/>
			<point x="275" y="105" type="curve" smooth="yes"/>
			<point x="216" y="105"/>
			<point x="182" y="150"/>
			<point x="182" y="253" type="curve"/>
			<point x="151" y="212" type="line"/>
			<point x="422" y="212" type="line"/>
			<point x="422" y="307" type="line"/>
			<point x="43" y="307" type="line"/>
			<point x="41" y="295"/>
			<point x="38" y="274"/>
		</contour>
	</outline>
</glyph>
<glyph name="nhookleft" format="2">
	<advance width="634"/>
	<unicode hex="0272"/>
	<outline>
		<contour>
			<point x="-61" y="-181" type="line"/>
			<point x="-34" y="-190"/>
			<point x="5" y="-197"/>
			<point x="36" y="-197" type="curve" smooth="yes"/>
			<point x="151" y="-197"/>
			<point x="225" y="-129"/>
			<point x="225" y="8" type="curve" smooth="yes"/>
			<point x="225" y="425" type="line"/>
			<point x="206" y="525" type="line"/>
			<point x="60" y="525" type="line"/>
			<point x="68" y="476" type="line" smooth="yes"/>
			<point x="73" y="447"/>
			<point x="75" y="428"/>
			<point x="75" y="400" type="curve"/>
			<point x="75" y="16" type="line" smooth="yes"/>
			<point x="75" y="-46"/>
			<point x="49" y="-66"/>
			<point x="6" y="-66" type="curve" smooth="yes"/>
			<point x="-10" y="-66"/>
			<point x="-24" y="-63"/>
			<point x="-45" y="-57" type="curve"/>
		</contour>
		<contour>
			<point x="210" y="343" type="line"/>
			<point x="241" y="380"/>
			<point x="285" y="399"/>
			<point x="325" y="399" type="curve"/>
			<point x="377" y="399"/>
			<point x="414" y="369"/>
			<point x="414" y="303" type="curve" smooth="yes"/>
			<point x="414" y="0" type="line"/>
			<point x="564" y="0" type="line"/>
			<point x="564" y="326" type="line" smooth="yes"/>
			<point x="564" y="467"/>
			<point x="473" y="537"/>
			<point x="380" y="537" type="curve"/>
			<point x="308" y="537"/>
			<point x="251" y="498"/>
			<point x="210" y="442" type="curve"/>
		</contour>
	</outline>
</glyph>
<glyph name="circumflex" format="2">
	<advance width="600"/>
	<unicode hex="02C6"/>
	<anchor x="300" y="525" name="_top"/>
	<anchor x="303" y="708" name="top"/>
	<outline>
		<contour>
			<point x="125" y="600" type="line"/>
			<point x="246" y="600" type="line"/>
			<point x="371" y="750" type="line"/>
			<point x="227" y="750" type="line"/>
		</contour>
		<contour>
			<point x="229" y="750" type="line"/>
			<point x="354" y="600" type="line"/>
			<point x="475" y="600" type="line"/>
			<point x="373" y="750" type="line"/>
		</contour>
	</outline>
</glyph>
<glyph name="caron" format="2">
  <advance width="600"/>
  <unicode hex="02C7"/>
  <anchor x="300.0" y="525.0" name="_top"/>
  <outline>
    <contour>
      <point x="125" y="750" type="line"/>
      <point x="227" y="600" type="line"/>
      <point x="371" y="600" type="line"/>
      <point x="246" y="750" type="line"/>
    </contour>
    <contour>
      <point x="229" y="600" type="line"/>
      <point x="373" y="600" type="line"/>
      <point x="475" y="750" type="line"/>
      <point x="354" y="750" type="line"/>
    </contour>
  </outline>
</glyph>
<glyph name="dotaccent" format="2">
	<advance width="600"/>
	<unicode hex="02D9"/>
	<anchor x="300" y="525" name="_top"/>
	<outline>
		<contour>
			<point x="223" y="670" type="curve" smooth="yes"/>
			<point x="223" y="625"/>
			<point x="254" y="595"/>
			<point x="300" y="595" type="curve" smooth="yes"/>
			<point x="346" y="595"/>
			<point x="377" y="625"/>
			<point x="377" y="670" type="curve"/>
			<point x="377" y="715"/>
			<point x="346" y="745"/>
			<point x="300" y="745" type="curve" smooth="yes"/>
			<point x="254" y="745"/>
			<point x="223" y="715"/>
		</contour>
	</outline>
</glyph>
<glyph name="tilde" format="2">
  <advance width="600"/>
  <unicode hex="02DC"/>
  <anchor x="300" y="525" name="_top"/>
  <outline>
    <contour>
      <point x="144" y="605" type="curve"/>
      <point x="214" y="605" type="line"/>
      <point x="218.0" y="635.1363636363636"/>
      <point x="230.0" y="644.0"/>
      <point x="244" y="644" type="curve" smooth="yes"/>
      <point x="274.0" y="644.0"/>
      <point x="304" y="600"/>
      <point x="357" y="600" type="curve" smooth="yes"/>
      <point x="415" y="600"/>
      <point x="452" y="651"/>
      <point x="456" y="740" type="curve"/>
      <point x="386" y="740" type="line"/>
      <point x="382.0" y="709.8636363636364"/>
      <point x="370.0" y="701.0"/>
      <point x="356" y="701" type="curve" smooth="yes"/>
      <point x="326.0" y="701.0"/>
      <point x="296.0" y="745.0"/>
      <point x="243" y="745" type="curve" smooth="yes"/>
      <point x="185" y="745"/>
      <point x="148" y="694"/>
    </contour>
  </outline>
</glyph>
<glyph name="hungarumlaut" format="1">
  <advance width="600"/>
  <unicode hex="02DD"/>
  <outline>
    <contour>
      <point x="145" y="600" type="line"/>
      <point x="245" y="600" type="line"/>
      <point x="340" y="750" type="line"/>
      <point x="200" y="750" type="line"/>
    </contour>
    <contour>
      <point x="325" y="600" type="line"/>
      <point x="425" y="600" type="line"/>
      <point x="530" y="750" type="line"/>
      <point x="390" y="750" type="line"/>
    </contour>
    <contour>
      <point x="300" y="525" type="move" name="_top"/>
    </contour>
  </outline>
</glyph>
<glyph name="circumflexcomb" format="2">
	<advance width="0"/>
	<unicode hex="0302"/>
	<anchor x="0" y="525" name="_top"/>
	<anchor x="0" y="722" name="top"/>
	<outline>
		<contour>
			<point x="-175" y="600" type="line"/>
			<point x="-54" y="600" type="line"/>
			<point x="71" y="750" type="line"/>
			<point x="-73" y="750" type="line"/>
		</contour>
		<contour>
			<point x="-71" y="750" type="line"/>
			<point x="54" y="600" type="line"/>
			<point x="175" y="600" type="line"/>
			<point x="73" y="750" type="line"/>
		</contour>
	</outline>
</glyph>
<glyph name="tildecomb" format="2">
	<advance width="0"/>
	<unicode hex="0303"/>
	<anchor x="0" y="525" name="_top"/>
	<anchor x="0" y="720" name="top"/>
	<outline>
		<contour>
			<point x="-156" y="585" type="curve"/>
			<point x="-86" y="585" type="line"/>
			<point x="-82" y="615"/>
			<point x="-70" y="624"/>
			<point x="-56" y="624" type="curve" smooth="yes"/>
			<point x="-26" y="624"/>
			<point x="4" y="580"/>
			<point x="57" y="580" type="curve" smooth="yes"/>
			<point x="115" y="580"/>
			<point x="152" y="631"/>
			<point x="156" y="720" type="curve"/>
			<point x="86" y="720" type="line"/>
			<point x="82" y="690"/>
			<point x="70" y="681"/>
			<point x="56" y="681" type="curve" smooth="yes"/>
			<point x="26" y="681"/>
			<point x="-4" y="725"/>
			<point x="-57" y="725" type="curve" smooth="yes"/>
			<point x="-115" y="725"/>
			<point x="-152" y="674"/>
		</contour>
	</outline>
</glyph>
<glyph name="macroncomb" format="2">
	<advance width="0"/>
	<unicode hex="0304"/>
	<anchor x="0" y="525" name="_top"/>
	<anchor x="0" y="720" name="top"/>
	<outline>
		<contour>
			<point x="-170" y="620" type="line"/>
			<point x="170" y="620" type="line"/>
			<point x="170" y="732" type="line"/>
			<point x="-170" y="732" type="line"/>
		</contour>
	</outline>
</glyph>
<glyph name="brevecomb" format="2">
	<advance width="0"/>
	<unicode hex="0306"/>
	<anchor x="0" y="525" name="_top"/>
	<anchor x="0" y="711" name="top"/>
	<outline>
		<contour>
			<point x="-150" y="750" type="line"/>
			<point x="-145" y="650"/>
			<point x="-84" y="590"/>
			<point x="0" y="590" type="curve" smooth="yes"/>
			<point x="84" y="590"/>
			<point x="145" y="650"/>
			<point x="150" y="750" type="curve"/>
			<point x="65" y="750" type="line"/>
			<point x="60" y="710"/>
			<point x="37" y="685"/>
			<point x="0" y="685" type="curve" smooth="yes"/>
			<point x="-37" y="685"/>
			<point x="-60" y="710"/>
			<point x="-65" y="750" type="curve"/>
		</contour>
	</outline>
</glyph>
<glyph name="dotaccentcomb" format="2">
	<advance width="0"/>
	<unicode hex="0307"/>
	<anchor x="0" y="525" name="_top"/>
	<outline>
		<contour>
			<point x="-77" y="670" type="curve" smooth="yes"/>
			<point x="-77" y="625"/>
			<point x="-46" y="595"/>
			<point x="0" y="595" type="curve" smooth="yes"/>
			<point x="46" y="595"/>
			<point x="77" y="625"/>
			<point x="77" y="670" type="curve"/>
			<point x="77" y="715"/>
			<point x="46" y="745"/>
			<point x="0" y="745" type="curve" smooth="yes"/>
			<point x="-46" y="745"/>
			<point x="-77" y="715"/>
		</contour>
	</outline>
</glyph>
<glyph name="dieresiscomb" format="2">
	<advance width="0"/>
	<unicode hex="0308"/>
	<anchor x="0" y="525" name="_top"/>
	<outline>
		<contour>
			<point x="-181" y="670" type="curve" smooth="yes"/>
			<point x="-181" y="625"/>
			<point x="-150" y="595"/>
			<point x="-104" y="595" type="curve" smooth="yes"/>
			<point x="-58" y="595"/>
			<point x="-27" y="625"/>
			<point x="-27" y="670" type="curve"/>
			<point x="-27" y="715"/>
			<point x="-58" y="745"/>
			<point x="-104" y="745" type="curve" smooth="yes"/>
			<point x="-150" y="745"/>
			<point x="-181" y="715"/>
		</contour>
		<contour>
			<point x="27" y="670" type="curve" smooth="yes"/>
			<point x="27" y="625"/>
			<point x="58" y="595"/>
			<point x="104" y="595" type="curve" smooth="yes"/>
			<point x="150" y="595"/>
			<point x="181" y="625"/>
			<point x="181" y="670" type="curve"/>
			<point x="181" y="715"/>
			<point x="150" y="745"/>
			<point x="104" y="745" type="curve" smooth="yes"/>
			<point x="58" y="745"/>
			<point x="27" y="715"/>
		</contour>
	</outline>
</glyph>
<glyph name="hookabovecomb" format="2">
	<advance width="0"/>
	<unicode hex="0309"/>
	<anchor x="0" y="525" name="_top"/>
	<outline>
		<contour>
			<point x="-38" y="600" type="line"/>
			<point x="50" y="600" type="line"/>
			<point x="50" y="635" type="line"/>
			<point x="73" y="647"/>
			<point x="91" y="674"/>
			<point x="91" y="712" type="curve" smooth="yes"/>
			<point x="91" y="764"/>
			<point x="41" y="808"/>
			<point x="-38" y="808" type="curve"/>
			<point x="-38" y="729" type="line"/>
			<point x="-17" y="729"/>
			<point x="0" y="719"/>
			<point x="0" y="701" type="curve" smooth="yes"/>
			<point x="0" y="683"/>
			<point x="-17" y="670"/>
			<point x="-38" y="670" type="curve"/>
		</contour>
	</outline>
</glyph>
<glyph name="dblgravecomb" format="2">
	<advance width="0"/>
	<unicode hex="030F"/>
	<anchor x="0" y="525" name="_top"/>
	<outline>
		<contour>
			<point x="-280" y="740" type="line"/>
			<point x="-160" y="590" type="line"/>
			<point x="-39" y="590" type="line"/>
			<point x="-128" y="740" type="line"/>
		</contour>
		<contour>
			<point x="-70" y="740" type="line"/>
			<point x="41" y="590" type="line"/>
			<point x="162" y="590" type="line"/>
			<point x="73" y="740" type="line"/>
		</contour>
	</outline>
</glyph>
<glyph name="horncomb" format="2">
	<advance width="0"/>
	<unicode hex="031B"/>
	<anchor x="0" y="690" name="_horn"/>
	<outline>
		<contour>
			<point x="0" y="584" type="line"/>
			<point x="127" y="584"/>
			<point x="213" y="681"/>
			<point x="213" y="783" type="curve"/>
			<point x="111" y="783" type="line"/>
			<point x="111" y="733"/>
			<point x="75" y="690"/>
			<point x="0" y="690" type="curve"/>
		</contour>
	</outline>
</glyph>
<glyph name="dotbelowcomb" format="2">
	<advance width="0"/>
	<unicode hex="0323"/>
	<anchor x="0" y="0" name="_bottom"/>
	<outline>
		<contour>
			<point x="-77" y="-145" type="curve" smooth="yes"/>
			<point x="-77" y="-190"/>
			<point x="-46" y="-220"/>
			<point x="0" y="-220" type="curve" smooth="yes"/>
			<point x="46" y="-220"/>
			<point x="77" y="-190"/>
			<point x="77" y="-145" type="curve"/>
			<point x="77" y="-100"/>
			<point x="46" y="-70"/>
			<point x="0" y="-70" type="curve" smooth="yes"/>
			<point x="-46" y="-70"/>
			<point x="-77" y="-100"/>
		</contour>
	</outline>
</glyph>
<glyph name="cedillacomb" format="2">
	<advance width="0"/>
	<unicode hex="0327"/>
	<anchor x="0" y="0" name="_bottom"/>
	<outline>
		<contour>
			<point x="-80" y="-228" type="line"/>
			<point x="-44" y="-228" type="line" smooth="yes"/>
			<point x="66" y="-228"/>
			<point x="108" y="-184"/>
			<point x="108" y="-127" type="curve" smooth="yes"/>
			<point x="108" y="-90"/>
			<point x="85" y="-60"/>
			<point x="27" y="-50" type="curve"/>
			<point x="38" y="9" type="line"/>
			<point x="-36" y="15" type="line"/>
			<point x="-58" y="-93" type="line"/>
			<point x="-38" y="-95" type="line" smooth="yes"/>
			<point x="-5" y="-98"/>
			<point x="8" y="-111"/>
			<point x="8" y="-129" type="curve" smooth="yes"/>
			<point x="8" y="-151"/>
			<point x="-5" y="-168"/>
			<point x="-66" y="-168" type="curve"/>
		</contour>
	</outline>
</glyph>
<glyph name="ogonekcomb" format="2">
	<advance width="0"/>
	<unicode hex="0328"/>
	<anchor x="0" y="0" name="_ogonek"/>
	<outline>
		<contour>
			<point x="-60" y="-110" type="curve" smooth="yes"/>
			<point x="-60" y="-165"/>
			<point x="-20" y="-197"/>
			<point x="40" y="-197" type="curve" smooth="yes"/>
			<point x="75" y="-197"/>
			<point x="105" y="-185"/>
			<point x="130" y="-170" type="curve"/>
			<point x="100" y="-99" type="line"/>
			<point x="84" y="-109"/>
			<point x="70" y="-117"/>
			<point x="52" y="-117" type="curve" smooth="yes"/>
			<point x="34" y="-117"/>
			<point x="25" y="-105"/>
			<point x="25" y="-90" type="curve" smooth="yes"/>
			<point x="25" y="-60"/>
			<point x="50" y="-30"/>
			<point x="120" y="0" type="curve"/>
			<point x="0" y="0" type="line"/>
			<point x="-40" y="-30"/>
			<point x="-60" y="-65"/>
		</contour>
	</outline>
</glyph>
<glyph name="Delta" format="2">
	<advance width="656"/>
	<unicode hex="0394"/>
	<outline>
		<contour>
			<point x="0" y="0" type="line"/>
			<point x="166" y="0" type="line"/>
			<point x="343" y="534" type="line"/>
			<point x="335" y="690" type="line"/>
			<point x="251" y="690" type="line"/>
		</contour>
		<contour>
			<point x="110" y="0" type="line"/>
			<point x="546" y="0" type="line"/>
			<point x="546" y="140" type="line"/>
			<point x="110" y="140" type="line"/>
		</contour>
		<contour>
			<point x="309" y="534" type="line"/>
			<point x="486" y="0" type="line"/>
			<point x="656" y="0" type="line"/>
			<point x="405" y="690" type="line"/>
			<point x="313" y="690" type="line"/>
		</contour>
	</outline>
</glyph>
<glyph name="Omega" format="2">
	<advance width="726"/>
	<unicode hex="03A9"/>
	<outline>
		<contour>
			<point x="363" y="552" type="curve" smooth="yes"/>
			<point x="445" y="552"/>
			<point x="506" y="484"/>
			<point x="506" y="365" type="curve" smooth="yes"/>
			<point x="506" y="280"/>
			<point x="476" y="210"/>
			<point x="433" y="160" type="curve"/>
			<point x="433" y="0" type="line"/>
			<point x="656" y="0" type="line"/>
			<point x="656" y="130" type="line"/>
			<point x="486" y="130" type="line"/>
			<point x="433" y="60" type="line"/>
			<point x="556" y="110"/>
			<point x="656" y="220"/>
			<point x="656" y="380" type="curve" smooth="yes"/>
			<point x="656" y="580"/>
			<point x="524" y="702"/>
			<point x="363" y="702" type="curve" smooth="yes"/>
			<point x="202" y="702"/>
			<point x="70" y="580"/>
			<point x="70" y="380" type="curve" smooth="yes"/>
			<point x="70" y="220"/>
			<point x="170" y="110"/>
			<point x="293" y="60" type="curve"/>
			<point x="240" y="130" type="line"/>
			<point x="70" y="130" type="line"/>
			<point x="70" y="0" type="line"/>
			<point x="293" y="0" type="line"/>
			<point x="293" y="160" type="line"/>
			<point x="250" y="210"/>
			<point x="220" y="280"/>
			<point x="220" y="365" type="curve" smooth="yes"/>
			<point x="220" y="484"/>
			<point x="281" y="552"/>
		</contour>
	</outline>
</glyph>
<glyph name="Omega" format="1">
  <advance width="726"/>
  <unicode hex="03A9"/>
  <outline>
    <contour>
      <point x="363" y="552" type="curve" smooth="yes"/>
      <point x="445.0" y="552.0"/>
      <point x="506" y="484"/>
      <point x="506" y="365" type="curve" smooth="yes"/>
      <point x="506" y="280"/>
      <point x="476" y="210"/>
      <point x="433" y="160" type="curve"/>
      <point x="433" y="0" type="line"/>
      <point x="656" y="0" type="line"/>
      <point x="656" y="130" type="line"/>
      <point x="486" y="130" type="line"/>
      <point x="433" y="60" type="line"/>
      <point x="556" y="110"/>
      <point x="656" y="220"/>
      <point x="656" y="380" type="curve" smooth="yes"/>
      <point x="656" y="580"/>
      <point x="524" y="702"/>
      <point x="363" y="702" type="curve" smooth="yes"/>
      <point x="202" y="702"/>
      <point x="70" y="580"/>
      <point x="70" y="380" type="curve" smooth="yes"/>
      <point x="70" y="220"/>
      <point x="170" y="110"/>
      <point x="293" y="60" type="curve"/>
      <point x="240" y="130" type="line"/>
      <point x="70" y="130" type="line"/>
      <point x="70" y="0" type="line"/>
      <point x="293" y="0" type="line"/>
      <point x="293" y="160" type="line"/>
      <point x="250" y="210"/>
      <point x="220" y="280"/>
      <point x="220" y="365" type="curve" smooth="yes"/>
      <point x="220" y="484"/>
      <point x="281.0" y="552.0"/>
    </contour>
  </outline>
</glyph>
<glyph name="mu" format="2">
	<advance width="628"/>
	<unicode hex="03BC"/>
	<outline>
		<contour>
			<point x="70" y="-185" type="line"/>
			<point x="220" y="-185" type="line"/>
			<point x="180" y="200" type="line"/>
			<point x="140" y="200" type="line"/>
			<point x="140" y="60"/>
			<point x="180" y="-12"/>
			<point x="270" y="-12" type="curve" smooth="yes"/>
			<point x="333" y="-12"/>
			<point x="384" y="28"/>
			<point x="418" y="83" type="curve"/>
			<point x="418" y="182" type="line"/>
			<point x="387" y="145"/>
			<point x="346" y="126"/>
			<point x="306" y="126" type="curve" smooth="yes"/>
			<point x="254" y="126"/>
			<point x="220" y="156"/>
			<point x="220" y="222" type="curve" smooth="yes"/>
			<point x="220" y="525" type="line"/>
			<point x="70" y="525" type="line"/>
		</contour>
		<contour>
			<point x="403" y="132" type="line"/>
			<point x="414" y="94" type="line"/>
			<point x="421" y="18"/>
			<point x="469" y="-12"/>
			<point x="530" y="-12" type="curve" smooth="yes"/>
			<point x="552" y="-12"/>
			<point x="576" y="-7"/>
			<point x="594" y="0" type="curve"/>
			<point x="594" y="121" type="line"/>
			<point x="588" y="119"/>
			<point x="582" y="118"/>
			<point x="576" y="118" type="curve" smooth="yes"/>
			<point x="561" y="118"/>
			<point x="553" y="126"/>
			<point x="553" y="147" type="curve"/>
			<point x="553" y="525" type="line"/>
			<point x="403" y="525" type="line"/>
		</contour>
	</outline>
</glyph>
<glyph name="pi" format="2">
	<advance width="628"/>
	<unicode hex="03C0"/>
	<outline>
		<contour>
			<point x="40" y="405" type="line"/>
			<point x="583" y="405" type="line"/>
			<point x="583" y="525" type="line"/>
			<point x="40" y="525" type="line"/>
		</contour>
		<contour>
			<point x="100" y="0" type="line"/>
			<point x="250" y="0" type="line"/>
			<point x="250" y="525" type="line"/>
			<point x="100" y="525" type="line"/>
		</contour>
		<contour>
			<point x="373" y="132" type="line" smooth="yes"/>
			<point x="373" y="20"/>
			<point x="430" y="-12"/>
			<point x="500" y="-12" type="curve" smooth="yes"/>
			<point x="522" y="-12"/>
			<point x="546" y="-7"/>
			<point x="564" y="0" type="curve"/>
			<point x="564" y="121" type="line"/>
			<point x="558" y="119"/>
			<point x="552" y="118"/>
			<point x="546" y="118" type="curve" smooth="yes"/>
			<point x="531" y="118"/>
			<point x="523" y="126"/>
			<point x="523" y="147" type="curve"/>
			<point x="523" y="525" type="line"/>
			<point x="373" y="525" type="line"/>
		</contour>
	</outline>
</glyph>
<glyph name="endash" format="2">
	<advance width="634"/>
	<unicode hex="2013"/>
	<outline>
		<contour>
			<point x="55" y="220" type="line"/>
			<point x="579" y="220" type="line"/>
			<point x="579" y="340" type="line"/>
			<point x="55" y="340" type="line"/>
		</contour>
	</outline>
</glyph>
<glyph name="emdash" format="2">
	<advance width="935"/>
	<unicode hex="2014"/>
	<outline>
		<contour>
			<point x="55" y="220" type="line"/>
			<point x="880" y="220" type="line"/>
			<point x="880" y="340" type="line"/>
			<point x="55" y="340" type="line"/>
		</contour>
	</outline>
</glyph>
<glyph name="quoteleft" format="2">
	<advance width="278"/>
	<unicode hex="2018"/>
	<outline>
		<contour>
			<point x="218" y="720" type="line"/>
			<point x="130" y="720" type="line"/>
			<point x="77" y="584" type="line" smooth="yes"/>
			<point x="56" y="530"/>
			<point x="45" y="499"/>
			<point x="45" y="458" type="curve" smooth="yes"/>
			<point x="45" y="402"/>
			<point x="84" y="363"/>
			<point x="139" y="363" type="curve" smooth="yes"/>
			<point x="194" y="363"/>
			<point x="233" y="402"/>
			<point x="233" y="455" type="curve" smooth="yes"/>
			<point x="233" y="501"/>
			<point x="206" y="531"/>
			<point x="172" y="542" type="curve"/>
		</contour>
	</outline>
</glyph>
<glyph name="quoteright" format="1">
  <advance width="278"/>
  <unicode hex="2019"/>
  <outline>
    <contour>
      <point x="60" y="375" type="line"/>
      <point x="148" y="375" type="line"/>
      <point x="201" y="511" type="line" smooth="yes"/>
      <point x="222" y="565"/>
      <point x="233" y="596"/>
      <point x="233" y="637" type="curve" smooth="yes"/>
      <point x="233" y="693"/>
      <point x="194" y="732"/>
      <point x="139" y="732" type="curve" smooth="yes"/>
      <point x="84" y="732"/>
      <point x="45" y="693"/>
      <point x="45" y="640" type="curve" smooth="yes"/>
      <point x="45" y="594"/>
      <point x="72" y="564"/>
      <point x="106" y="553" type="curve"/>
    </contour>
  </outline>
</glyph>
<glyph name="dagger" format="1">
  <advance width="480"/>
  <unicode hex="2020"/>
  <outline>
    <contour>
      <point x="170" y="-185" type="line"/>
      <point x="310" y="-185" type="line"/>
      <point x="310" y="720" type="line"/>
      <point x="170" y="720" type="line"/>
    </contour>
    <contour>
      <point x="30" y="405" type="line"/>
      <point x="450" y="405" type="line"/>
      <point x="450" y="525" type="line"/>
      <point x="30" y="525" type="line"/>
    </contour>
  </outline>
</glyph>
<glyph name="daggerdbl" format="2">
	<advance width="480"/>
	<unicode hex="2021"/>
	<outline>
		<contour>
			<point x="170" y="-185" type="line"/>
			<point x="310" y="-185" type="line"/>
			<point x="310" y="720" type="line"/>
			<point x="170" y="720" type="line"/>
		</contour>
		<contour>
			<point x="30" y="405" type="line"/>
			<point x="450" y="405" type="line"/>
			<point x="450" y="525" type="line"/>
			<point x="30" y="525" type="line"/>
		</contour>
		<contour>
			<point x="30" y="10" type="line"/>
			<point x="450" y="10" type="line"/>
			<point x="450" y="130" type="line"/>
			<point x="30" y="130" type="line"/>
		</contour>
	</outline>
</glyph>
<glyph name="bullet" format="2">
	<advance width="400"/>
	<unicode hex="2022"/>
	<outline>
		<contour>
			<point x="80" y="290" type="curve" smooth="yes"/>
			<point x="80" y="220"/>
			<point x="130" y="170"/>
			<point x="200" y="170" type="curve" smooth="yes"/>
			<point x="270" y="170"/>
			<point x="320" y="220"/>
			<point x="320" y="290" type="curve" smooth="yes"/>
			<point x="320" y="360"/>
			<point x="270" y="410"/>
			<point x="200" y="410" type="curve" smooth="yes"/>
			<point x="130" y="410"/>
			<point x="80" y="360"/>
		</contour>
	</outline>
</glyph>
<glyph name="guilsinglright" format="2">
	<advance width="314"/>
	<unicode hex="203A"/>
	<outline>
		<contour>
			<point x="20" y="88" type="line"/>
			<point x="182" y="88" type="line"/>
			<point x="279" y="239" type="line"/>
			<point x="279" y="310" type="line"/>
			<point x="159" y="298" type="line"/>
		</contour>
		<contour>
			<point x="20" y="463" type="line"/>
			<point x="159" y="253" type="line"/>
			<point x="279" y="241" type="line"/>
			<point x="279" y="312" type="line"/>
			<point x="182" y="463" type="line"/>
		</contour>
	</outline>
</glyph>
<glyph name="fraction" format="2">
	<advance width="580"/>
	<unicode hex="2044"/>
	<outline>
		<contour>
			<point x="0" y="0" type="line"/>
			<point x="160" y="0" type="line"/>
			<point x="580" y="690" type="line"/>
			<point x="420" y="690" type="line"/>
		</contour>
	</outline>
</glyph>
<glyph name="franc" format="2">
	<advance width="595"/>
	<unicode hex="20A3"/>
	<outline>
		<component base="F"/>
		<contour>
			<point x="10" y="66" type="line"/>
			<point x="356" y="66" type="line"/>
			<point x="356" y="187" type="line"/>
			<point x="10" y="187" type="line"/>
		</contour>
	</outline>
</glyph>
<glyph name="Euro" format="2">
  <advance width="600"/>
  <unicode hex="20AC"/>
  <outline>
    <contour>
      <point x="80.0" y="345" type="curve" smooth="yes"/>
      <point x="80.0" y="122"/>
      <point x="215.0" y="-12"/>
      <point x="384.0" y="-12" type="curve" smooth="yes"/>
      <point x="475.0" y="-12"/>
      <point x="545.0" y="15"/>
      <point x="603.0" y="69" type="curve"/>
      <point x="521.0" y="193" type="line"/>
      <point x="483.0" y="160"/>
      <point x="440.0" y="138"/>
      <point x="388.0" y="138" type="curve" smooth="yes"/>
      <point x="302.0" y="138"/>
      <point x="243.0" y="207"/>
      <point x="243.0" y="345" type="curve" smooth="yes"/>
      <point x="243.0" y="483"/>
      <point x="302.0" y="552"/>
      <point x="387.0" y="552" type="curve" smooth="yes"/>
      <point x="440.0" y="552"/>
      <point x="483.0" y="532"/>
      <point x="521.0" y="504" type="curve"/>
      <point x="598.0" y="632" type="line"/>
      <point x="538.0" y="678"/>
      <point x="469.0" y="702"/>
      <point x="382.0" y="702" type="curve" smooth="yes"/>
      <point x="215.0" y="702"/>
      <point x="80.0" y="568"/>
    </contour>
    <contour>
      <point x="30.0" y="205" type="line"/>
      <point x="430.0" y="205" type="line"/>
      <point x="430.0" y="315" type="line"/>
      <point x="30.0" y="315" type="line"/>
    </contour>
    <contour>
      <point x="30.0" y="375" type="line"/>
      <point x="430.0" y="375" type="line"/>
      <point x="430.0" y="485" type="line"/>
      <point x="30.0" y="485" type="line"/>
    </contour>
  </outline>
</glyph>
<glyph name="liraTurkish" format="2">
	<advance width="590"/>
	<unicode hex="20BA"/>
	<outline>
		<contour>
			<point x="85" y="0" type="line"/>
			<point x="245" y="0" type="line"/>
			<point x="245" y="690" type="line"/>
			<point x="85" y="690" type="line"/>
		</contour>
		<contour>
			<point x="219" y="0" type="line"/>
			<point x="461" y="0"/>
			<point x="564" y="130"/>
			<point x="564" y="285" type="curve"/>
			<point x="416" y="285" type="line"/>
			<point x="416" y="198"/>
			<point x="361" y="140"/>
			<point x="219" y="140" type="curve"/>
		</contour>
		<contour>
			<point x="10" y="210" type="line"/>
			<point x="330" y="310" type="line"/>
			<point x="330" y="428" type="line"/>
			<point x="10" y="328" type="line"/>
		</contour>
		<contour>
			<point x="10" y="378" type="line"/>
			<point x="330" y="478" type="line"/>
			<point x="330" y="598" type="line"/>
			<point x="10" y="498" type="line"/>
		</contour>
	</outline>
</glyph>
<glyph name="litre" format="2">
	<advance width="500"/>
	<unicode hex="2113"/>
	<outline>
		<contour>
			<point x="100" y="182" type="line" smooth="yes"/>
			<point x="100" y="52"/>
			<point x="170" y="-12"/>
			<point x="285" y="-12" type="curve" smooth="yes"/>
			<point x="323" y="-12"/>
			<point x="364" y="-4"/>
			<point x="397" y="8" type="curve"/>
			<point x="381" y="137" type="line"/>
			<point x="358" y="129"/>
			<point x="335" y="124"/>
			<point x="317" y="124" type="curve" smooth="yes"/>
			<point x="273" y="124"/>
			<point x="250" y="144"/>
			<point x="250" y="201" type="curve" smooth="yes"/>
			<point x="250" y="535" type="line" smooth="yes"/>
			<point x="250" y="580"/>
			<point x="265" y="612"/>
			<point x="295" y="612" type="curve" smooth="yes"/>
			<point x="325" y="612"/>
			<point x="340" y="580"/>
			<point x="340" y="535" type="curve" smooth="yes"/>
			<point x="340" y="380"/>
			<point x="200" y="320"/>
			<point x="20" y="260" type="curve"/>
			<point x="60" y="150" type="line"/>
			<point x="260" y="200"/>
			<point x="480" y="300"/>
			<point x="480" y="540" type="curve" smooth="yes"/>
			<point x="480" y="650"/>
			<point x="420" y="732"/>
			<point x="295" y="732" type="curve" smooth="yes"/>
			<point x="170" y="732"/>
			<point x="100" y="650"/>
			<point x="100" y="540" type="curve" smooth="yes"/>
		</contour>
	</outline>
</glyph>
<glyph name="numero" format="2">
  <advance width="1146"/>
  <unicode hex="2116"/>
  <outline>
    <contour>
      <point x="756" y="490" type="curve" smooth="yes"/>
      <point x="756" y="347"/>
      <point x="833" y="278"/>
      <point x="926" y="278" type="curve" smooth="yes"/>
      <point x="1020" y="278"/>
      <point x="1096" y="347"/>
      <point x="1096" y="490" type="curve" smooth="yes"/>
      <point x="1096" y="633"/>
      <point x="1020" y="702"/>
      <point x="926" y="702" type="curve" smooth="yes"/>
      <point x="833" y="702"/>
      <point x="756" y="633"/>
    </contour>
    <contour>
      <point x="866" y="490" type="curve" smooth="yes"/>
      <point x="866" y="565"/>
      <point x="893" y="600"/>
      <point x="926" y="600" type="curve" smooth="yes"/>
      <point x="959" y="600"/>
      <point x="986" y="565"/>
      <point x="986" y="490" type="curve" smooth="yes"/>
      <point x="986" y="415"/>
      <point x="959" y="380"/>
      <point x="926" y="380" type="curve" smooth="yes"/>
      <point x="893" y="380"/>
      <point x="866" y="415"/>
    </contour>
    <contour>
      <point x="766" y="80" type="line"/>
      <point x="1086" y="80" type="line"/>
      <point x="1086" y="200" type="line"/>
      <point x="766" y="200" type="line"/>
    </contour>
    <contour>
      <point x="85" y="0" type="line"/>
      <point x="229" y="0" type="line"/>
      <point x="229" y="690" type="line"/>
      <point x="85" y="690" type="line"/>
    </contour>
    <contour>
      <point x="141" y="690" type="line"/>
      <point x="480" y="0" type="line"/>
      <point x="629" y="0" type="line"/>
      <point x="290" y="690" type="line"/>
    </contour>
    <contour>
      <point x="530" y="0" type="line"/>
      <point x="674" y="0" type="line"/>
      <point x="674" y="690" type="line"/>
      <point x="530" y="690" type="line"/>
    </contour>
  </outline>
</glyph>
<glyph name="estimated" format="2">
  <advance width="706"/>
  <unicode hex="212E"/>
  <outline>
    <contour>
      <point x="60" y="345" type="curve" smooth="yes"/>
      <point x="60" y="112"/>
      <point x="191" y="-10"/>
      <point x="372" y="-10" type="curve" smooth="yes"/>
      <point x="465" y="-10"/>
      <point x="542" y="20"/>
      <point x="604" y="64" type="curve"/>
      <point x="573" y="116" type="line"/>
      <point x="522" y="80"/>
      <point x="454" y="50"/>
      <point x="376" y="50" type="curve" smooth="yes"/>
      <point x="218" y="50"/>
      <point x="120" y="149"/>
      <point x="120" y="345" type="curve" smooth="yes"/>
      <point x="120" y="541"/>
      <point x="219" y="640"/>
      <point x="352" y="640" type="curve" smooth="yes"/>
      <point x="486" y="640"/>
      <point x="585" y="541"/>
      <point x="585" y="356" type="curve"/>
      <point x="600" y="390" type="line"/>
      <point x="90" y="390" type="line"/>
      <point x="90" y="330" type="line"/>
      <point x="644" y="330" type="line"/>
      <point x="645" y="340"/>
      <point x="646" y="355"/>
      <point x="646" y="365" type="curve" smooth="yes"/>
      <point x="646" y="578"/>
      <point x="513" y="700"/>
      <point x="352" y="700" type="curve" smooth="yes"/>
      <point x="191" y="700"/>
      <point x="60" y="578"/>
    </contour>
    <contour>
      <point x="90" y="220" type="line"/>
      <point x="220" y="80" type="line"/>
      <point x="220" y="600" type="line"/>
      <point x="90" y="480" type="line"/>
    </contour>
    <contour>
      <point x="485" y="350" type="line"/>
      <point x="615" y="350" type="line"/>
      <point x="615" y="480" type="line"/>
      <point x="485" y="600" type="line"/>
    </contour>
  </outline>
</glyph>
<glyph name="partialdiff" format="2">
	<advance width="640"/>
	<unicode hex="2202"/>
	<outline>
		<contour>
			<point x="175" y="480"/>
			<point x="50" y="360"/>
			<point x="50" y="200" type="curve" smooth="yes"/>
			<point x="50" y="70"/>
			<point x="134" y="-12"/>
			<point x="250" y="-12" type="curve" smooth="yes"/>
			<point x="420" y="-12"/>
			<point x="555" y="140"/>
			<point x="555" y="390" type="curve" smooth="yes"/>
			<point x="555" y="560"/>
			<point x="477" y="730"/>
			<point x="300" y="730" type="curve" smooth="yes"/>
			<point x="260" y="730"/>
			<point x="220" y="724"/>
			<point x="190" y="715" type="curve"/>
			<point x="200" y="585" type="line"/>
			<point x="220" y="592"/>
			<point x="250" y="600"/>
			<point x="280" y="600" type="curve" smooth="yes"/>
			<point x="372" y="600"/>
			<point x="410" y="503"/>
			<point x="410" y="390" type="curve" smooth="yes"/>
			<point x="410" y="220"/>
			<point x="340" y="110"/>
			<point x="270" y="110" type="curve" smooth="yes"/>
			<point x="226" y="110"/>
			<point x="194" y="140"/>
			<point x="194" y="210" type="curve" smooth="yes"/>
			<point x="194" y="301"/>
			<point x="248" y="360"/>
			<point x="320" y="360" type="curve" smooth="yes"/>
			<point x="385" y="360"/>
			<point x="437" y="322"/>
			<point x="456" y="260" type="curve"/>
			<point x="471" y="380" type="line"/>
			<point x="451" y="430"/>
			<point x="410" y="480"/>
			<point x="318" y="480" type="curve" smooth="yes"/>
		</contour>
	</outline>
</glyph>
<glyph name="product" format="2">
	<advance width="750"/>
	<unicode hex="220F"/>
	<outline>
		<contour>
			<point x="135" y="-185" type="line"/>
			<point x="295" y="-185" type="line"/>
			<point x="295" y="690" type="line"/>
			<point x="135" y="690" type="line"/>
		</contour>
		<contour>
			<point x="55" y="550" type="line"/>
			<point x="695" y="550" type="line"/>
			<point x="695" y="690" type="line"/>
			<point x="55" y="690" type="line"/>
		</contour>
		<contour>
			<point x="455" y="-185" type="line"/>
			<point x="615" y="-185" type="line"/>
			<point x="615" y="690" type="line"/>
			<point x="455" y="690" type="line"/>
		</contour>
	</outline>
</glyph>
<glyph name="summation" format="2">
	<advance width="660"/>
	<unicode hex="2211"/>
	<outline>
		<contour>
			<point x="90" y="-185" type="line"/>
			<point x="590" y="-185" type="line"/>
			<point x="590" y="-45" type="line"/>
			<point x="140" y="-45" type="line"/>
			<point x="90" y="-85" type="line"/>
		</contour>
		<contour>
			<point x="238" y="-115" type="line"/>
			<point x="488" y="260" type="line"/>
			<point x="320" y="260" type="line"/>
			<point x="90" y="-85" type="line"/>
		</contour>
		<contour>
			<point x="320" y="250" type="line"/>
			<point x="488" y="260" type="line"/>
			<point x="238" y="630" type="line"/>
			<point x="90" y="590" type="line"/>
		</contour>
		<contour>
			<point x="90" y="590" type="line"/>
			<point x="140" y="550" type="line"/>
			<point x="590" y="550" type="line"/>
			<point x="590" y="690" type="line"/>
			<point x="90" y="690" type="line"/>
		</contour>
	</outline>
</glyph>
<glyph name="minus" format="2">
	<advance width="600"/>
	<unicode hex="2212"/>
	<outline>
		<contour>
			<point x="62" y="223" type="line"/>
			<point x="538" y="223" type="line"/>
			<point x="538" y="357" type="line"/>
			<point x="62" y="357" type="line"/>
		</contour>
	</outline>
</glyph>
<glyph name="bulletoperator" format="2">
	<advance width="600"/>
	<unicode hex="2219"/>
	<outline>
		<contour>
			<point x="180" y="290" type="curve" smooth="yes"/>
			<point x="180" y="220"/>
			<point x="230" y="170"/>
			<point x="300" y="170" type="curve" smooth="yes"/>
			<point x="370" y="170"/>
			<point x="420" y="220"/>
			<point x="420" y="290" type="curve" smooth="yes"/>
			<point x="420" y="360"/>
			<point x="370" y="410"/>
			<point x="300" y="410" type="curve" smooth="yes"/>
			<point x="230" y="410"/>
			<point x="180" y="360"/>
		</contour>
	</outline>
</glyph>
<glyph name="radical" format="2">
  <advance width="740"/>
  <unicode hex="221A"/>
  <outline>
    <contour>
      <point x="100" y="350" type="line"/>
      <point x="300" y="-185" type="line"/>
      <point x="400" y="-185" type="line"/>
      <point x="400" y="-95" type="line"/>
      <point x="259" y="350" type="line"/>
    </contour>
    <contour>
      <point x="325" y="-95" type="line"/>
      <point x="325" y="-185" type="line"/>
      <point x="420" y="-185" type="line"/>
      <point x="750" y="690" type="line"/>
      <point x="585" y="690" type="line"/>
    </contour>
    <contour>
      <point x="20" y="210" type="line"/>
      <point x="210" y="210" type="line"/>
      <point x="210" y="350" type="line"/>
      <point x="20" y="350" type="line"/>
    </contour>
  </outline>
</glyph>
<glyph name="infinity" format="2">
	<advance width="660"/>
	<unicode hex="221E"/>
	<outline>
		<contour>
			<point x="30" y="290" type="curve" smooth="yes"/>
			<point x="30" y="168"/>
			<point x="107" y="88"/>
			<point x="202" y="88" type="curve" smooth="yes"/>
			<point x="278" y="88"/>
			<point x="341" y="133"/>
			<point x="386" y="270" type="curve" smooth="yes"/>
			<point x="410" y="343"/>
			<point x="434" y="372"/>
			<point x="465" y="372" type="curve" smooth="yes"/>
			<point x="492" y="372"/>
			<point x="515" y="346"/>
			<point x="515" y="290" type="curve" smooth="yes"/>
			<point x="515" y="242"/>
			<point x="491" y="208"/>
			<point x="458" y="208" type="curve" smooth="yes"/>
			<point x="420" y="208"/>
			<point x="388" y="242"/>
			<point x="378" y="300" type="curve"/>
			<point x="328" y="240" type="line"/>
			<point x="342" y="140"/>
			<point x="392" y="88"/>
			<point x="464" y="88" type="curve" smooth="yes"/>
			<point x="560" y="88"/>
			<point x="630" y="170"/>
			<point x="630" y="290" type="curve" smooth="yes"/>
			<point x="630" y="412"/>
			<point x="553" y="492"/>
			<point x="458" y="492" type="curve" smooth="yes"/>
			<point x="382" y="492"/>
			<point x="319" y="447"/>
			<point x="274" y="310" type="curve" smooth="yes"/>
			<point x="250" y="237"/>
			<point x="226" y="208"/>
			<point x="195" y="208" type="curve" smooth="yes"/>
			<point x="168" y="208"/>
			<point x="145" y="234"/>
			<point x="145" y="290" type="curve" smooth="yes"/>
			<point x="145" y="338"/>
			<point x="169" y="372"/>
			<point x="202" y="372" type="curve" smooth="yes"/>
			<point x="240" y="372"/>
			<point x="272" y="338"/>
			<point x="282" y="280" type="curve"/>
			<point x="332" y="340" type="line"/>
			<point x="318" y="440"/>
			<point x="268" y="492"/>
			<point x="196" y="492" type="curve" smooth="yes"/>
			<point x="100" y="492"/>
			<point x="30" y="410"/>
		</contour>
	</outline>
</glyph>
<glyph name="integral" format="2">
	<advance width="440"/>
	<unicode hex="222B"/>
	<outline>
		<contour>
			<point x="-11" y="-178" type="line"/>
			<point x="22" y="-190"/>
			<point x="65" y="-197"/>
			<point x="97" y="-197" type="curve" smooth="yes"/>
			<point x="218" y="-197"/>
			<point x="290" y="-118"/>
			<point x="290" y="12" type="curve" smooth="yes"/>
			<point x="290" y="525" type="line" smooth="yes"/>
			<point x="290" y="581"/>
			<point x="311" y="610"/>
			<point x="361" y="610" type="curve"/>
			<point x="381" y="610"/>
			<point x="404" y="606"/>
			<point x="425" y="600" type="curve"/>
			<point x="441" y="713" type="line"/>
			<point x="408" y="725"/>
			<point x="365" y="732"/>
			<point x="333" y="732" type="curve"/>
			<point x="212" y="732"/>
			<point x="140" y="653"/>
			<point x="140" y="523" type="curve" smooth="yes"/>
			<point x="140" y="10" type="line" smooth="yes"/>
			<point x="140" y="-46"/>
			<point x="119" y="-75"/>
			<point x="69" y="-75" type="curve" smooth="yes"/>
			<point x="49" y="-75"/>
			<point x="26" y="-71"/>
			<point x="5" y="-65" type="curve"/>
		</contour>
	</outline>
</glyph>
<glyph name="approxequal" format="2">
  <advance width="600"/>
  <unicode hex="2248"/>
  <outline>
    <contour>
      <point x="130.0" y="83" type="line"/>
      <point x="150.0" y="103"/>
      <point x="180.0" y="123"/>
      <point x="220.0" y="123" type="curve" smooth="yes"/>
      <point x="290.0" y="123"/>
      <point x="320.0" y="83"/>
      <point x="400.0" y="83" type="curve" smooth="yes"/>
      <point x="460.0" y="83"/>
      <point x="510.0" y="123"/>
      <point x="550.0" y="163" type="curve"/>
      <point x="470.0" y="253" type="line"/>
      <point x="450.0" y="233"/>
      <point x="420.0" y="213"/>
      <point x="380.0" y="213" type="curve" smooth="yes"/>
      <point x="310.0" y="213"/>
      <point x="280.0" y="253"/>
      <point x="200.0" y="253" type="curve" smooth="yes"/>
      <point x="140.0" y="253"/>
      <point x="90.0" y="213"/>
      <point x="50.0" y="173" type="curve"/>
    </contour>
    <contour>
      <point x="130.0" y="327" type="line"/>
      <point x="150.0" y="347"/>
      <point x="180.0" y="367"/>
      <point x="220.0" y="367" type="curve" smooth="yes"/>
      <point x="290.0" y="367"/>
      <point x="320.0" y="327"/>
      <point x="400.0" y="327" type="curve" smooth="yes"/>
      <point x="460.0" y="327"/>
      <point x="510.0" y="367"/>
      <point x="550.0" y="407" type="curve"/>
      <point x="470.0" y="497" type="line"/>
      <point x="450.0" y="477"/>
      <point x="420.0" y="457"/>
      <point x="380.0" y="457" type="curve" smooth="yes"/>
      <point x="310.0" y="457"/>
      <point x="280.0" y="497"/>
      <point x="200.0" y="497" type="curve" smooth="yes"/>
      <point x="140.0" y="497"/>
      <point x="90.0" y="457"/>
      <point x="50.0" y="417" type="curve"/>
    </contour>
  </outline>
</glyph>
<glyph name="notequal" format="2">
	<advance width="600"/>
	<unicode hex="2260"/>
	<outline>
		<contour>
			<point x="62" y="98" type="line"/>
			<point x="538" y="98" type="line"/>
			<point x="538" y="232" type="line"/>
			<point x="62" y="232" type="line"/>
		</contour>
		<contour>
			<point x="62" y="348" type="line"/>
			<point x="538" y="348" type="line"/>
			<point x="538" y="482" type="line"/>
			<point x="62" y="482" type="line"/>
		</contour>
		<contour>
			<point x="120" y="-30" type="line"/>
			<point x="260" y="-30" type="line"/>
			<point x="480" y="610" type="line"/>
			<point x="340" y="610" type="line"/>
		</contour>
	</outline>
</glyph>
<glyph name="lessequal" format="2">
	<advance width="600"/>
	<unicode hex="2264"/>
	<outline>
		<contour>
			<point x="68" y="60" type="line"/>
			<point x="510" y="60" type="line"/>
			<point x="510" y="194" type="line"/>
			<point x="68" y="194" type="line"/>
		</contour>
		<contour>
			<point x="68" y="307" type="line"/>
			<point x="510" y="179" type="line"/>
			<point x="510" y="323" type="line"/>
			<point x="178" y="399" type="line"/>
			<point x="68" y="399" type="line"/>
		</contour>
		<contour>
			<point x="68" y="363" type="line"/>
			<point x="178" y="363" type="line"/>
			<point x="510" y="437" type="line"/>
			<point x="510" y="577" type="line"/>
			<point x="68" y="449" type="line"/>
		</contour>
	</outline>
</glyph>
<glyph name="greaterequal" format="1">
  <advance width="600"/>
  <unicode hex="2265"/>
  <outline>
    <contour>
      <point x="90" y="60" type="line"/>
      <point x="532" y="60" type="line"/>
      <point x="532" y="194" type="line"/>
      <point x="90" y="194" type="line"/>
    </contour>
    <contour>
      <point x="90" y="179" type="line"/>
      <point x="532" y="307" type="line"/>
      <point x="532" y="399" type="line"/>
      <point x="422" y="399" type="line"/>
      <point x="90" y="323" type="line"/>
    </contour>
    <contour>
      <point x="90" y="437" type="line"/>
      <point x="422" y="363" type="line"/>
      <point x="532" y="363" type="line"/>
      <point x="532" y="449" type="line"/>
      <point x="90" y="577" type="line"/>
    </contour>
  </outline>
</glyph>
<glyph name="lozenge" format="2">
	<advance width="660"/>
	<unicode hex="25CA"/>
	<outline>
		<contour>
			<point x="366" y="10" type="line"/>
			<point x="195" y="300" type="line"/>
			<point x="40" y="290" type="line"/>
			<point x="278" y="-110" type="line"/>
			<point x="366" y="-110" type="line"/>
		</contour>
		<contour>
			<point x="40" y="290" type="line"/>
			<point x="196" y="290" type="line"/>
			<point x="361" y="570" type="line"/>
			<point x="361" y="690" type="line"/>
			<point x="278" y="690" type="line"/>
		</contour>
		<contour>
			<point x="620" y="290" type="line"/>
			<point x="464" y="290" type="line"/>
			<point x="299" y="10" type="line"/>
			<point x="299" y="-110" type="line"/>
			<point x="382" y="-110" type="line"/>
		</contour>
		<contour>
			<point x="294" y="570" type="line"/>
			<point x="465" y="280" type="line"/>
			<point x="620" y="290" type="line"/>
			<point x="382" y="690" type="line"/>
			<point x="294" y="690" type="line"/>
		</contour>
	</outline>
</glyph>
<glyph name="f_f" format="1">
  <advance width="751"/>
  <unicode hex="FB00"/>
  <outline>
    <contour>
      <point x="15" y="410" type="line"/>
      <point x="375" y="410" type="line"/>
      <point x="375" y="525" type="line"/>
      <point x="15" y="525" type="line"/>
    </contour>
    <contour>
      <point x="105" y="0" type="line"/>
      <point x="255" y="0" type="line"/>
      <point x="255" y="525" type="line" smooth="yes"/>
      <point x="255" y="581"/>
      <point x="276" y="610"/>
      <point x="326" y="610" type="curve"/>
      <point x="346" y="610"/>
      <point x="369" y="606"/>
      <point x="390" y="600" type="curve"/>
      <point x="406" y="713" type="line"/>
      <point x="373" y="725"/>
      <point x="330" y="732"/>
      <point x="298" y="732" type="curve"/>
      <point x="177" y="732"/>
      <point x="105" y="653"/>
      <point x="105" y="523" type="curve" smooth="yes"/>
    </contour>
    <contour>
      <point x="375" y="410" type="line"/>
      <point x="751" y="410" type="line"/>
      <point x="751" y="525" type="line"/>
      <point x="375" y="525" type="line"/>
    </contour>
    <contour>
      <point x="465" y="0" type="line"/>
      <point x="615" y="0" type="line"/>
      <point x="615" y="525" type="line" smooth="yes"/>
      <point x="615" y="581"/>
      <point x="636" y="610"/>
      <point x="686" y="610" type="curve"/>
      <point x="706" y="610"/>
      <point x="729" y="606"/>
      <point x="750" y="600" type="curve"/>
      <point x="766" y="713" type="line"/>
      <point x="733" y="725"/>
      <point x="690" y="732"/>
      <point x="658" y="732" type="curve"/>
      <point x="537" y="732"/>
      <point x="465" y="653"/>
      <point x="465" y="523" type="curve" smooth="yes"/>
    </contour>
  </outline>
</glyph>
<glyph name="I.alt" format="2">
	<advance width="330"/>
	<anchor x="165" y="690" name="top"/>
	<anchor x="165" y="0" name="bottom"/>
	<anchor x="85" y="0" name="ogonek"/>
	<outline>
		<contour>
			<point x="85" y="0" type="line"/>
			<point x="245" y="0" type="line"/>
			<point x="245" y="690" type="line"/>
			<point x="85" y="690" type="line"/>
		</contour>
	</outline>
</glyph>
<glyph name="J.alt" format="2">
	<advance width="569"/>
	<anchor x="416" y="690" name="top"/>
	<outline>
		<contour>
			<point x="15" y="74" type="line"/>
			<point x="68" y="21"/>
			<point x="137" y="-12"/>
			<point x="223" y="-12" type="curve"/>
			<point x="372" y="-12"/>
			<point x="494" y="80"/>
			<point x="494" y="245" type="curve" smooth="yes"/>
			<point x="494" y="690" type="line"/>
			<point x="334" y="690" type="line"/>
			<point x="334" y="265" type="line" smooth="yes"/>
			<point x="334" y="177"/>
			<point x="291" y="131"/>
			<point x="218" y="131" type="curve"/>
			<point x="173" y="131"/>
			<point x="134" y="154"/>
			<point x="111" y="186" type="curve"/>
		</contour>
	</outline>
</glyph>
<glyph name=".notdef" format="2">
	<advance width="600"/>
	<outline>
		<contour>
			<point x="77.5" y="-185" type="line"/>
			<point x="217.5" y="-185" type="line"/>
			<point x="217.5" y="690" type="line"/>
			<point x="77.5" y="690" type="line"/>
		</contour>
		<contour>
			<point x="77.5" y="-185" type="line"/>
			<point x="522.5" y="-185" type="line"/>
			<point x="522.5" y="-65" type="line"/>
			<point x="77.5" y="-65" type="line"/>
		</contour>
		<contour>
			<point x="77.5" y="570" type="line"/>
			<point x="522.5" y="570" type="line"/>
			<point x="522.5" y="690" type="line"/>
			<point x="77.5" y="690" type="line"/>
		</contour>
		<contour>
			<point x="382.5" y="-185" type="line"/>
			<point x="522.5" y="-185" type="line"/>
			<point x="522.5" y="690" type="line"/>
			<point x="382.5" y="690" type="line"/>
		</contour>
	</outline>
</glyph>
<glyph name="a.alt" format="2">
	<advance width="562"/>
	<anchor x="264" y="525" name="top"/>
	<anchor x="264" y="0" name="bottom"/>
	<anchor x="408" y="0" name="ogonek"/>
	<outline>
		<contour>
			<point x="35" y="138" type="curve" smooth="yes"/>
			<point x="35" y="48"/>
			<point x="106" y="-12"/>
			<point x="190" y="-12" type="curve" smooth="yes"/>
			<point x="260" y="-12"/>
			<point x="320" y="25"/>
			<point x="352" y="78" type="curve"/>
			<point x="352" y="163" type="line"/>
			<point x="320" y="125"/>
			<point x="276" y="100"/>
			<point x="230" y="100" type="curve" smooth="yes"/>
			<point x="195" y="100"/>
			<point x="170" y="120"/>
			<point x="170" y="155" type="curve" smooth="yes"/>
			<point x="170" y="190"/>
			<point x="201" y="222"/>
			<point x="290" y="226" type="curve" smooth="yes"/>
			<point x="370" y="230" type="line"/>
			<point x="370" y="315" type="line"/>
			<point x="280" y="312" type="line" smooth="yes"/>
			<point x="114" y="306"/>
			<point x="35" y="235"/>
		</contour>
		<contour>
			<point x="52" y="493" type="curve"/>
			<point x="92" y="375" type="line"/>
			<point x="130" y="394"/>
			<point x="180" y="412"/>
			<point x="236" y="412" type="curve" smooth="yes"/>
			<point x="305" y="412"/>
			<point x="337" y="377"/>
			<point x="337" y="318" type="curve" smooth="yes"/>
			<point x="337" y="132" type="line"/>
			<point x="344" y="94" type="line"/>
			<point x="351" y="18"/>
			<point x="403" y="-12"/>
			<point x="464" y="-12" type="curve" smooth="yes"/>
			<point x="486" y="-12"/>
			<point x="510" y="-7"/>
			<point x="528" y="0" type="curve"/>
			<point x="528" y="121" type="line"/>
			<point x="522" y="119"/>
			<point x="516" y="118"/>
			<point x="510" y="118" type="curve" smooth="yes"/>
			<point x="495" y="118"/>
			<point x="487" y="126"/>
			<point x="487" y="147" type="curve"/>
			<point x="487" y="326" type="line" smooth="yes"/>
			<point x="487" y="464"/>
			<point x="394" y="537"/>
			<point x="259" y="537" type="curve" smooth="yes"/>
			<point x="178" y="537"/>
			<point x="103" y="516"/>
		</contour>
	</outline>
</glyph>
<glyph name="acute.cap" format="2">
  <advance width="600"/>
  <anchor x="300.0" y="690.0" name="_top"/>
  <outline>
    <contour>
      <point x="232" y="750" type="line"/>
      <point x="358" y="750" type="line"/>
      <point x="510" y="885" type="line"/>
      <point x="336" y="885" type="line"/>
    </contour>
  </outline>
</glyph>
<glyph name="breve.cap" format="2">
	<advance width="600"/>
	<anchor x="300" y="690" name="_top"/>
	<outline>
		<contour>
			<point x="150" y="885" type="line"/>
			<point x="155" y="795"/>
			<point x="210" y="740"/>
			<point x="300" y="740" type="curve" smooth="yes"/>
			<point x="390" y="740"/>
			<point x="445" y="795"/>
			<point x="450" y="885" type="curve"/>
			<point x="365" y="885" type="line"/>
			<point x="360" y="855"/>
			<point x="340" y="830"/>
			<point x="300" y="830" type="curve" smooth="yes"/>
			<point x="260" y="830"/>
			<point x="240" y="855"/>
			<point x="235" y="885" type="curve"/>
		</contour>
	</outline>
</glyph>
<glyph name="caron.alt" format="1">
  <advance width="600"/>
  <outline>
    <contour>
      <point x="262" y="525" type="line"/>
      <point x="382" y="525" type="line"/>
      <point x="432" y="732" type="line"/>
      <point x="292" y="732" type="line"/>
    </contour>
    <contour>
      <point x="300" y="720" type="move" name="_caron.alt"/>
    </contour>
  </outline>
</glyph>
<glyph name="circumflex.cap" format="2">
	<advance width="600"/>
	<anchor x="300" y="690" name="_top"/>
	<anchor x="302" y="861" name="top"/>
	<outline>
		<contour>
			<point x="112" y="750" type="line"/>
			<point x="238" y="750" type="line"/>
			<point x="380" y="885" type="line"/>
			<point x="216" y="885" type="line"/>
		</contour>
		<contour>
			<point x="222" y="885" type="line"/>
			<point x="364" y="750" type="line"/>
			<point x="490" y="750" type="line"/>
			<point x="386" y="885" type="line"/>
		</contour>
	</outline>
</glyph>
